<svg xmlns="http://www.w3.org/2000/svg" width="112" height="32" viewBox="0 0 112 32"><defs><clipPath id="a"><path fill="none" stroke-width="0" d="M.5 0h111v32H.5z"/></clipPath></defs><g clip-path="url(#a)"><path fill="#eb1f40" d="M40 24.1c-1.7 0-3-.5-3.9-1.5s-1.3-2.5-1.3-4.3c0-1.9.5-3.4 1.4-4.4s2.3-1.6 4-1.5c1.1 0 2.2.3 3.2.7L42 14.6c-1-.3-1.2-.3-1.9-.3-2 0-2.9 1.3-2.9 3.9 0 1.3.2 2.2.7 2.9.5.6 1.2 1 2.1 1 1.1 0 2.1-.3 3-.8v2.1c-.4.3-.9.4-1.4.5-.4.2-1 .2-1.6.2m9.9-6.7 4.6-4.9h-2.8l-3.4 3.7-1.4 1.7h-.1l.1-2.2v-.6l-2.4 2.8V24H47v-4l1.3-1.1 3.6 5h2.8l-4.8-6.5ZM7.6 10.7a4 4 0 0 0-3.3 1.5c-.8 1-1.2 2.4-1.2 4.2 0 1.9.4 3.3 1.2 4.2.7.9 1.8 1.4 3.3 1.4.6 0 1.2-.1 1.8-.2.6-.1 1.2-.3 1.9-.5v2.1c-1.2.4-2.5.7-4 .7-2.2 0-3.9-.7-5-2C1.1 20.8.5 18.8.5 16.3c0-1.6.3-2.9.9-4.1.5-1.1 1.4-2.1 2.5-2.7 1.1-.6 2.3-.9 3.8-.9s2.9.3 4.2 1l-.9 2c-.5-.2-1.1-.5-1.6-.6-.6-.2-1.2-.3-1.8-.3Zm15.1 13.2h-2.4v-7c0-.9-.2-1.5-.5-2-.4-.4-.9-.7-1.7-.7-1 0-1.8.3-2.2.9-.5.6-.7 1.6-.7 3.1v5.7h-2.4V9l2.4-1.1V12c0 .7 0 1.4-.1 2.1h.2c.3-.6.8-1 1.4-1.3s1.3-.5 2-.5c2.7 0 4.1 1.4 4.1 4.2l-.1 7.4Zm6.2-9.8c-.8 0-1.4.2-1.8.7-.5.5-.7 1.2-.8 2.1h5.1c0-.9-.2-1.7-.7-2.1-.5-.4-1.1-.7-1.8-.7Zm.4 10c-1.8 0-3.1-.5-4.1-1.6-1-1-1.5-2.5-1.5-4.3 0-1.9.5-3.3 1.4-4.4s2.2-1.6 3.8-1.6c1.5 0 2.7.5 3.5 1.4.9.9 1.3 2.2 1.3 3.8v1.3h-7.5c0 1.1.3 2 .9 2.6s1.3.9 2.4.9c.6 0 1.3-.1 1.9-.2s1.3-.4 1.9-.6v2c-.6.3-1.2.5-1.8.6-.8.1-1.5.1-2.2.1Z"/><path fill="#eb1f40" d="M58.8 22.2c.9 0 1.6-.2 2.1-.7s.8-1.2.8-2.1v-1l-1.5.1c-1.1 0-2 .2-2.5.6-.5.3-.8.9-.8 1.6 0 .5.1.9.4 1.2.5.1.9.3 1.5.3m3.6 1.6-.5-1.6h-.1a4.02 4.02 0 0 1-3.7 1.8c-1.1 0-2-.3-2.6-.9s-.9-1.5-.9-2.6c0-1.2.4-2.1 1.3-2.7.9-.6 2.2-.9 4-1l2-.1v-.6c0-.7-.2-1.3-.5-1.6-.3-.4-.9-.5-1.6-.5-.6 0-1.1.1-1.7.3l-1.5.6-.8-1.7c.6-.3 1.3-.6 2-.7.7-.2 1.4-.2 2.1-.3 1.4 0 2.5.3 3.3 1 .7.6 1.1 1.6 1.1 3v7.7l-1.9-.1Z"/><path fill="#0058a2" d="M70.4 22.2c.6 0 1.2-.1 1.8-.3v1.8l-1 .3c-.4.1-.9.1-1.3.1-2.3 0-3.4-1.2-3.4-3.6v-6.2H65v-1.1l1.7-.9.8-2.4H69v2.5h3v1.8h-3.2v6.1c0 .6.1 1 .4 1.3s.7.6 1.2.6m8.3-9.9c.4 0 .8 0 1.2.1l-.2 2.3c-.3-.1-.7-.1-1.1-.1-1 0-1.7.3-2.3 1-.6.6-.9 1.5-.9 2.5v6H73V12.5h1.9l.3 2h.1c.4-.7.9-1.2 1.5-1.6.5-.4 1.2-.6 1.9-.6m5.1 10c.9 0 1.6-.2 2.1-.7s.8-1.2.8-2.1v-1l-1.5.1c-1.1 0-2 .2-2.5.6-.4.2-.7.8-.7 1.5 0 .5.2.9.5 1.2.3.2.7.4 1.3.4m3.6 1.6-.5-1.6h-.1a4.02 4.02 0 0 1-3.7 1.8c-1.1 0-2-.3-2.6-.9s-.9-1.5-.9-2.6c0-1.2.4-2.1 1.3-2.7s2.2-.9 4-1l2-.1v-.6c0-.7-.2-1.3-.5-1.6-.3-.4-.9-.5-1.6-.5-.6 0-1.1.1-1.7.3l-1.5.6-.8-1.7c.6-.3 1.3-.6 2-.7.7-.2 1.4-.2 2.1-.3 1.4 0 2.5.3 3.3 1 .7.6 1.1 1.6 1.1 3V24l-1.9-.1Zm7.9-1.7c1 0 1.7-.3 2.2-.8.5-.6.7-1.5.7-2.7v-.3c0-1.4-.2-2.5-.7-3.1s-1.2-.9-2.2-.9c-.8 0-1.5.3-2 1s-.7 1.7-.7 3 .2 2.2.7 2.9c.4.5 1.1.9 2 .9m-.7 1.9c-1.4 0-2.5-.5-3.3-1.6s-1.2-2.5-1.2-4.4.4-3.3 1.2-4.4c.8-1 1.9-1.6 3.3-1.6 1.5 0 2.6.6 3.4 1.7h.1c0-.5-.1-1.1-.1-1.8V9l2.4-1.1V24h-1.9l-.4-1.5H98c-.8 1.1-1.9 1.6-3.4 1.6Zm12-10c-.8 0-1.4.2-1.8.7-.5.5-.7 1.2-.8 2.1h5.1c0-.9-.2-1.7-.7-2.1-.4-.4-1-.7-1.8-.7Zm.5 10c-1.8 0-3.1-.5-4.1-1.6-1-1-1.5-2.5-1.5-4.3 0-1.9.5-3.3 1.4-4.4.9-1.1 2.2-1.6 3.8-1.6 1.5 0 2.7.5 3.5 1.4.9.9 1.3 2.2 1.3 3.8v1.3H104c0 1.1.3 2 .9 2.6s1.3.9 2.4.9c.6 0 1.3-.1 1.9-.2s1.3-.4 1.9-.6v2c-.6.3-1.2.5-1.8.6-.8.1-1.5.1-2.2.1m-67-8.2a.3.3 0 0 0-.4 0c-.9.3-1.2.9-1.1 1.7.1 1.4.4 2 .5 2.3.1.4.6.8 1.1.8.4 0 .9 0 1.8-1l9-10.5c-.6 0-1.2 0-1.8.1-.3.1-.7.2-1 .4-.2.1-.6.5-1.1 1.1-.7.7-1.5 1.7-2.4 2.7-1.8 2.1-3.7 4.3-3.8 4.3-.3 0-.4-.8-.4-1.3 0-.2-.1-.3-.2-.5-.1 0-.2 0-.2-.1Z"/><path fill="#eb1f40" d="M47 7.8 44.6 9v4.6c.9-1 1.7-2 2.4-2.7V7.8Z"/></g></svg>