<svg xmlns="http://www.w3.org/2000/svg" width="89" height="36" viewBox="0 0 89 36"><path d="m67.84,10.37c.63.38,2.67,2.59,2.67,2.89,0,.13-.7.2-2.1.2-2.41,0-2.32.07-2.32-1.71,0-.63.06-1.26.11-1.42.15-.38.96-.36,1.64.04Z" fill="#940c0c"/><path d="m57.81.26c3.04.65,5.03,1.8,8.65,4.99,2.04,1.83,6.63,6.4,7.27,7.24.11.16,1.07.47,2.21.7,2.89.61,5.19,1.29,6.22,1.85,1.16.61,2.21,1.78,3.02,3.36.37.72,1.01,1.6,1.53,2.07.77.72.94,1.02,1.56,2.87.63,1.81.72,2.28.72,3.86.02,1.53-.04,1.9-.39,2.55-.75,1.35-2.87,2.16-3.59,1.35-.2-.2-.31-.77-.37-1.74-.04-1.11-.17-1.65-.55-2.43-2.95-5.78-11.49-4.6-12.67,1.78-.11.61-.15,1.28-.09,1.47.07.2,0,.54-.17.79l-.29.45h-22.33c-17.12,0-22.39-.05-22.55-.22-.13-.13-.22-.66-.22-1.22,0-2.77-1.53-5.12-4.05-6.27-.85-.4-1.27-.47-2.67-.47s-1.8.07-2.71.49c-2.43,1.1-3.77,3.09-4,5.84-.09,1.02-.2,1.56-.39,1.67-.15.11-2.49.18-5.17.18-4.79,0-4.92-.02-5.5-.41-1.07-.7-1.29-1.37-1.29-3.75v-2.12l.68-.31.7-.32.11-7.37c.11-7.6.31-10.17,1.1-13.89.39-1.87.77-2.55,1.71-2.98C4.88,0,7.29-.01,30.78,0,52.05,0,56.82.06,57.81.26Zm-3.76,4.15c-.26.23-.29.92-.29,4.58,0,2.64.07,4.45.18,4.67.18.32.48.34,9.02.34h8.84v-.4c0-.49-7.77-8.1-9.11-8.93l-.9-.56h-3.72c-3.15,0-3.77.04-4.01.29Zm25.94,12.38c-.57.54-.57.74,0,1.56.53.77,2.3,1.69,3.63,1.87,1.09.14,1.12-.02.33-1.53-.57-1.11-1.07-1.56-2.3-2.05-.99-.4-1.14-.38-1.66.14ZM2.8,20.86l.06,2.93.61.05c1.03.11,1.14-.14,1.14-2.28,0-1.83-.04-1.96-.55-2.77-.35-.56-.68-.84-.92-.84-.37,0-.37.09-.33,2.91Z" fill="#940c0c" fill-rule="evenodd"/><path d="m35.98,11.97c-.57.03-1.09-.13-1.56-.44-.46-.3-.77-.72-.96-1.23-.08-.23-.12-.48-.16-.73-.03-.17-.05-.34-.04-.5.05-.77.3-1.45.89-1.97.28-.25.59-.42.95-.53.37-.11.74-.16,1.12-.12.74.07,1.38.35,1.86.94.22.27.37.57.47.91.12.4.16.8.12,1.21-.06.68-.31,1.29-.82,1.76-.3.29-.66.5-1.08.59-.27.06-.54.09-.82.14,0-.01,0-.02,0-.04h0Zm1.69-2.73c.01-.32-.03-.63-.14-.92-.27-.68-.78-.95-1.39-1.01-.16-.01-.33.02-.5.04-.25.03-.47.13-.67.28-.41.31-.6.74-.65,1.23-.05.46-.03.92.17,1.36.23.51.63.8,1.16.88.32.05.65.04.97-.08.35-.13.62-.36.8-.68.19-.34.27-.72.24-1.1h0Z" fill="#fff"/><path d="m18.72,9.97c-.23,0-.44,0-.66,0-.16,0-.23-.08-.23-.23,0-.15,0-.29,0-.44,0-.03.04-.08.07-.08.57,0,1.13,0,1.72,0,0,.05,0,.09,0,.13,0,.65,0,1.3,0,1.95,0,.07-.02.12-.08.16-.28.19-.58.33-.91.42-.45.13-.91.12-1.37.08-.46-.04-.9-.22-1.28-.48-.4-.28-.7-.65-.89-1.1-.08-.19-.13-.4-.16-.6-.03-.3-.07-.6-.04-.89.1-.92.51-1.64,1.34-2.09.3-.16.62-.27.97-.29.23-.01.47-.05.7-.03.58.05,1.13.2,1.59.6.08.07.12.12.04.22-.08.1-.14.23-.21.34-.08.12-.25.16-.38.09-.19-.1-.37-.21-.56-.28-.34-.12-.69-.16-1.06-.1-.24.04-.46.12-.66.25-.27.17-.46.42-.59.71-.14.33-.21.67-.18,1.03.04.59.2,1.14.7,1.52.25.19.54.29.86.33.21.03.42.03.63-.01.21-.04.4-.12.6-.19.02,0,.04-.04.04-.06,0-.3,0-.61,0-.93h0Z" fill="#fff"/><path d="m12.62,8.32c0,.54.02,1.09,0,1.63-.03.64-.28,1.19-.8,1.59-.25.19-.52.34-.84.37-.33.03-.68.08-1.01.03-.67-.09-1.2-.43-1.52-1.05-.13-.25-.22-.5-.24-.78-.01-.19-.04-.38-.04-.58,0-.97,0-1.93,0-2.9,0-.11.04-.14.14-.14.24,0,.48,0,.72,0,.1,0,.13.03.13.13,0,.57,0,1.15,0,1.72,0,.48,0,.97,0,1.45,0,.28.07.56.23.8.22.33.54.49.93.5.41.01.76-.1,1.02-.43.12-.16.21-.33.23-.53.02-.23.04-.46.04-.69,0-.94,0-1.88,0-2.82,0-.1.03-.14.13-.13.25,0,.5,0,.75,0,.1,0,.12.03.12.12,0,.57,0,1.13,0,1.7h0Z" fill="#fff"/><path d="m28.53,11.92c-.31,0-.61,0-.92,0-.02,0-.06-.04-.07-.07-.01-.03,0-.06,0-.09v-5.08c0-.16,0-.16.17-.16.46,0,.92,0,1.38,0,.25,0,.51,0,.76.05.49.09.94.26,1.24.7.11.17.21.34.23.55.02.21.05.42.04.62-.04.62-.33,1.09-.9,1.37-.32.16-.66.23-1.02.23-.25,0-.5,0-.76,0-.11,0-.15.03-.15.14,0,.58,0,1.16,0,1.73,0,0,0,0-.01.03h0Zm0-3.66c0,.29,0,.57,0,.86,0,.09.03.14.13.13.21,0,.43.01.64,0,.18-.02.37-.05.54-.11.26-.09.42-.3.49-.58.06-.25.06-.49-.04-.73-.15-.36-.45-.49-.81-.51-.28-.02-.56,0-.84,0-.09,0-.12.03-.12.12,0,.28,0,.56,0,.84h0Z" fill="#fff"/><path d="m23.48,11.98c-.75,0-1.31-.2-1.79-.62-.07-.06-.07-.11-.02-.18.07-.1.13-.21.19-.31.11-.2.29-.24.48-.11.19.13.39.25.61.34.25.1.52.1.78.03.24-.06.42-.18.51-.42.15-.4.06-.73-.35-.92-.23-.11-.49-.16-.73-.25-.32-.11-.65-.22-.9-.45-.17-.16-.3-.35-.35-.58-.03-.16-.08-.32-.08-.48.02-.42.15-.8.47-1.09.26-.24.55-.39.9-.43.18-.02.36-.05.54-.04.49.03.94.18,1.33.49.05.04.07.09.04.15-.07.13-.15.27-.22.4-.07.13-.17.19-.34.1-.18-.09-.36-.19-.55-.26-.18-.07-.37-.1-.57-.05-.14.03-.27.05-.4.14-.34.24-.4.78.04,1.01.23.12.47.2.71.29.4.14.81.26,1.12.58.2.21.33.46.32.76,0,.24,0,.49-.06.71-.12.45-.41.78-.83,1-.3.15-.62.22-.85.2h0Z" fill="#fff"/><path d="m41.97,7.35h-.79c-.24,0-.48,0-.72,0-.08,0-.11-.02-.11-.11,0-.21,0-.41,0-.62,0-.09.03-.12.12-.12.55,0,1.1,0,1.64,0,.78,0,1.55,0,2.33,0,.1,0,.13.03.13.13,0,.2,0,.4,0,.61,0,.08-.02.12-.11.12-.45,0-.9,0-1.35,0-.05,0-.09,0-.15,0v4.56h-.99v-4.56h0Z" fill="#fff"/><path d="m18.93,36c3.15,0,5.7-2.58,5.7-5.75s-2.55-5.75-5.7-5.75-5.7,2.58-5.7,5.75,2.55,5.75,5.7,5.75Zm0-2.88c1.62,0,2.94-1.29,2.94-2.88s-1.32-2.88-2.94-2.88-2.94,1.29-2.94,2.88,1.32,2.88,2.94,2.88Z" fill="#940c0c" fill-rule="evenodd"/><path d="m77.97,36c3.15,0,5.7-2.58,5.7-5.75s-2.55-5.75-5.7-5.75-5.7,2.58-5.7,5.75,2.55,5.75,5.7,5.75Zm0-2.88c1.62,0,2.94-1.29,2.94-2.88s-1.32-2.88-2.94-2.88-2.94,1.29-2.94,2.88,1.32,2.88,2.94,2.88Z" fill="#940c0c" fill-rule="evenodd"/></svg>