<svg xmlns="http://www.w3.org/2000/svg" viewBox="0 0 85 102"><path d="m78.91 72.93-1.29-.74-4.74-2.81-4.97-2.94-4.06-2.39-3.88-2.32c-1.32-.78-2.65-1.54-3.97-2.33l-3.88-2.32L48.59 55c-1.66-.98-3.31-1.97-4.98-2.93-.31-.18-.39-.37-.39-.71V9.16l.42.21 3.52 2.09 3.35 1.97 4.56 2.69 4.66 2.78c1.61.96 3.23 1.9 4.84 2.85l4.98 2.94c1.36.8 2.73 1.59 4.08 2.4 1.55.92 3.07 1.88 4.65 2.75.54.29.64.62.64 1.19v41.89Z"/><path d="M2.54 28.06c0-.13-.02-.19-.02-.25v-3.99c0-.17.03-.28.2-.38 1.4-.81 2.78-1.64 4.17-2.46l4.08-2.4 4.79-2.83 4.72-2.8 4.06-2.39 3.85-2.27 3.56-2.12 5.76-3.4c1.55-.91 3.1-1.83 4.66-2.73.07-.04.21-.05.29 0l6.13 3.62 5.6 3.3 4.06 2.39c1.26.74 2.51 1.5 3.77 2.25l3.67 2.16 4.98 2.94 4.06 2.39 3.88 2.32 3.53 2.08c.09.05.19.19.19.29v4.16l-.02.14-.59-.31-5.61-3.34-5.42-3.19c-1.36-.8-2.73-1.59-4.08-2.4l-4.07-2.42-4.55-2.67-3.88-2.32-3.56-2.08-5.39-3.18-2.72-1.61a.28.28 0 0 0-.25 0l-5.74 3.38-6.09 3.58-4.61 2.73-4.77 2.81-4.46 2.66-4.29 2.52-4.97 2.94-4.64 2.73-.29.17Z"/><path d="M6.16 50.75V30.57c0-.26.08-.41.29-.53l5.53-3.27 6.07-3.56c1.67-.98 3.34-1.96 5-2.96.26-.16.25-.01.25.17V40.3c0 .23-.08.36-.27.47l-3.4 2.02-3.88 2.28-4.19 2.48-4.08 2.4-1.32.8ZM41.8 9.18v20.17c0 .28-.11.42-.32.55l-5.74 3.39-6.7 3.96-4.18 2.45c-.04.02-.15-.03-.19-.08-.03-.04 0-.13 0-.19V19.72c0-.33.12-.5.38-.65 1.31-.75 2.6-1.52 3.9-2.28l4.16-2.47 3.41-2.02 4.64-2.73.65-.37ZM6.16 72.94V52.72c0-.21.06-.33.25-.44l3.39-2 3.06-1.81 3.67-2.16 5.39-3.18c.39-.23.78-.46 1.17-.71.14-.09.2-.06.21.1v19.9c0 .26-.06.43-.31.57-1.71.99-3.41 2-5.12 3.01l-4.07 2.42-4.54 2.67-3.1 1.84ZM41.8 31.35v20.24c0 .16 0 .29-.19.41-1.59.92-3.16 1.87-4.75 2.8l-6.18 3.64-4.64 2.77-1.16.67c-.16.09-.22.04-.22-.13v-.17c0-6.47 0-12.95-.02-19.42 0-.54.19-.8.61-1.03 1.4-.8 2.78-1.64 4.17-2.45l4.73-2.77 4.07-2.42 3.37-1.99.2-.13Zm23.12 61.58a5.85 5.85 0 0 1-3.64-1.04 5.88 5.88 0 0 1-2.25-2.92c-.2-.55-.28-1.15-.37-1.73a6.64 6.64 0 0 1 2-5.88 6.67 6.67 0 0 1 4.84-1.55 6.03 6.03 0 0 1 5.45 4.4c.29.94.38 1.91.29 2.88a6.47 6.47 0 0 1-1.9 4.2 5.07 5.07 0 0 1-2.51 1.4c-.63.13-1.27.22-1.9.32v-.09Zm3.94-6.5a5.38 5.38 0 0 0-.33-2.19 3.55 3.55 0 0 0-3.24-2.39c-.38-.03-.78.04-1.17.08-.58.06-1.1.3-1.57.66a4.03 4.03 0 0 0-1.52 2.93 6.07 6.07 0 0 0 .41 3.23 3.44 3.44 0 0 0 2.71 2.1c.75.12 1.52.1 2.27-.18a3.46 3.46 0 0 0 1.88-1.63 4.8 4.8 0 0 0 .57-2.61Zm-44.23 1.74H23.1c-.37 0-.55-.18-.55-.56v-1.05c0-.07.1-.19.15-.19h4.01l.02.32v4.64c0 .17-.04.28-.19.39-.65.46-1.36.78-2.13 1a8.6 8.6 0 0 1-3.19.18 6.12 6.12 0 0 1-5.43-5.21c-.08-.7-.16-1.43-.09-2.13a5.99 5.99 0 0 1 5.39-5.66c.55-.03 1.1-.12 1.64-.08 1.36.12 2.64.48 3.7 1.44.19.17.29.28.09.52-.19.24-.32.54-.49.81-.18.29-.58.37-.88.21-.43-.23-.86-.5-1.31-.67a4.82 4.82 0 0 0-2.47-.23 3.64 3.64 0 0 0-2.92 2.27c-.34.78-.48 1.6-.43 2.45.09 1.41.46 2.7 1.63 3.61.59.46 1.27.68 2 .79.5.07.99.07 1.47-.03.48-.11.94-.3 1.4-.46.04-.01.09-.1.09-.15v-2.21Zm-14.25-3.92c0 1.29.05 2.58-.01 3.87a4.91 4.91 0 0 1-1.87 3.79c-.58.46-1.22.81-1.96.89-.78.08-1.58.19-2.35.08a4.52 4.52 0 0 1-3.55-2.5 4.66 4.66 0 0 1-.55-1.86c-.03-.46-.08-.91-.09-1.37v-6.9c0-.27.09-.34.34-.33.56.02 1.12.02 1.68 0 .24 0 .31.06.31.31v4.1c0 1.15-.02 2.3 0 3.45.02.68.15 1.34.53 1.91a2.56 2.56 0 0 0 2.18 1.19c.95.03 1.77-.23 2.37-1.03.28-.38.5-.79.54-1.27.05-.55.1-1.1.1-1.65v-6.7c0-.25.06-.33.31-.32.58.02 1.16.02 1.74 0 .22 0 .28.07.28.29v4.04Zm37.14 8.56h-2.15c-.06 0-.13-.1-.16-.17-.03-.06 0-.15 0-.22v-12.1c0-.38 0-.39.39-.39h3.23c.59 0 1.2 0 1.78.11 1.14.2 2.19.61 2.89 1.65.27.4.48.82.54 1.3.06.49.13.99.1 1.48a3.63 3.63 0 0 1-2.11 3.25c-.75.38-1.55.55-2.38.56h-1.77c-.25 0-.35.08-.34.33l.02 4.12-.03.07Zm.02-8.71v2.04c0 .22.08.32.31.32.5-.01 1 .03 1.49-.01.43-.04.86-.12 1.27-.27.62-.22.99-.7 1.14-1.37.14-.6.14-1.18-.09-1.75-.35-.85-1.05-1.17-1.88-1.22-.65-.04-1.31 0-1.96-.02-.2 0-.28.07-.27.28v2.01Zm-11.81 8.85a5.85 5.85 0 0 1-4.18-1.49c-.17-.15-.17-.25-.05-.42.16-.24.31-.49.45-.74.27-.48.69-.56 1.12-.26.44.31.92.6 1.42.8.58.24 1.21.24 1.83.08.55-.14.98-.42 1.19-.99.35-.94.14-1.73-.81-2.19-.54-.26-1.14-.39-1.7-.59-.75-.26-1.51-.51-2.11-1.08-.4-.38-.7-.83-.82-1.39-.08-.38-.19-.77-.18-1.15a3.63 3.63 0 0 1 3.21-3.62c.42-.05.84-.11 1.25-.09 1.15.06 2.19.43 3.1 1.18.12.1.17.21.09.36l-.52.96c-.16.3-.39.45-.8.24-.42-.21-.83-.45-1.27-.62a2.15 2.15 0 0 0-1.33-.13c-.32.08-.64.13-.93.33-.8.56-.93 1.85.1 2.41.53.28 1.1.48 1.66.69.93.34 1.9.61 2.61 1.38.46.5.77 1.1.75 1.8-.01.57 0 1.16-.14 1.7a3.7 3.7 0 0 1-1.93 2.37c-.71.37-1.45.51-1.98.48Zm43.19-11.02H75.4c-.19 0-.26-.06-.26-.26V80.2c0-.22.07-.29.29-.29h9.28c.24 0 .3.07.29.3v1.44c0 .2-.05.28-.26.28h-3.15l-.36.02v10.84h-2.32V81.93ZM22.1 101.95l-.33.01v-2.52c-.1.06-.18.07-.2.12l-.9 1.73c-.14.28-.29.29-.45.01l-.87-1.59c-.05-.09-.1-.19-.2-.27v2.51l-.35.02-.02-.25V98.9c0-.1.07-.2.11-.3.12.05.28.07.34.16.31.52.59 1.05.88 1.58l.22.41c.02.04.08.11.09.1.05-.02.1-.06.13-.11l1-1.89c.04-.07.08-.16.15-.19.09-.04.21-.05.31-.04.04 0 .09.12.09.18v3.17Zm49.5-2.45v2.44h-.42v-3.03c0-.11.08-.21.12-.31.1.05.24.07.31.16.52.68 1.03 1.38 1.54 2.07l.11.15c.03.03.08.05.12.07.01-.05.04-.09.04-.14 0-.69-.02-1.37-.01-2.06 0-.09.13-.18.2-.27.07.07.19.14.19.2v3.15c-.2.05-.33.02-.45-.15-.54-.76-1.1-1.5-1.65-2.26-.02-.02-.02-.05-.03-.07l-.08.04Zm-2.98 2.48c-.88.07-1.58-.74-1.56-1.74.02-.93.75-1.72 1.63-1.67 1.07.06 1.55.8 1.55 1.72 0 .92-.54 1.74-1.62 1.69Zm-1.14-1.67.14.59c.11.42.43.63.81.71.41.08.81-.02 1.08-.39.28-.38.32-.81.24-1.28-.16-.89-.9-1.12-1.6-.83-.51.21-.63.68-.66 1.2Zm-11.94-.04c0 .61-.2 1.11-.69 1.46-.73.51-2.09.31-2.38-.8-.22-.81-.06-1.61.56-2.07.77-.57 2.01-.29 2.35.66.09.24.12.5.17.75Zm-.5.03v-.25c-.02-.44-.33-.9-.67-1.01-.44-.14-1.03 0-1.3.33-.28.34-.28.75-.25 1.16.02.44.22.78.6.97.4.2.8.18 1.18-.09.39-.27.47-.67.45-1.11Zm-19.44.48c-.21-.17-.63.14-.56-.39h.98v1.13c0 .07-.08.17-.14.21-.78.46-2.13.39-2.59-.82a1.76 1.76 0 0 1 1.04-2.25c.49-.17.94-.11 1.39.13.16.08.3.19.18.38-.1.16-.22.04-.34-.02-.55-.27-1.47-.27-1.8.54-.17.42-.04 1.26.25 1.6.32.37 1.06.44 1.49.21.05-.03.1-.11.1-.17.01-.2 0-.39 0-.56Zm23.4-.89v-1.05c0-.14 0-.27.2-.25.17.01.24.09.24.27v1.95c0 .38.23.66.59.8.26.1.67-.02.86-.3.11-.17.19-.38.2-.58.03-.62.01-1.24 0-1.87 0-.17.03-.27.22-.27s.22.11.22.27v1.89c0 .63-.54 1.22-1.19 1.25-.83.03-1.42-.58-1.36-1.35.02-.25 0-.51 0-.76Zm-50.73-.01v-1.02c0-.12-.03-.28.18-.27.19 0 .26.11.26.28l.01 1.95a.8.8 0 0 0 .85.8c.48-.02.79-.37.81-.88.02-.62 0-1.24 0-1.86 0-.14-.03-.29.2-.29.19 0 .25.1.25.29v1.83c-.02.63-.47 1.27-1.23 1.29-.81.02-1.36-.58-1.32-1.3.02-.27 0-.55 0-.82Zm21.47.6v.9c0 .19.08.24.26.24h1.28v.35h-1.82c-.05 0-.14-.14-.14-.21v-2.91c0-.18.08-.25.25-.25l1.54.01c.07 0 .16.12.18.2.04.14-.03.22-.2.22h-1.1c-.19 0-.26.07-.25.26v.59c0 .18.07.24.25.24h.85c.07 0 .14.1.21.16-.07.07-.14.21-.22.21-.35.02-.69.01-1.08.01Zm-6.87 1.46 1.09-2.77c.05-.13.07-.27.14-.38.05-.09.17-.18.25-.18.1 0 .25.08.29.17.31.75.59 1.51.89 2.26l.34.89c-.38.1-.44.06-.55-.27-.04-.13-.06-.28-.13-.39-.06-.09-.18-.19-.27-.2-.35-.02-.7 0-1.05-.01-.18-.01-.24.09-.3.22l-.12.33c-.13.4-.13.4-.57.33Zm2.1-1.23-.6-1.6-.59 1.6h1.19Zm17.3 1.22c-.4.08-.46.04-.6-.43-.09-.29-.28-.44-.58-.44h-.58c-.31 0-.51.14-.61.43-.02.07-.07.14-.08.21-.05.31-.24.31-.51.24l.29-.82.85-2.21c.06-.15.11-.34.35-.32.21.02.25.14.31.31.3.81.63 1.61.94 2.42.08.2.14.41.21.62Zm-.89-1.22-.54-1.5-.07-.03-.57 1.52h1.19Zm8.14.85c.11-.29.23-.32.47-.1.22.2.54.24.82.12.29-.12.37-.32.35-.65-.02-.3-.27-.34-.46-.43-.18-.09-.37-.13-.55-.22-.37-.18-.58-.53-.53-.87.06-.4.44-.79.82-.83.29-.03.57 0 .83.17.27.18.28.23.05.45l-.54-.24c-.33-.13-.75.19-.74.54 0 .25.19.34.36.42.27.13.56.2.81.35.32.18.46.6.36.94-.15.49-.53.74-.81.76-.47.03-.91.02-1.25-.41Zm27.02-2.35c-.2-.09-.37-.18-.55-.25-.32-.12-.75.2-.74.55 0 .24.19.34.36.42.26.12.54.2.79.34.35.21.49.59.38.95-.14.46-.52.74-.83.76-.61.03-.85-.03-1.22-.39.16-.32.15-.31.47-.12.27.16.55.23.85.09.28-.13.34-.35.32-.64-.02-.29-.25-.33-.44-.42-.2-.1-.43-.15-.63-.24-.33-.14-.47-.44-.47-.78 0-.35.19-.64.49-.79.4-.2.8-.19 1.18.07.24.16.25.21.03.44Zm-33.57 2.12c.33.11.6.25.88.28.35.04.57-.18.62-.54.04-.24-.16-.48-.47-.58-.2-.07-.41-.14-.6-.23-.33-.16-.45-.43-.44-.8a.83.83 0 0 1 .47-.77c.4-.2.8-.15 1.19.08.15.09.17.2.12.32-.07.15-.2.1-.31.03-.25-.16-.51-.28-.78-.09-.13.09-.28.25-.3.4-.02.12.1.32.22.39.27.17.57.29.87.4.63.23.55 1.26.04 1.6-.39.26-1.14.24-1.53-.12-.19-.17-.05-.3.03-.37Zm2.78.02c.33.1.62.23.92.27.35.05.57-.28.61-.57.03-.21-.21-.47-.48-.55a3.95 3.95 0 0 1-.57-.22c-.27-.12-.46-.3-.48-.62-.03-.39.05-.73.4-.93.43-.25.86-.21 1.29.05.15.09.16.21.08.31-.05.06-.21.07-.29.03-.25-.14-.51-.28-.78-.09a.82.82 0 0 0-.32.42c-.03.1.1.3.21.37.28.17.6.27.89.42.57.32.57 1.25.01 1.59-.34.21-1.11.21-1.44-.08-.23-.2-.24-.23-.05-.41Zm18.02.6c-.43.04-.44.04-.44-.35v-2.57h-.96c-.12-.38-.08-.44.26-.44h1.88s.11-.02.13 0c.08.07.14.16.21.23-.07.06-.13.17-.21.18-.19.03-.39.02-.58 0-.22-.02-.31.05-.3.3.02.77 0 1.54 0 2.32v.32Zm-48.5 0c-.43.04-.44.04-.44-.35v-2.57h-.96c-.12-.37-.08-.44.26-.44h1.88s.11-.02.13 0c.08.07.17.15.19.24.01.04-.12.16-.2.17-.18.03-.37.02-.55 0-.24-.02-.34.05-.33.33.02.76 0 1.53 0 2.29v.32Zm13.21-2.93h-.99v2.58c0 .26-.14.38-.42.36l-.01-.29V99.3c0-.21-.07-.29-.27-.27h-.55c-.13 0-.27.02-.27-.18 0-.21.12-.24.29-.24h1.93c.33 0 .35.02.29.42Zm-16.55 2.95V98.8c0-.16.08-.21.22-.21.17 0 .22.09.22.25v2.29c0 .6-.04.48.49.49h.72c.07 0 .14.1.21.16-.06.06-.13.18-.19.18h-1.66Zm26.94-.36v.33h-1.83l-.02-.21v-2.85c0-.17.02-.29.23-.3.23 0 .21.15.21.3v2.45c0 .21.06.28.27.27h1.15Zm19.45.34h-1.85v-3.06c0-.17.04-.29.23-.3.24-.01.21.15.21.3v2.4c0 .24.06.34.31.32.36-.02.73 0 1.11 0v.34Zm-40.75.02-.44-.02v-3.06c0-.18.04-.29.23-.3.21-.01.21.12.21.27v3.11Zm48.51-.02h-.44v-3.06c0-.19.05-.3.26-.3.23 0 .18.16.18.3v3.06Z"/></svg>