<svg xmlns="http://www.w3.org/2000/svg" width="169" height="48" viewBox="0 0 169 48"><defs><clipPath id="a"><path fill="none" stroke-width="0" d="M0 0h169v48H0z"/></clipPath></defs><g fill-rule="evenodd" clip-path="url(#a)"><path fill="#940c0c" d="M9.69 0H0v9.71h9.69V0Zm11.48 0h-9.69v9.71h9.69V0Zm-9.69 11.5h9.69v9.71h-9.69V11.5Zm-1.79 0H0v9.71h9.69V11.5Zm15.4 9.71V0h21.16v21.21H25.09Zm15.58-4.32v-6.16h2.55l-7.44-7.46-7.44 7.46h2.54v6.16h3.45v-4.3h2.89v4.3h3.45ZM0 25.14a23.11 23.11 0 0 0 5.34 14.58l8.22-8.24H5.45v-1.79h11.16v11.19h-1.78v-8.14l-8.29 8.31a22.97 22.97 0 0 0 14.61 6.94V25.13H0Zm29.63 4.55h16.11c.31-1.47.48-2.99.49-4.55H25.07V48a23.2 23.2 0 0 0 4.54-.85V29.7Zm1.79 1.79v15.07A23.2 23.2 0 0 0 45.3 31.48H31.42Z"/><path d="M101.98 27.04c1.28.46 2.61.68 4.02.68h.03c1.57 0 2.91-.26 4.05-.75a6.1 6.1 0 0 0 2.63-2.06c.62-.89.93-1.91.93-3.07 0-1.36-.44-2.47-1.3-3.34s-2.13-1.43-3.8-1.71l-3.56-.61a3.82 3.82 0 0 1-1.54-.57c-.32-.25-.47-.6-.47-1.06 0-.32.11-.61.32-.87.21-.26.52-.46.93-.6.41-.15.9-.22 1.48-.22.95 0 1.86.16 2.72.48a9.8 9.8 0 0 1 2.59 1.48l2.21-3.19c-.91-.73-2.01-1.3-3.31-1.72a13.11 13.11 0 0 0-4-.62c-1.47 0-2.75.23-3.81.68a5.3 5.3 0 0 0-2.43 1.95 5.3 5.3 0 0 0-.84 3c0 1.26.37 2.32 1.13 3.17a5.3 5.3 0 0 0 3.24 1.63l3.8.67c.86.16 1.47.36 1.82.65s.52.68.52 1.21c0 .37-.13.7-.37.99-.25.28-.6.5-1.05.67-.46.16-.99.25-1.62.25-.88 0-1.76-.18-2.62-.54-.86-.36-1.92-.97-3.16-1.83l-2.24 3.24c1.18.89 2.41 1.56 3.69 2.02Zm-14.17.68a9.35 9.35 0 0 1-6.66-2.66 9.19 9.19 0 0 1-2.7-6.55 9.19 9.19 0 0 1 2.69-6.54 8.86 8.86 0 0 1 2.95-1.96 10.25 10.25 0 0 1 7.89.2 8.22 8.22 0 0 1 3.24 2.56l-3.08 2.68a5.6 5.6 0 0 0-1.96-1.69 5.44 5.44 0 0 0-2.44-.57 4.38 4.38 0 0 0-3.4 1.51 5.1 5.1 0 0 0-.99 1.69c-.24.64-.36 1.34-.36 2.11s.13 1.48.37 2.13a4.85 4.85 0 0 0 4.55 3.23 4.13 4.13 0 0 0 3.26-1.44c.39-.45.66-.97.81-1.54h-4.45v-3.7h9.17v1.25c0 1.34-.22 2.58-.65 3.71a8.63 8.63 0 0 1-4.66 4.89 8.92 8.92 0 0 1-3.55.68h-.03Zm-20.03-.03a8.43 8.43 0 0 1-4.17-.99 6.82 6.82 0 0 1-2.75-2.78 8.8 8.8 0 0 1-.97-4.25V9.58h4.37v10.1c0 .81.15 1.53.44 2.14.29.61.69 1.09 1.22 1.43.53.34 1.15.51 1.86.51s1.33-.17 1.86-.51c.53-.34.94-.81 1.22-1.43.29-.61.44-1.32.44-2.14V9.58h4.38v10.1c0 1.63-.32 3.05-.96 4.25a6.8 6.8 0 0 1-2.74 2.78 8.46 8.46 0 0 1-4.19.99Zm48.69-.26V9.58h8.7c1.28 0 2.38.26 3.32.77s1.67 1.2 2.18 2.09c.52.89.77 1.9.77 3.04a5.55 5.55 0 0 1-2.95 4.97c-.94.51-2.05.77-3.32.77h-4.32v6.22h-4.38Zm4.39-9.72h3.53c.9 0 1.57-.22 2-.65.44-.44.65-.98.65-1.62s-.22-1.19-.65-1.61c-.44-.43-1.09-.64-1.98-.64h-3.56v4.52Zm18.44 9.3c1.12.47 2.32.7 3.61.7s2.49-.24 3.61-.7a9.07 9.07 0 0 0 5.6-8.51 8.98 8.98 0 0 0-5.6-8.5c-1.12-.47-2.32-.7-3.61-.7s-2.49.24-3.61.7a9.07 9.07 0 0 0-5.6 8.5c0 1.29.24 2.5.7 3.61a8.91 8.91 0 0 0 4.9 4.9Zm5.47-3.6c-.57.26-1.19.39-1.86.39a4.46 4.46 0 0 1-3.36-1.51 5.2 5.2 0 0 1-.99-1.69c-.24-.64-.35-1.34-.35-2.11s.12-1.47.35-2.11c.24-.64.57-1.2.99-1.69a4.43 4.43 0 0 1 3.36-1.51 4.46 4.46 0 0 1 3.36 1.51c.43.49.76 1.05.99 1.69.24.64.35 1.34.35 2.11s-.12 1.47-.35 2.11c-.24.64-.57 1.2-.99 1.69-.43.48-.93.86-1.5 1.12Zm13.87 4.02V13.32h-5.73V9.57h15.83v3.75h-5.73v14.11h-4.38Zm-84.12 9.89a.75.75 0 0 1-.57-.25.79.79 0 0 1 0-1.15c.16-.16.35-.24.58-.24s.41.08.57.24c.16.16.24.35.24.57s-.08.42-.24.58a.8.8 0 0 1-.58.25Zm-.73 5.37v-4.65h1.46v4.65h-1.46Zm-6.72 0v-6.42l1.46-.23v6.64h-1.46Zm-3.94.1c.57 0 1.06-.12 1.47-.35.42-.24.74-.57.97-.99.24-.43.35-.93.35-1.51v-3.57h-1.55v3.57c0 .29-.05.55-.15.76-.1.21-.25.38-.43.5s-.41.18-.66.18-.47-.06-.66-.18a1.17 1.17 0 0 1-.43-.5 1.8 1.8 0 0 1-.15-.76v-3.57h-1.55v3.57c0 .58.12 1.09.35 1.51.23.43.56.76.97.99.42.23.91.35 1.47.35Zm0 0h.02Zm7.57-.38c.28.26.69.38 1.24.38l.02-.02c.15 0 .32 0 .51-.04s.35-.05.48-.1v-1.18c-.15.05-.26.07-.35.08-.09.02-.17.02-.25.02-.22 0-.38-.05-.47-.13-.09-.08-.14-.23-.14-.43v-1.83h1.24v-1.13h-1.24v-1.59l-1.46.3v1.29h-.9v1.13h.9v2.12c0 .5.14.87.42 1.12Zm5.67-4.36v4.65h1.46v-3.22a.8.8 0 0 1 .68-.37c.21 0 .37.07.5.21.13.15.19.33.19.57v2.8h1.46v-3.23a.83.83 0 0 1 .67-.34c.21 0 .37.07.5.21.13.15.19.33.19.57v2.8h1.46v-3.09c0-.32-.05-.6-.18-.85a1.29 1.29 0 0 0-.51-.57 1.64 1.64 0 0 0-1.62.01c-.25.15-.47.36-.66.65a1.43 1.43 0 0 0-.51-.63 1.34 1.34 0 0 0-.79-.24c-.28 0-.55.07-.77.21-.24.14-.44.34-.61.6v-.74h-1.46Zm9.61 4.73c-.31 0-.59-.06-.83-.18a1.28 1.28 0 0 1-.76-1.22c0-.27.07-.53.22-.74.15-.2.36-.36.62-.46a2.77 2.77 0 0 1 1.48-.11c.17.04.36.09.56.16v-.37c0-.23-.07-.4-.23-.51-.15-.11-.38-.16-.69-.16a3.36 3.36 0 0 0-1.31.32l-.5-1.02c.75-.34 1.46-.5 2.13-.5s1.14.16 1.5.46c.36.31.54.74.54 1.29v2.97h-1.44v-.4c-.2.16-.41.29-.61.37-.2.07-.43.11-.67.11Zm-.26-1.43c0 .14.07.26.19.34.13.08.3.12.52.12.15 0 .3-.02.44-.05a2 2 0 0 0 .4-.17V41h-.06a1.08 1.08 0 0 0-1.3.02.37.37 0 0 0-.19.34Zm4.99 1.06c.28.26.69.38 1.24.38l.02-.02c.15 0 .32 0 .51-.04s.35-.05.48-.1v-1.18c-.15.05-.26.07-.35.08-.09.02-.17.02-.25.02-.22 0-.38-.05-.47-.13-.09-.08-.14-.23-.14-.43v-1.83h1.24v-1.13h-1.24v-1.59l-1.46.3v1.29h-.9v1.13h.9v2.12c0 .5.14.87.42 1.12Zm5.28.38c-.46 0-.86-.11-1.24-.32a2.37 2.37 0 0 1-1.21-2.09 2.36 2.36 0 0 1 3.53-2.08c.35.21.61.5.8.87.19.36.29.79.29 1.28v.32h-3.2c.05.17.12.33.23.46.1.14.23.24.38.31s.31.11.48.11c.19 0 .36-.04.53-.1a.87.87 0 0 0 .39-.29l.97.8c-.3.26-.6.46-.91.57a2.9 2.9 0 0 1-1.05.17Zm-1.02-2.87h1.85a1.42 1.42 0 0 0-.2-.43.99.99 0 0 0-.33-.28c-.13-.07-.26-.1-.42-.1s-.28.03-.41.09a.9.9 0 0 0-.31.27 1.1 1.1 0 0 0-.18.44Zm7.88 2.63c.4.16.84.25 1.3.25a3.09 3.09 0 0 0 2.9-1.98c.15-.4.23-.84.23-1.31v-.44h-3.24v1.3h1.58a1.39 1.39 0 0 1-.79.92c-.2.09-.4.14-.66.14s-.48-.05-.69-.15a1.63 1.63 0 0 1-.55-.39 2 2 0 0 1-.49-1.36c0-.28.05-.52.13-.75a1.77 1.77 0 0 1 .9-.98 1.79 1.79 0 0 1 1.53.06c.26.13.49.33.69.59l1.09-.95a2.8 2.8 0 0 0-1.15-.9 3.64 3.64 0 0 0-2.79-.07 3.1 3.1 0 0 0-1.75 1.73 3.36 3.36 0 0 0 0 2.56 3.26 3.26 0 0 0 1.77 1.73Zm5.41.14v-6.42l1.46-.23v6.64h-1.46Zm3.15-.1a2 2 0 0 0 1.5.06 2 2 0 0 0 .61-.37v.4h1.44v-2.97c0-.55-.18-.98-.54-1.29-.36-.3-.83-.46-1.5-.46s-1.38.16-2.13.5l.5 1.02c.27-.11.52-.19.73-.25.22-.05.41-.07.58-.07.31 0 .55.05.69.16.15.11.23.28.23.51v.37a3.53 3.53 0 0 0-1.08-.21c-.38 0-.7.05-.97.16-.26.1-.47.26-.62.46-.15.21-.22.47-.22.74a1.3 1.3 0 0 0 .76 1.22Zm.76-.9a.38.38 0 0 1-.19-.34c0-.15.07-.26.19-.34.13-.08.32-.12.56-.12.14 0 .26 0 .4.03l.34.06h.06v.6c-.13.07-.26.14-.4.17-.14.04-.28.05-.44.05a.98.98 0 0 1-.52-.12Zm5.64 1.1c-.42 0-.81-.05-1.18-.15a3.3 3.3 0 0 1-.95-.42l.64-.98c.34.17.61.29.83.36.22.07.44.1.67.1.21 0 .37-.04.49-.1.12-.07.17-.16.17-.27a.3.3 0 0 0-.1-.22.88.88 0 0 0-.33-.12l-.89-.16a1.87 1.87 0 0 1-1.02-.47 1.2 1.2 0 0 1-.35-.89c0-.32.08-.59.24-.81.15-.22.38-.4.67-.52.29-.12.64-.18 1.04-.18a3.79 3.79 0 0 1 1.89.54l-.67.93a2.48 2.48 0 0 0-1.33-.39.93.93 0 0 0-.41.08c-.1.05-.15.14-.15.24s.04.16.1.22c.07.05.19.09.37.12l.87.16c.46.08.81.24 1.05.47.24.23.36.52.36.88 0 .3-.09.57-.26.81-.17.25-.41.44-.71.57-.3.14-.65.21-1.03.21v-.02Zm3.42-.15c.36.1.75.15 1.17.15v.02c.39 0 .74-.07 1.04-.21.3-.14.54-.33.71-.57.17-.24.26-.51.26-.81 0-.36-.12-.65-.36-.88a2.01 2.01 0 0 0-1.05-.47l-.87-.16a.93.93 0 0 1-.37-.12c-.06-.05-.1-.12-.1-.22s.04-.18.14-.24c.1-.05.24-.08.41-.08a2.5 2.5 0 0 1 1.34.39l.67-.93a3.79 3.79 0 0 0-1.89-.54c-.4 0-.75.06-1.04.18-.29.12-.52.3-.67.52-.16.22-.24.49-.24.81 0 .36.12.66.35.89.23.23.57.38 1.02.47l.89.16c.15.03.26.06.33.12.06.05.1.13.1.22 0 .11-.06.2-.17.27-.12.06-.28.1-.49.1-.23 0-.45-.03-.66-.1a6.11 6.11 0 0 1-.83-.36l-.64.98c.27.18.59.32.96.42Zm8.28.15c-.5 0-.97-.08-1.42-.25-.45-.16-.88-.4-1.3-.71l.79-1.15c.44.31.81.52 1.12.65a2.35 2.35 0 0 0 1.5.11.82.82 0 0 0 .37-.24.5.5 0 0 0 .13-.35.54.54 0 0 0-.18-.43 1.6 1.6 0 0 0-.65-.23l-1.34-.24c-.5-.08-.88-.27-1.15-.57-.26-.3-.4-.68-.4-1.12 0-.41.1-.77.3-1.06.2-.3.48-.53.86-.69.37-.16.82-.25 1.35-.25.48 0 .96.07 1.41.22.46.15.85.35 1.16.61l-.78 1.13a3.3 3.3 0 0 0-.92-.52 2.85 2.85 0 0 0-.96-.17c-.2 0-.37.03-.52.07a.72.72 0 0 0-.33.21.49.49 0 0 0-.11.31c0 .16.05.29.16.37.11.09.29.16.55.2l1.26.22c.59.1 1.04.3 1.34.6.3.3.46.7.46 1.18 0 .41-.11.77-.33 1.09-.22.31-.53.56-.93.73-.4.17-.88.26-1.43.26Zm4.63-.33c.36.21.77.32 1.23.32s.87-.11 1.24-.32.66-.49.86-.86c.21-.36.32-.78.32-1.23s-.1-.88-.32-1.23c-.22-.36-.5-.65-.86-.86a2.44 2.44 0 0 0-1.24-.32 2.4 2.4 0 0 0-2.09 1.18c-.21.37-.32.78-.32 1.23s.11.87.32 1.23c.21.36.5.65.86.86Zm1.75-1.05a.91.91 0 0 1-1.04 0 .97.97 0 0 1-.35-.42c-.08-.18-.13-.37-.13-.61s.04-.45.13-.62c.08-.17.2-.32.35-.42.15-.1.33-.16.52-.16s.37.05.52.16c.15.1.27.25.36.42a1.52 1.52 0 0 1 0 1.23c-.09.17-.21.32-.36.42Zm2.83 1.27v-6.42l1.46-.23v6.64h-1.46Zm3.3-.12c.24.14.5.2.8.2a1.66 1.66 0 0 0 1.47-.82v.76h1.46v-4.65h-1.46v3.19a.96.96 0 0 1-.35.29 1 1 0 0 1-.43.09c-.24 0-.43-.07-.57-.24a.92.92 0 0 1-.21-.63v-2.71h-1.46v3.14c0 .31.07.58.2.82.14.24.31.42.55.56Zm7.14.22c-.55 0-.96-.13-1.24-.38s-.42-.62-.42-1.12v-2.12h-.9v-1.13h.9v-1.29l1.46-.3v1.59h1.24v1.13h-1.24v1.83c0 .2.04.35.14.43.09.08.26.13.47.13.08 0 .16 0 .26-.02.08 0 .2-.04.35-.08v1.18c-.14.05-.29.07-.48.1s-.36.04-.51.04l-.02.02Zm1.99-5.7a.79.79 0 0 0 1.15 0c.15-.16.24-.36.24-.58s-.07-.42-.24-.57c-.16-.16-.35-.24-.57-.24s-.42.07-.58.24c-.16.16-.24.37-.24.58s.08.41.24.57Zm-.15.96v4.65h1.46v-4.65H151Zm4.81 4.75a2.4 2.4 0 0 1-2.09-1.18c-.21-.36-.32-.78-.32-1.23s.11-.87.32-1.23a2.4 2.4 0 0 1 2.09-1.18 2.36 2.36 0 0 1 2.42 2.41c0 .45-.11.87-.32 1.23a2.4 2.4 0 0 1-2.1 1.18Zm0-1.21c.2 0 .37-.05.52-.16.15-.1.26-.25.36-.42a1.52 1.52 0 0 0 0-1.23.98.98 0 0 0-.88-.58.89.89 0 0 0-.52.16c-.15.1-.27.25-.35.42-.08.17-.13.38-.13.62s.04.43.13.61a.97.97 0 0 0 .87.58Zm3.35-3.53v4.65h1.46v-3.19c.1-.13.22-.23.35-.29a1 1 0 0 1 .43-.09c.24 0 .43.08.57.24.14.16.21.37.21.63v2.71h1.46v-3.14a1.55 1.55 0 0 0-.75-1.38c-.24-.14-.5-.2-.8-.2s-.57.07-.82.21c-.25.15-.46.35-.65.62v-.76h-1.46Zm7.31 4.75c-.42 0-.81-.05-1.17-.15a3.5 3.5 0 0 1-.96-.42l.64-.98c.34.17.61.29.83.36.22.07.44.1.66.1.21 0 .37-.04.49-.1.12-.07.17-.16.17-.27a.3.3 0 0 0-.1-.22.88.88 0 0 0-.33-.12l-.89-.16a1.87 1.87 0 0 1-1.02-.47 1.2 1.2 0 0 1-.35-.89c0-.32.08-.59.24-.81.15-.22.38-.4.67-.52.29-.12.64-.18 1.04-.18a3.79 3.79 0 0 1 1.9.54l-.66.93a2.5 2.5 0 0 0-1.34-.39.93.93 0 0 0-.41.08c-.1.05-.15.14-.15.24s.04.16.1.22c.07.05.19.09.37.12l.87.16c.46.08.81.24 1.05.47.24.23.35.52.35.88 0 .3-.09.57-.26.81-.17.25-.41.44-.71.57-.3.14-.65.21-1.03.21v-.02Z"/></g></svg>