<svg xmlns="http://www.w3.org/2000/svg" width="143.28" height="143.28" viewBox="0 0 143.28 143.28"><path fill="#940c0c" d="M70.58.3c.65-.4 1.47-.4 2.12 0l6.93 4.33c.49.31 1.09.39 1.64.22l7.81-2.39a2.01 2.01 0 0 1 2.05.55l5.57 5.97a2 2 0 0 0 1.53.63l8.16-.28c.76-.03 1.48.38 1.83 1.06l3.84 7.21a2 2 0 0 0 1.32 1.01l7.96 1.84a2 2 0 0 1 1.5 1.5l1.84 7.96c.13.56.5 1.04 1.01 1.32l7.21 3.84a2 2 0 0 1 1.06 1.83l-.28 8.16a2 2 0 0 0 .63 1.53l5.97 5.57c.56.52.77 1.32.55 2.05l-2.39 7.81c-.17.55-.09 1.15.22 1.64l4.33 6.93c.4.65.4 1.47 0 2.12l-4.33 6.93a2.02 2.02 0 0 0-.22 1.64l2.39 7.81c.22.73 0 1.53-.55 2.05l-5.97 5.57a2 2 0 0 0-.63 1.53l.28 8.16c.03.76-.39 1.48-1.06 1.83l-7.21 3.84a2 2 0 0 0-1.01 1.32l-1.84 7.96a2 2 0 0 1-1.5 1.5l-7.96 1.84c-.56.13-1.04.5-1.32 1.01l-3.84 7.21a2 2 0 0 1-1.83 1.06l-8.16-.28a2 2 0 0 0-1.53.63l-5.57 5.97c-.52.56-1.32.77-2.05.55l-7.81-2.39a1.98 1.98 0 0 0-1.64.22L72.7 143c-.65.4-1.47.4-2.12 0l-6.93-4.33a2.02 2.02 0 0 0-1.64-.22l-7.81 2.39c-.73.22-1.53 0-2.05-.55l-5.57-5.97a2 2 0 0 0-1.53-.63l-8.16.28a1.99 1.99 0 0 1-1.83-1.06l-3.84-7.21a2 2 0 0 0-1.32-1.01l-7.96-1.84a2 2 0 0 1-1.5-1.5l-1.84-7.96a2.04 2.04 0 0 0-1.01-1.32l-7.21-3.84a2 2 0 0 1-1.06-1.83l.28-8.16a2 2 0 0 0-.63-1.53L3 91.14a2.01 2.01 0 0 1-.55-2.05l2.39-7.81c.17-.55.09-1.15-.22-1.64L.29 72.71c-.4-.65-.4-1.47 0-2.12l4.33-6.93c.31-.49.39-1.09.22-1.64l-2.39-7.81A2.01 2.01 0 0 1 3 52.16l5.97-5.57a2 2 0 0 0 .63-1.53l-.28-8.16a1.97 1.97 0 0 1 1.06-1.83l7.21-3.84a2 2 0 0 0 1.01-1.32l1.84-7.96a2 2 0 0 1 1.5-1.5l7.96-1.84c.56-.13 1.04-.5 1.32-1.01l3.84-7.21a2 2 0 0 1 1.83-1.06l8.16.28a2 2 0 0 0 1.53-.63l5.57-5.97a2.01 2.01 0 0 1 2.05-.55l7.81 2.39c.55.17 1.15.09 1.64-.22L70.58.3Z"/><path fill="#fff" d="M48.77 32.84c-2.16 0-3.76-.54-4.82-1.63-1.04-1.09-1.56-2.69-1.56-4.82v-9.26h2.29v9.22c0 1.5.32 2.63.97 3.39.66.75 1.7 1.12 3.12 1.12 1.35 0 2.37-.37 3.06-1.12.69-.76 1.03-1.89 1.03-3.39v-9.22h2.24v9.26c0 2.13-.54 3.73-1.61 4.82s-2.65 1.63-4.73 1.63Zm9.69 4.55V24.21a62.26 62.26 0 0 0-.18-2.66h2.16l.22 2.51h-.24c.23-.84.7-1.5 1.41-1.98.72-.48 1.57-.73 2.55-.73s1.84.23 2.57.7a4.4 4.4 0 0 1 1.69 1.96c.41.85.62 1.88.62 3.08s-.21 2.21-.62 3.08a4.4 4.4 0 0 1-4.26 2.66c-.98 0-1.81-.23-2.53-.7a3.5 3.5 0 0 1-1.41-1.96h.24v7.22h-2.22Zm5.37-6.29c.97 0 1.74-.34 2.31-1.01.59-.67.88-1.67.88-2.99s-.29-2.31-.88-2.97c-.57-.67-1.34-1.01-2.31-1.01s-1.75.34-2.33 1.01c-.57.66-.86 1.65-.86 2.97s.29 2.32.86 2.99a2.95 2.95 0 0 0 2.33 1.01Zm18.22 1.74c-1.2 0-2.11-.32-2.73-.97-.62-.66-.92-1.64-.92-2.95v-5.65h-2.16v-1.72h2.16v-2.93l2.22-.59v3.52h3.08v1.72h-3.08v5.46c0 .82.15 1.41.44 1.76.29.35.72.53 1.28.53a3.17 3.17 0 0 0 1.32-.27v1.8c-.22.09-.48.15-.77.2-.29.06-.57.09-.84.09Zm8.32 0c-1.1 0-2.05-.23-2.86-.68a4.76 4.76 0 0 1-1.87-1.98c-.44-.87-.66-1.89-.66-3.08s.22-2.21.66-3.06a4.54 4.54 0 0 1 1.87-1.98c.81-.47 1.76-.7 2.86-.7s2.05.23 2.86.7a4.53 4.53 0 0 1 1.89 1.98c.45.85.68 1.87.68 3.06s-.23 2.21-.68 3.08a4.75 4.75 0 0 1-1.89 1.98c-.81.45-1.76.68-2.86.68Zm0-1.74c.97 0 1.74-.34 2.31-1.01s.86-1.67.86-2.99-.29-2.31-.86-2.97c-.57-.67-1.34-1.01-2.31-1.01s-1.72.34-2.29 1.01c-.57.66-.86 1.65-.86 2.97s.28 2.32.84 2.99a2.88 2.88 0 0 0 2.31 1.01ZM29.65 60.64v-1.92l6.05-6.33c.78-.82 1.37-1.58 1.75-2.3.38-.72.58-1.46.58-2.23 0-.95-.3-1.67-.9-2.15a3.92 3.92 0 0 0-2.55-.73c-.88 0-1.72.16-2.5.48-.77.32-1.51.8-2.22 1.45l-.9-1.98a7.68 7.68 0 0 1 2.6-1.55c1.05-.4 2.16-.6 3.33-.6 1.83 0 3.24.42 4.22 1.25 1 .83 1.5 2.02 1.5 3.57 0 1.1-.27 2.16-.8 3.18-.53 1-1.33 2.03-2.4 3.1l-5.22 5.28v-.7h9.15v2.17H29.67Zm20.67.22a10.28 10.28 0 0 1-4.38-.95 7.48 7.48 0 0 1-1.7-1.12l.9-1.98c.8.62 1.62 1.08 2.45 1.4.85.3 1.74.45 2.67.45 1.18 0 2.11-.31 2.78-.93.68-.62 1.03-1.44 1.03-2.47s-.33-1.92-.98-2.58c-.63-.67-1.52-1-2.65-1-.78 0-1.5.16-2.15.48-.63.32-1.19.8-1.67 1.45h-1.8v-10.6h10.67v2.17h-8.2v6.35h-.65a4.6 4.6 0 0 1 1.8-1.48 6.12 6.12 0 0 1 2.57-.52 5.9 5.9 0 0 1 2.95.7 4.8 4.8 0 0 1 1.92 1.95c.47.83.7 1.82.7 2.95s-.26 2.13-.77 3a5.16 5.16 0 0 1-2.18 2c-.93.48-2.04.72-3.32.72Zm15.38 5.45-.6-2.05c.78-.17 1.43-.37 1.95-.6.53-.23.97-.54 1.33-.93.35-.37.65-.84.9-1.42l.62-1.47-.05 1.02-5.47-12.82h2.7l4.25 10.5h-.68l4.25-10.5h2.6l-5.78 13.5a11.3 11.3 0 0 1-1.18 2.1 6.34 6.34 0 0 1-1.35 1.38c-.48.35-1.02.62-1.6.82-.58.2-1.22.36-1.9.48Zm19.38-5.45c-2.03 0-3.63-.57-4.8-1.72s-1.75-2.74-1.75-4.78c0-1.32.25-2.47.75-3.45a5.7 5.7 0 0 1 5.29-3.11 4.8 4.8 0 0 1 4.8 2.87c.42.9.62 1.97.62 3.2v.8h-9.5v-1.45h7.78l-.43.33a4.4 4.4 0 0 0-.85-2.9c-.55-.7-1.35-1.05-2.4-1.05a3.2 3.2 0 0 0-2.7 1.23c-.63.8-.95 1.91-.95 3.33v.25c0 1.48.36 2.6 1.08 3.35.73.75 1.77 1.12 3.1 1.12.73 0 1.42-.1 2.05-.3a5.83 5.83 0 0 0 1.85-1.05l.82 1.72c-.58.52-1.29.92-2.12 1.2-.83.27-1.72.4-2.65.4Zm12.65 0a5.46 5.46 0 0 1-2.92-.77 5.26 5.26 0 0 1-1.95-2.25c-.45-.98-.67-2.15-.67-3.5s.22-2.53.67-3.5a5.26 5.26 0 0 1 4.87-3.03c1.11 0 2.06.28 2.87.83.82.55 1.36 1.3 1.62 2.25h-.28l.25-2.85h2.45l-.15 1.55c-.03.5-.05.99-.05 1.47v9.58h-2.53v-2.8h.28a3.9 3.9 0 0 1-1.65 2.22c-.82.53-1.76.8-2.82.8Zm.62-1.97c1.08 0 1.95-.38 2.6-1.15.67-.77 1-1.9 1-3.4s-.33-2.62-1-3.38c-.65-.77-1.52-1.15-2.6-1.15s-1.98.38-2.65 1.15c-.65.75-.97 1.88-.97 3.38s.33 2.63.97 3.4a3.28 3.28 0 0 0 2.65 1.15Zm9.73 1.75v-9.47c0-.52-.02-1.03-.05-1.55-.02-.53-.05-1.06-.1-1.57h2.45l.27 3.25h-.4c.17-.78.45-1.43.85-1.95s.88-.9 1.45-1.15a4.58 4.58 0 0 1 3.05-.23l-.03 2.25a2.47 2.47 0 0 0-.75-.2 5.1 5.1 0 0 0-.75-.05c-.73 0-1.36.17-1.88.5-.52.32-.91.75-1.18 1.3-.27.55-.4 1.14-.4 1.78v7.1h-2.55Zm-79.45 24-4.2-11.09h2.31l3.28 9.24h-.57l3.37-9.24h1.72l3.34 9.24h-.55l3.28-9.24h2.22l-4.22 11.09h-2.02l-3.48-9.42h1.03l-3.43 9.42h-2.07Zm20.27.2a4.8 4.8 0 0 1-2.57-.68 4.53 4.53 0 0 1-1.72-1.98c-.4-.87-.59-1.89-.59-3.08s.2-2.23.59-3.08a4.58 4.58 0 0 1 4.29-2.66c.98 0 1.81.24 2.53.73s1.2 1.14 1.43 1.98h-.24l.22-2.51H55l-.13 1.36a19 19 0 0 0-.04 1.3v8.43h-2.22v-2.46h.24a3.42 3.42 0 0 1-1.45 1.96c-.72.47-1.55.7-2.49.7Zm.55-1.74c.95 0 1.72-.34 2.29-1.01.59-.67.88-1.67.88-2.99s-.29-2.31-.88-2.97c-.57-.67-1.33-1.01-2.29-1.01s-1.75.34-2.33 1.01c-.57.66-.86 1.65-.86 2.97s.29 2.32.86 2.99a2.9 2.9 0 0 0 2.33 1.01Zm8.57 1.54V76.3c0-.45-.01-.91-.04-1.36-.01-.47-.04-.93-.09-1.39h2.16l.24 2.86h-.35c.15-.69.4-1.26.75-1.72a3.3 3.3 0 0 1 1.28-1.01 4.03 4.03 0 0 1 2.68-.2l-.02 1.98c-.25-.1-.47-.16-.66-.18-.18-.03-.4-.04-.66-.04-.65 0-1.2.15-1.65.44-.45.28-.8.66-1.03 1.14-.23.48-.35 1-.35 1.56v6.25h-2.24Zm8.29 0V76.3c0-.45-.01-.91-.04-1.36-.01-.47-.04-.93-.09-1.39h2.16l.24 2.86h-.35c.15-.69.4-1.26.75-1.72a3.3 3.3 0 0 1 1.28-1.01 4.03 4.03 0 0 1 2.68-.2l-.02 1.98c-.25-.1-.47-.16-.66-.18-.18-.03-.4-.04-.66-.04-.65 0-1.2.15-1.65.44-.45.28-.8.66-1.03 1.14-.23.48-.35 1-.35 1.56v6.25h-2.24Zm12.48.2a4.8 4.8 0 0 1-2.57-.68 4.53 4.53 0 0 1-1.72-1.98c-.4-.87-.59-1.89-.59-3.08s.2-2.23.59-3.08a4.58 4.58 0 0 1 4.29-2.66c.98 0 1.81.24 2.53.73.72.48 1.2 1.14 1.43 1.98h-.24l.22-2.51h2.16l-.13 1.36a19 19 0 0 0-.04 1.3v8.43H82.5v-2.46h.24a3.42 3.42 0 0 1-1.45 1.96c-.72.47-1.55.7-2.49.7Zm.55-1.74c.95 0 1.72-.34 2.29-1.01.59-.67.88-1.67.88-2.99s-.29-2.31-.88-2.97c-.57-.67-1.33-1.01-2.29-1.01s-1.75.34-2.33 1.01c-.57.66-.86 1.65-.86 2.97s.29 2.32.86 2.99a2.9 2.9 0 0 0 2.33 1.01Zm8.61 1.54v-8.43a62.26 62.26 0 0 0-.18-2.66h2.16l.2 2.33h-.26c.34-.82.86-1.44 1.56-1.87a4.5 4.5 0 0 1 2.44-.66c1.31 0 2.29.36 2.95 1.08.67.72 1.01 1.83 1.01 3.34v6.86h-2.22V77.9c0-.98-.2-1.69-.59-2.11-.38-.44-.97-.66-1.76-.66-.94 0-1.69.29-2.24.88a3.19 3.19 0 0 0-.84 2.33v6.29h-2.22Zm17.35.2c-1.2 0-2.11-.32-2.73-.97-.62-.66-.92-1.64-.92-2.95v-5.65h-2.16v-1.72h2.16v-2.93l2.22-.59v3.52h3.08v1.72h-3.08v5.46c0 .82.15 1.41.44 1.76.29.35.72.53 1.28.53a3.17 3.17 0 0 0 1.32-.27v1.8c-.22.09-.48.15-.77.2-.29.06-.57.09-.84.09Zm3.5 4.8-.53-1.8a8.6 8.6 0 0 0 1.72-.53 3.59 3.59 0 0 0 1.96-2.06l.55-1.3-.04.9-4.82-11.29h2.38l3.74 9.24h-.59l3.74-9.24h2.29l-5.08 11.88c-.32.73-.67 1.35-1.03 1.85a5.48 5.48 0 0 1-2.6 1.94c-.51.18-1.07.32-1.67.42Zm-87.74 19.12a2.8 2.8 0 0 1-1.52-.4 2.7 2.7 0 0 1-1.01-1.17c-.23-.51-.35-1.12-.35-1.82s.12-1.32.35-1.82a2.73 2.73 0 0 1 2.53-1.58c.58 0 1.07.14 1.5.43.42.29.71.68.84 1.17h-.14l.13-1.48h1.27l-.08.81-.03.77v4.98h-1.31v-1.46h.14a2 2 0 0 1-.86 1.16c-.42.28-.91.42-1.47.42Zm.33-1.03c.56 0 1.01-.2 1.35-.6.35-.4.52-.99.52-1.77s-.17-1.36-.52-1.75c-.34-.4-.79-.6-1.35-.6s-1.03.2-1.38.6c-.34.39-.51.97-.51 1.75s.17 1.37.51 1.77c.34.4.8.6 1.38.6Zm7.96 1.03c-.66 0-1.24-.13-1.73-.4a2.86 2.86 0 0 1-1.13-1.18c-.26-.52-.39-1.13-.39-1.85s.13-1.3.4-1.81c.27-.5.65-.88 1.13-1.14a3.5 3.5 0 0 1 1.72-.4c.42 0 .84.07 1.24.22.4.14.73.34.99.6l-.43.92a2.38 2.38 0 0 0-.82-.52c-.3-.12-.6-.18-.88-.18-.62 0-1.11.2-1.47.6-.36.4-.53.97-.53 1.73s.18 1.35.53 1.76c.36.41.84.61 1.47.61a2.51 2.51 0 0 0 1.7-.69l.43.92a2.9 2.9 0 0 1-1.01.61c-.4.14-.8.21-1.21.21Zm3.59-.12v-4.93c0-.27 0-.54-.03-.81 0-.28-.03-.55-.05-.82h1.27l.14 1.69h-.21c.09-.41.23-.75.44-1.01a2.06 2.06 0 0 1 1.7-.79c.14 0 .26 0 .35.03.1 0 .19.03.29.05v1.17c-.16-.06-.29-.1-.4-.1-.1-.02-.23-.03-.39-.03-.38 0-.71.09-.98.26a1.6 1.6 0 0 0-.61.68c-.14.29-.21.59-.21.92v3.69h-1.33Zm7.65.12c-.65 0-1.21-.13-1.69-.4a2.76 2.76 0 0 1-1.1-1.17c-.26-.51-.39-1.12-.39-1.82s.13-1.3.39-1.81.63-.9 1.1-1.17c.48-.28 1.04-.42 1.69-.42s1.21.14 1.69.42c.49.27.86.66 1.12 1.17.27.5.4 1.11.4 1.81s-.13 1.31-.4 1.82c-.26.5-.63.89-1.12 1.17-.48.27-1.04.4-1.69.4Zm0-1.03c.57 0 1.03-.2 1.37-.6.34-.4.51-.99.51-1.77s-.17-1.36-.51-1.75c-.34-.4-.79-.6-1.37-.6s-1.01.2-1.35.6c-.34.39-.51.97-.51 1.75s.16 1.37.49 1.77c.34.4.79.6 1.36.6Zm6.99 1.03c-.55 0-1.05-.07-1.51-.21a3.22 3.22 0 0 1-1.14-.58l.4-.9a3.74 3.74 0 0 0 2.27.73c.48 0 .84-.08 1.08-.25a.82.82 0 0 0 .36-.7.73.73 0 0 0-.23-.55 1.5 1.5 0 0 0-.74-.31l-1.25-.25a2.5 2.5 0 0 1-1.26-.62 1.53 1.53 0 0 1-.43-1.13c0-.39.1-.74.31-1.04.22-.3.52-.54.91-.71a4.15 4.15 0 0 1 2.74-.05c.41.14.76.34 1.04.6l-.42.87c-.27-.23-.57-.4-.91-.52a2.84 2.84 0 0 0-1.03-.19c-.49 0-.85.09-1.08.27a.87.87 0 0 0-.35.71c0 .22.07.41.21.56.15.14.38.25.69.33l1.25.25a2.7 2.7 0 0 1 1.33.6c.29.28.44.65.44 1.12 0 .41-.11.76-.34 1.07-.23.3-.54.53-.94.69-.4.16-.87.23-1.4.23Zm6.47 0c-.55 0-1.05-.07-1.51-.21a3.22 3.22 0 0 1-1.14-.58l.4-.9a3.74 3.74 0 0 0 2.27.73c.48 0 .84-.08 1.08-.25a.82.82 0 0 0 .36-.7.73.73 0 0 0-.23-.55 1.5 1.5 0 0 0-.74-.31l-1.25-.25a2.5 2.5 0 0 1-1.26-.62 1.53 1.53 0 0 1-.43-1.13c0-.39.1-.74.31-1.04.22-.3.52-.54.91-.71a4.15 4.15 0 0 1 2.74-.05c.42.14.76.34 1.04.6l-.42.87c-.27-.23-.57-.4-.91-.52a2.84 2.84 0 0 0-1.03-.19c-.49 0-.84.09-1.08.27s-.35.42-.35.71c0 .22.07.41.21.56.15.14.38.25.69.33l1.25.25a2.7 2.7 0 0 1 1.33.6c.29.28.44.65.44 1.12 0 .41-.11.76-.34 1.07-.23.3-.54.53-.94.69-.4.16-.87.23-1.4.23Zm10.2 0a2.8 2.8 0 0 1-1.52-.4 2.7 2.7 0 0 1-1.01-1.17c-.23-.51-.35-1.12-.35-1.82s.12-1.32.35-1.82a2.73 2.73 0 0 1 2.53-1.58c.58 0 1.07.14 1.5.43.42.29.71.68.85 1.17h-.14l.13-1.48h1.27l-.08.81-.03.77v4.98h-1.31v-1.46h.14a2 2 0 0 1-.86 1.16c-.42.28-.91.42-1.47.42Zm.33-1.03c.56 0 1.01-.2 1.35-.6.35-.4.52-.99.52-1.77s-.17-1.36-.52-1.75c-.34-.4-.79-.6-1.35-.6s-1.03.2-1.38.6c-.34.39-.51.97-.51 1.75s.17 1.37.51 1.77c.34.4.8.6 1.38.6Zm5.09.91v-9.57h1.31v9.57h-1.31Zm3.24 0v-9.57h1.31v9.57h-1.31Zm6.7 2.81v-7.79c0-.25-.01-.51-.04-.77l-.07-.81h1.27l.13 1.48h-.14c.14-.49.42-.88.83-1.17.42-.29.93-.43 1.51-.43s1.09.14 1.52.42c.43.27.77.65 1 1.16.24.5.36 1.11.36 1.82s-.12 1.31-.36 1.82c-.23.51-.57.9-1 1.17-.43.27-.94.4-1.52.4s-1.07-.14-1.5-.42a2.04 2.04 0 0 1-.83-1.16h.14v4.26H79.6Zm3.17-3.72c.57 0 1.03-.2 1.37-.6.35-.4.52-.99.52-1.77s-.17-1.36-.52-1.75c-.34-.4-.79-.6-1.37-.6s-1.03.2-1.38.6c-.34.39-.51.97-.51 1.75s.17 1.37.51 1.77c.35.4.81.6 1.38.6Zm4.72.91v-4.93c0-.27 0-.54-.03-.81 0-.28-.03-.55-.05-.82h1.27l.14 1.69h-.21c.09-.41.23-.75.44-1.01a2.06 2.06 0 0 1 1.7-.79c.14 0 .26 0 .35.03.1 0 .19.03.29.05v1.17c-.16-.06-.29-.1-.4-.1-.1-.02-.23-.03-.39-.03-.38 0-.71.09-.97.26a1.6 1.6 0 0 0-.61.68c-.14.29-.21.59-.21.92v3.69h-1.33Zm7.65.12c-.65 0-1.21-.13-1.69-.4a2.85 2.85 0 0 1-1.11-1.17c-.26-.51-.39-1.12-.39-1.82s.13-1.3.39-1.81.63-.9 1.11-1.17c.48-.28 1.04-.42 1.69-.42s1.21.14 1.69.42c.49.27.86.66 1.12 1.17.27.5.4 1.11.4 1.81s-.13 1.31-.4 1.82c-.26.5-.63.89-1.12 1.17-.48.27-1.04.4-1.69.4Zm0-1.03c.57 0 1.03-.2 1.37-.6.34-.4.51-.99.51-1.77s-.17-1.36-.51-1.75c-.34-.4-.79-.6-1.37-.6s-1.01.2-1.35.6c-.34.39-.51.97-.51 1.75s.16 1.37.49 1.77c.34.4.79.6 1.36.6Zm7.26 1.03c-.57 0-1.08-.13-1.52-.4a2.7 2.7 0 0 1-1.01-1.17c-.23-.51-.35-1.12-.35-1.82s.12-1.32.35-1.82a2.73 2.73 0 0 1 2.53-1.58c.57 0 1.06.14 1.48.43a2 2 0 0 1 .86 1.14h-.16v-4.47h1.31v9.57h-1.3v-1.48h.16a2.1 2.1 0 0 1-.86 1.17c-.42.29-.92.43-1.49.43Zm.32-1.03c.56 0 1.02-.2 1.36-.6.35-.4.52-.99.52-1.77s-.17-1.36-.52-1.75c-.35-.4-.8-.6-1.36-.6s-1.03.2-1.38.6c-.34.39-.51.97-.51 1.75s.17 1.37.51 1.77c.35.4.81.6 1.38.6Zm7.41 1.03c-.79 0-1.38-.21-1.78-.64-.39-.43-.58-1.1-.58-1.99v-4.04h1.31v4.02c0 .55.11.95.34 1.21.23.26.57.39 1.03.39.52 0 .94-.17 1.26-.52.32-.35.48-.81.48-1.38v-3.72h1.31v6.55h-1.27v-1.4h.17a2.25 2.25 0 0 1-2.26 1.52Zm8.16 0c-.66 0-1.24-.13-1.73-.4a2.86 2.86 0 0 1-1.13-1.18c-.26-.52-.39-1.13-.39-1.85s.13-1.3.4-1.81c.27-.5.64-.88 1.13-1.14a3.5 3.5 0 0 1 1.72-.4c.42 0 .84.07 1.24.22.4.14.73.34.99.6l-.43.92a2.38 2.38 0 0 0-.82-.52c-.3-.12-.6-.18-.88-.18-.62 0-1.11.2-1.47.6-.36.4-.53.97-.53 1.73s.18 1.35.53 1.76c.35.41.84.61 1.47.61a2.51 2.51 0 0 0 1.7-.69l.43.92a2.9 2.9 0 0 1-1.01.61c-.4.14-.8.21-1.21.21Zm6.17 0c-.71 0-1.25-.19-1.61-.57-.36-.39-.55-.97-.55-1.74v-3.34h-1.27v-1.01h1.27v-1.73l1.31-.35v2.08h1.82v1.01h-1.82v3.22c0 .49.09.83.26 1.04.17.21.42.31.75.31.16 0 .31-.01.43-.04.13-.04.25-.07.35-.12v1.07a2.9 2.9 0 0 1-.95.17Zm-72.9 13.88v-4.93c0-.27 0-.54-.03-.81 0-.28-.03-.55-.05-.82h1.27l.14 1.69h-.21c.09-.41.23-.75.44-1.01a2.06 2.06 0 0 1 1.7-.79c.14 0 .26 0 .35.03.1 0 .19.03.29.05v1.17c-.16-.06-.29-.1-.4-.1-.1-.02-.23-.03-.39-.03-.38 0-.71.09-.97.26a1.6 1.6 0 0 0-.61.68c-.14.29-.21.59-.21.92v3.69h-1.33Zm7.37.12a2.8 2.8 0 0 1-1.52-.4 2.7 2.7 0 0 1-1.01-1.17c-.23-.51-.35-1.12-.35-1.82s.12-1.32.35-1.82a2.73 2.73 0 0 1 2.53-1.58c.58 0 1.07.14 1.5.43.42.29.71.68.84 1.17h-.14l.13-1.48h1.27l-.08.81-.03.77v4.98h-1.31v-1.46h.14a2 2 0 0 1-.86 1.16c-.42.28-.91.42-1.47.42Zm.33-1.03c.56 0 1.01-.2 1.35-.6.35-.4.52-.99.52-1.77s-.17-1.36-.52-1.75c-.34-.4-.79-.6-1.35-.6s-1.03.2-1.38.6c-.34.39-.51.97-.51 1.75s.17 1.37.51 1.77c.34.4.8.6 1.38.6Zm5.09.91v-4.98c0-.25-.01-.51-.04-.77l-.07-.81h1.27l.12 1.38h-.16c.2-.48.51-.85.92-1.1.42-.26.9-.39 1.44-.39.77 0 1.35.21 1.74.64.4.42.6 1.08.6 1.98v4.06h-1.31v-3.98c0-.58-.12-1-.35-1.25-.23-.26-.57-.39-1.04-.39-.55 0-1 .17-1.33.52-.33.34-.49.8-.49 1.38v3.72h-1.31Zm10.66 2.91c-.59 0-1.13-.07-1.61-.21a4.28 4.28 0 0 1-1.29-.62l.33-.96a4.12 4.12 0 0 0 1.61.68c.29.05.58.08.88.08.62 0 1.09-.16 1.4-.48.32-.31.48-.77.48-1.36v-1.75h.13c-.14.48-.42.87-.86 1.16-.42.28-.92.42-1.48.42-.6 0-1.12-.13-1.56-.39a2.77 2.77 0 0 1-1.01-1.13c-.23-.49-.35-1.07-.35-1.74s.12-1.24.35-1.73c.24-.49.58-.86 1.01-1.12.44-.27.96-.4 1.56-.4s1.07.14 1.48.43c.42.28.71.66.85 1.14l-.12-.1.12-1.35h1.27a22.2 22.2 0 0 0-.11 1.58v4.85c0 .99-.26 1.74-.79 2.26-.52.52-1.29.78-2.3.78Zm-.09-4.1a1.7 1.7 0 0 0 1.36-.58c.35-.39.52-.94.52-1.65s-.17-1.26-.52-1.64c-.34-.38-.79-.57-1.36-.57s-1.06.19-1.4.57c-.34.38-.51.93-.51 1.64s.17 1.26.51 1.65c.35.39.81.58 1.4.58Zm8.13 1.3a3.4 3.4 0 0 1-2.5-.9 3.32 3.32 0 0 1-.91-2.48c0-.68.13-1.28.39-1.79.27-.51.64-.91 1.1-1.18.48-.29 1.03-.43 1.65-.43s1.13.13 1.55.39c.42.26.73.63.95 1.1.22.47.32 1.02.32 1.66v.42h-4.94v-.75h4.04l-.22.17c0-.65-.15-1.15-.44-1.51-.29-.36-.7-.55-1.25-.55-.61 0-1.07.21-1.4.64-.33.42-.49.99-.49 1.73v.13c0 .77.19 1.35.56 1.74.38.39.92.58 1.61.58.38 0 .74-.05 1.07-.16.34-.11.66-.29.96-.55l.43.9a3 3 0 0 1-1.11.62c-.43.14-.89.21-1.38.21Zm6.32 0c-.55 0-1.05-.07-1.51-.21a3.22 3.22 0 0 1-1.14-.58l.4-.9a3.74 3.74 0 0 0 2.27.73c.48 0 .84-.08 1.08-.25a.82.82 0 0 0 .36-.7.73.73 0 0 0-.23-.55 1.5 1.5 0 0 0-.74-.31l-1.25-.25a2.5 2.5 0 0 1-1.26-.62 1.53 1.53 0 0 1-.43-1.13c0-.39.1-.74.31-1.04.22-.3.52-.54.91-.71a4.15 4.15 0 0 1 2.74-.05c.41.14.76.34 1.04.6l-.42.87c-.27-.23-.57-.4-.91-.52a2.84 2.84 0 0 0-1.03-.19c-.49 0-.85.09-1.08.27a.87.87 0 0 0-.35.71c0 .22.07.41.21.56.15.14.38.25.69.33l1.25.25a2.7 2.7 0 0 1 1.33.6c.29.28.44.65.44 1.12 0 .41-.11.76-.34 1.07-.23.3-.54.53-.94.69-.4.16-.87.23-1.4.23Z"/></svg>