<svg xmlns="http://www.w3.org/2000/svg" width="592" height="490" fill="none" viewBox="0 0 592 490"><g clip-path="url(#a)"><g clip-path="url(#b)"><mask id="k" fill="#fff"><path d="M0 0h196v490H0z"/></mask><mask id="c" fill="#fff"><path d="M0 0h196v70H0z"/></mask><path fill="#2a2a2a" d="M196 70v-1H0v2h196z" mask="url(#c)"/><path fill="#1a1a1a" d="M29.26 28V16.72h4.6q1.8 0 2.8.77.96.77.97 2.16 0 1.05-.64 1.76a3 3 0 0 1-1.72.94v-.24q1.26.15 1.94.87.7.72.7 1.9 0 1.5-1 2.32-1.01.8-2.85.8zm1.44-1.18h3.21q1.2 0 1.86-.45.69-.47.69-1.52 0-1.07-.69-1.52a3.3 3.3 0 0 0-1.86-.45H30.7zm0-5.12h2.94q1.27 0 1.9-.48.6-.49.61-1.43 0-.93-.62-1.4-.62-.5-1.89-.5H30.7zm9.48 6.3V16.72h7.14v1.22h-5.65v3.77h5.28v1.22h-5.28V28zm9.05 0V16.72h4.67q1.8 0 2.78.85 1 .84 1 2.37 0 1-.45 1.7-.45.71-1.27 1.08-.8.37-1.87.37l.27-.23h.39q.65 0 1.17.34.51.32.84 1.06l1.6 3.74h-1.64l-1.56-3.71q-.27-.69-.8-.9-.5-.2-1.3-.2h-2.34V28zm1.49-5.97h2.96q1.23 0 1.87-.53t.65-1.53q0-.99-.65-1.5-.64-.54-1.87-.53h-2.96zm14.53 6.11q-1.7 0-2.91-.7a4.6 4.6 0 0 1-1.84-2 7 7 0 0 1-.64-3.09q0-1.77.64-3.07a4.6 4.6 0 0 1 1.84-2q1.2-.7 2.91-.7 1.22 0 2.16.36t1.65 1.04l-.55 1.2a4.5 4.5 0 0 0-3.23-1.26q-1.87 0-2.86 1.15-1 1.15-1 3.28t1 3.3q.99 1.15 2.86 1.15.97 0 1.71-.29.75-.3 1.52-.97l.55 1.18q-.7.69-1.67 1.06-.94.36-2.14.36m10.2-.14V16.72h4.67q1.8 0 2.78.85 1 .84 1 2.37 0 1-.45 1.7-.45.71-1.27 1.08-.8.37-1.87.37l.27-.23h.39q.65 0 1.16.34.52.32.85 1.06l1.6 3.74h-1.65l-1.55-3.71q-.27-.69-.8-.9-.5-.2-1.3-.2h-2.35V28zm1.48-5.97h2.96q1.24 0 1.88-.53.65-.53.65-1.53 0-.99-.65-1.5-.64-.54-1.88-.53h-2.96zm12.5 6.11q-1.05 0-1.85-.5a3.3 3.3 0 0 1-1.25-1.43 5 5 0 0 1-.45-2.24q0-1.3.45-2.23.45-.94 1.25-1.44t1.86-.5 1.85.55q.8.53 1.06 1.46h-.2l.18-1.86h1.41l-.1.96-.03.95V28h-1.45v-1.84h.17q-.25.91-1.05 1.46-.8.52-1.84.52m.34-1.15q1.08 0 1.75-.77.65-.76.65-2.25 0-1.5-.65-2.24a2.2 2.2 0 0 0-1.75-.75q-1.08 0-1.76.75-.65.75-.65 2.24 0 1.48.65 2.25a2.2 2.2 0 0 0 1.76.77m9.29 1.15q-1.26 0-1.92-.68-.64-.7-.64-2.12v-4.27h-1.57v-1.12h1.57V17.8l1.46-.4v2.56h2.27v1.12h-2.27v4.15q0 .92.32 1.32.33.39.96.39.32 0 .54-.05l.43-.14v1.2q-.23.09-.56.14-.3.06-.59.06m2.7-.14v-8.05h1.45V28zm-.13-9.8v-1.58h1.73v1.57zm4.02 9.8v-6.14a14 14 0 0 0-.13-1.9h1.4l.17 1.72h-.2q.38-.9 1.14-1.4.76-.47 1.8-.47 1.42 0 2.14.78.72.77.72 2.4v5h-1.46v-4.93q0-1.1-.43-1.58-.44-.5-1.35-.5-1.08 0-1.72.66a2.5 2.5 0 0 0-.63 1.77V28zm13 3.58a7 7 0 0 1-1.93-.25 5 5 0 0 1-1.59-.79l.39-1.07q.5.34.97.55.48.2 1 .3t1.08.1q1.19 0 1.78-.61.6-.6.59-1.73v-2.26h.16q-.25.92-1.06 1.46-.78.53-1.85.53-1.1 0-1.9-.48-.81-.5-1.25-1.4-.45-.9-.45-2.12t.45-2.13 1.24-1.38a3.6 3.6 0 0 1 1.9-.5q1.08 0 1.86.54.79.52 1.04 1.45l-.14-.14.14-1.7h1.41l-.1.96-.03.95v6.04q0 1.8-.94 2.74t-2.77.94m-.14-4.92q1.1 0 1.76-.76.66-.75.65-2.1 0-1.35-.65-2.09a2.2 2.2 0 0 0-1.76-.73 2.3 2.3 0 0 0-1.8.73q-.65.75-.65 2.1t.66 2.1 1.79.75m10.5 1.33V16.22h1.46v7.28h.03l3.63-3.55h1.8l-4.31 4.23.02-.7 4.68 4.52h-1.85l-3.97-3.74h-.03V28zm11.62 0-3.95-11.28h1.57l3.34 9.95h-.57l3.55-9.95h1.17l3.33 9.95h-.52l3.46-9.95h1.47L149.51 28h-1.3l-3.25-9.52h.34L141.92 28zm14.58 0V16.22h1.46v5.48h-.2q.34-.94 1.13-1.41a3.4 3.4 0 0 1 1.8-.48q1.47 0 2.15.78.7.78.7 2.37V28h-1.45v-4.96q0-1.07-.42-1.55-.42-.5-1.36-.5-1.05 0-1.71.66a2.4 2.4 0 0 0-.64 1.74V28zm9.07.9h-1.23l4.18-12.88h1.25zM75.15 56.88q-.69-1.18-1.14-2.34a13 13 0 0 1-.83-4.75q0-1.28.2-2.45.2-1.16.63-2.3.45-1.14 1.14-2.32h1.18q-.81 1.8-1.23 3.57a15 15 0 0 0 0 7.02q.42 1.76 1.23 3.57zM77.98 54v-6.14a14 14 0 0 0-.13-1.9h1.41l.16 1.72h-.19a2.7 2.7 0 0 1 2.7-1.87q.98 0 1.64.48.63.46.86 1.47h-.24q.3-.9 1.07-1.42.77-.53 1.8-.53 1.32 0 2 .78.66.77.67 2.4V54h-1.46v-4.93q0-1.1-.38-1.58-.4-.5-1.22-.5a1.9 1.9 0 0 0-1.54.67 2.7 2.7 0 0 0-.56 1.8V54h-1.45v-4.93q0-1.1-.39-1.58-.37-.5-1.21-.5a1.9 1.9 0 0 0-1.54.67 2.7 2.7 0 0 0-.54 1.8V54zm13.73-4.51v-.88l2.24-2.29q.45-.46.65-.85t.21-.78q0-1-1.15-1.01-.44 0-.95.2-.47.16-.86.49l-.35-.91q.43-.37 1.04-.58.62-.22 1.34-.22 1.05 0 1.63.5.6.51.6 1.38 0 .55-.28 1.08-.27.53-.84 1.1l-1.9 1.89v-.16h3.3v1.04zm7.48-1.25-.86-.66 1.53-1.96-2.41-.72.35-1.04 2.34.88-.08-2.52h1.1l-.1 2.52 2.39-.88.32 1.04-2.42.7 1.56 1.98-.9.66-1.4-2.11zm6.25 9.4-.33-1.2q.75-.16 1.25-.4.49-.23.83-.6t.59-.93l.4-.96-.03.61-3.5-8.2h1.56l2.8 6.89h-.41l2.8-6.9h1.5l-3.7 8.67q-.33.79-.73 1.32a4 4 0 0 1-1.84 1.39q-.54.2-1.19.3m8.8-3.64v-6.08a15 15 0 0 0-.1-1.97h1.4l.18 2.02-.24.01q.16-.74.54-1.21.4-.5.95-.72a3 3 0 0 1 1.15-.24l.43.01q.18.02.35.08l-.03 1.3q-.23-.1-.45-.11l-.48-.03q-.7 0-1.21.32-.5.31-.77.84-.26.53-.26 1.14V54zm6.61 2.88h-1.2q.81-1.8 1.23-3.57a15 15 0 0 0 0-7.02 20 20 0 0 0-1.23-3.57h1.2q.69 1.19 1.12 2.34.45 1.13.64 2.3a14 14 0 0 1 0 4.88q-.2 1.17-.64 2.3-.43 1.16-1.12 2.34"/><mask id="d" fill="#fff"><path d="M0 70h196v60H0z"/></mask><path fill="#7dc4ee" d="M0 70h196v60H0z"/><path fill="#2a2a2a" d="M196 130v-1H0v2h196z" mask="url(#d)"/><rect width="63" height="42" x="12" y="79" fill="#fff" rx="4"/><path fill="#2a2a2a" d="M20.99 100.3v-.99h7.9v1zm0 3.19v-.98h7.9v.98zm13.78 1.97v-1.12l7.36-3.25v.64l-7.36-3.27v-1.1l7.89 3.54v1.02zm14.93.54v-1.14h2.66v-9h.7l-3.1 1.93v-1.33l2.77-1.74h.96v10.14h2.5V106zm12.37.14q-1.92 0-2.95-1.48-1.02-1.5-1.02-4.3 0-2.84 1.02-4.31a3.4 3.4 0 0 1 2.95-1.47q1.93 0 2.94 1.47 1.02 1.46 1.02 4.29 0 2.82-1.02 4.32a3.4 3.4 0 0 1-2.94 1.48m0-1.15q1.34 0 2-1.13.65-1.15.65-3.52 0-2.4-.65-3.5a2.2 2.2 0 0 0-2-1.13q-1.34 0-2 1.12t-.66 3.5q0 2.4.66 3.53a2.2 2.2 0 0 0 2 1.13"/><mask id="e" fill="#fff"><path d="M0 130h196v60H0z"/></mask><path fill="#238cc9" d="M0 130h196v60H0z"/><path fill="#2a2a2a" d="M196 190v-1H0v2h196z" mask="url(#e)"/><rect width="82" height="42" x="12" y="139" fill="#fff" rx="4"/><path fill="#2a2a2a" d="M25.03 166.14q-1.92 0-2.95-1.48-1.02-1.5-1.02-4.3 0-2.84 1.02-4.31a3.4 3.4 0 0 1 2.95-1.47q1.93 0 2.94 1.47Q29 157.5 29 160.34q0 2.82-1.02 4.32a3.4 3.4 0 0 1-2.94 1.48m0-1.15q1.34 0 2-1.13.65-1.14.65-3.52 0-2.4-.65-3.5a2.2 2.2 0 0 0-2-1.13q-1.34 0-2 1.12t-.66 3.5q0 2.4.66 3.53a2.2 2.2 0 0 0 2 1.13m13.07 1.15q-1.19 0-1.8-.67-.63-.7-.63-2.06v-4.43H34.1v-1.01h1.57v-2.2l1.3-.36v2.56h2.3v1h-2.3v4.3q0 .95.32 1.37.33.4.99.4.3 0 .54-.05.23-.06.44-.14v1.09q-.22.09-.55.14-.3.06-.6.06m5.97 0q-1.15 0-2.02-.5-.84-.5-1.31-1.43a5 5 0 0 1-.46-2.23q0-1.29.46-2.22t1.31-1.42a4 4 0 0 1 2.02-.52q1.17 0 2.01.52.87.5 1.33 1.42.48.93.48 2.22t-.48 2.23a3.4 3.4 0 0 1-1.33 1.44q-.84.5-2.01.5m0-1.05q1.15 0 1.82-.79.67-.8.67-2.32 0-1.53-.68-2.32a2.2 2.2 0 0 0-1.81-.8q-1.14 0-1.81.8t-.67 2.32q0 1.54.67 2.32.67.8 1.8.79m17.5.37-7.9-3.54v-1.02l7.9-3.54v1.1l-7.37 3.27v-.64l7.37 3.25zm7.05.54v-1.14h2.65v-9h.7l-3.1 1.93v-1.33l2.77-1.74h.96v10.14h2.5V166zm12.36.14q-1.92 0-2.94-1.48-1.03-1.5-1.03-4.3 0-2.84 1.03-4.31a3.4 3.4 0 0 1 2.94-1.47q1.94 0 2.94 1.47 1.03 1.46 1.03 4.29 0 2.82-1.03 4.32a3.4 3.4 0 0 1-2.94 1.48m0-1.15q1.35 0 2-1.13.66-1.14.66-3.52 0-2.4-.66-3.5a2.2 2.2 0 0 0-2-1.13q-1.33 0-2 1.12t-.66 3.5q0 2.4.66 3.53a2.2 2.2 0 0 0 2 1.13"/><mask id="f" fill="#fff"><path d="M0 190h196v60H0z"/></mask><path fill="#24bd1c" d="M0 190h196v60H0z"/><path fill="#2a2a2a" d="M196 250v-1H0v2h196z" mask="url(#f)"/><rect width="89" height="42" x="12" y="199" fill="#fff" rx="4"/><path fill="#2a2a2a" d="M21.46 222.14v-1.07h4.56v1.07zm7.72 3.86v-1.14h2.66v-9h.7l-3.1 1.93v-1.33l2.76-1.74h.96v10.14h2.5V226zm12.36.14q-1.92 0-2.94-1.48-1.02-1.5-1.03-4.3 0-2.84 1.03-4.31a3.4 3.4 0 0 1 2.94-1.47q1.94 0 2.95 1.47 1.02 1.46 1.02 4.29 0 2.82-1.02 4.32a3.4 3.4 0 0 1-2.95 1.48m0-1.15q1.34 0 2-1.13.66-1.14.66-3.52 0-2.4-.66-3.5a2.2 2.2 0 0 0-2-1.13q-1.32 0-2 1.12-.66 1.13-.65 3.5 0 2.4.65 3.53a2.2 2.2 0 0 0 2 1.13m13.08 1.15q-1.2 0-1.8-.67-.63-.7-.63-2.06v-4.43h-1.57v-1.01h1.57v-2.2l1.3-.36v2.56h2.3v1h-2.3v4.3q0 .95.31 1.37.34.4 1 .4.3 0 .54-.05t.43-.14v1.09q-.22.08-.54.14-.3.06-.61.06m5.96 0q-1.15 0-2.01-.5t-1.31-1.43a5 5 0 0 1-.47-2.23q0-1.29.47-2.22.45-.94 1.3-1.42a4 4 0 0 1 2.02-.52q1.17 0 2.02.52.87.5 1.33 1.42.48.93.48 2.22t-.48 2.23a3.4 3.4 0 0 1-1.33 1.44q-.85.5-2.02.5m0-1.05q1.16 0 1.83-.79.67-.8.67-2.32 0-1.53-.69-2.32a2.2 2.2 0 0 0-1.8-.8q-1.14 0-1.81.8t-.68 2.32q0 1.54.68 2.32.67.8 1.8.79m17.5.37-7.9-3.54v-1.02l7.9-3.54v1.1l-7.37 3.27v-.64l7.38 3.25zm9.82.68q-1.92 0-2.94-1.48-1.03-1.5-1.03-4.3 0-2.84 1.03-4.31a3.4 3.4 0 0 1 2.94-1.47q1.94 0 2.95 1.47 1.02 1.46 1.02 4.29 0 2.82-1.02 4.32a3.4 3.4 0 0 1-2.95 1.48m0-1.15q1.35 0 2-1.13.66-1.14.66-3.52 0-2.4-.66-3.5a2.2 2.2 0 0 0-2-1.13q-1.32 0-2 1.12-.66 1.13-.65 3.5 0 2.4.65 3.53a2.2 2.2 0 0 0 2 1.13"/><mask id="g" fill="#fff"><path d="M0 250h196v60H0z"/></mask><path fill="#a3d422" d="M0 250h196v60H0z"/><path fill="#2a2a2a" d="M196 310v-1H0v2h196z" mask="url(#g)"/><rect width="105" height="42" x="12" y="259" fill="#fff" rx="4"/><path fill="#2a2a2a" d="M21.24 282.14v-1.07h4.56v1.07zM28.3 286v-1l4-4.17q.77-.81 1.16-1.55.4-.75.4-1.55 0-.97-.6-1.47-.62-.51-1.76-.52a4.3 4.3 0 0 0-3.12 1.3L27.9 276q.64-.64 1.63-1.02.99-.4 2.1-.4 1.7 0 2.63.8.93.77.93 2.24 0 1.07-.53 2.04-.51.96-1.5 1.99l-3.54 3.58v-.37h6.05V286zm13.01.14q-1.92 0-2.94-1.48-1.02-1.5-1.02-4.3 0-2.84 1.02-4.31a3.4 3.4 0 0 1 2.94-1.47q1.95 0 2.95 1.47 1.02 1.46 1.02 4.29 0 2.82-1.02 4.32a3.4 3.4 0 0 1-2.95 1.48m0-1.15q1.35 0 2-1.13.66-1.14.66-3.52 0-2.4-.66-3.5a2.2 2.2 0 0 0-2-1.13q-1.32 0-2 1.12-.65 1.13-.65 3.5 0 2.4.65 3.53a2.2 2.2 0 0 0 2 1.13m13.08 1.15q-1.2 0-1.8-.67-.63-.7-.63-2.06v-4.43H50.4v-1.01h1.57v-2.2l1.3-.36v2.56h2.3v1h-2.3v4.3q0 .96.32 1.37.33.4.99.4.3 0 .54-.05t.43-.14v1.09q-.22.08-.54.14-.3.06-.6.06m5.96 0q-1.15 0-2.01-.5t-1.31-1.43a5 5 0 0 1-.47-2.23q0-1.29.47-2.22.45-.94 1.3-1.42a4 4 0 0 1 2.02-.52q1.17 0 2.02.52.87.5 1.33 1.42.48.93.48 2.22t-.48 2.23a3.4 3.4 0 0 1-1.33 1.44q-.84.5-2.02.5m0-1.05q1.16 0 1.83-.79.67-.8.67-2.32 0-1.53-.69-2.32a2.2 2.2 0 0 0-1.8-.8q-1.14 0-1.81.8t-.68 2.32q0 1.54.68 2.32.67.8 1.8.79m17.5.37-7.9-3.54v-1.02l7.9-3.54v1.1l-7.37 3.27v-.64l7.38 3.25zm6.17-3.32v-1.07h4.56v1.07zm7.73 3.86v-1.14h2.65v-9h.7l-3.1 1.93v-1.33l2.77-1.74h.96v10.14h2.5V286zm12.36.14q-1.92 0-2.94-1.48-1.03-1.5-1.03-4.3 0-2.84 1.03-4.31a3.4 3.4 0 0 1 2.94-1.47q1.94 0 2.94 1.47 1.03 1.46 1.03 4.29 0 2.82-1.03 4.32a3.4 3.4 0 0 1-2.94 1.48m0-1.15q1.35 0 2-1.13.66-1.14.66-3.52 0-2.4-.66-3.5a2.2 2.2 0 0 0-2-1.13q-1.33 0-2 1.12t-.66 3.5q0 2.4.66 3.53a2.2 2.2 0 0 0 2 1.13"/><mask id="h" fill="#fff"><path d="M0 310h196v60H0z"/></mask><path fill="#fca928" d="M0 310h196v60H0z"/><path fill="#2a2a2a" d="M196 370v-1H0v2h196z" mask="url(#h)"/><rect width="105" height="42" x="12" y="319" fill="#fff" rx="4"/><path fill="#2a2a2a" d="M21.24 342.14v-1.07h4.56v1.07zm10.43 4q-1.14 0-2.18-.35a5 5 0 0 1-1.74-1l.5-1.03a5.3 5.3 0 0 0 3.4 1.22q1.26 0 1.92-.53.66-.55.66-1.59 0-.99-.68-1.5a3 3 0 0 0-1.96-.53h-1.7v-1.1h1.58q1.12 0 1.78-.58.66-.57.66-1.57 0-.9-.61-1.36-.6-.48-1.71-.48-1.83 0-3.16 1.3l-.5-1.04q.67-.68 1.66-1.04a6 6 0 0 1 2.08-.38q1.65 0 2.6.76.95.78.95 2.13 0 1.05-.6 1.8-.58.73-1.6 1v-.17q1.2.18 1.86.96.66.75.66 1.9 0 1.47-1.04 2.34-1.03.84-2.83.84m9.65 0q-1.92 0-2.94-1.48-1.02-1.5-1.02-4.3 0-2.84 1.02-4.31a3.4 3.4 0 0 1 2.94-1.47q1.95 0 2.95 1.47 1.02 1.46 1.02 4.29 0 2.82-1.02 4.32a3.4 3.4 0 0 1-2.95 1.48m0-1.15q1.35 0 2-1.13.66-1.14.66-3.52 0-2.4-.66-3.5a2.2 2.2 0 0 0-2-1.13q-1.32 0-2 1.12-.65 1.13-.65 3.5 0 2.4.65 3.53a2.2 2.2 0 0 0 2 1.13m13.08 1.15q-1.2 0-1.8-.67-.63-.7-.63-2.06v-4.43H50.4v-1.01h1.57v-2.2l1.3-.36v2.56h2.3v1h-2.3v4.3q0 .96.32 1.37.33.4.99.4.3 0 .54-.05t.43-.14v1.09q-.22.08-.54.14-.3.06-.6.06m5.96 0q-1.15 0-2.01-.5t-1.31-1.43a5 5 0 0 1-.47-2.23q0-1.29.47-2.22.45-.94 1.3-1.42a4 4 0 0 1 2.02-.52q1.17 0 2.02.52.87.5 1.33 1.42.48.93.48 2.22t-.48 2.23a3.4 3.4 0 0 1-1.33 1.44q-.84.5-2.02.5m0-1.05q1.16 0 1.83-.79.67-.8.67-2.32 0-1.53-.69-2.32a2.2 2.2 0 0 0-1.8-.8q-1.14 0-1.81.8t-.68 2.32q0 1.54.68 2.32.67.8 1.8.79m17.5.37-7.9-3.54v-1.02l7.9-3.54v1.1l-7.37 3.27v-.64l7.38 3.25zm6.17-3.32v-1.07h4.56v1.07zM91.1 346v-1l4-4.17q.79-.81 1.17-1.55.4-.75.4-1.55 0-.97-.6-1.47-.61-.51-1.77-.52a4.3 4.3 0 0 0-3.12 1.3L90.7 336q.64-.64 1.63-1.02 1-.4 2.1-.4 1.71 0 2.64.8.93.77.93 2.24 0 1.07-.53 2.04-.51.96-1.5 1.99l-3.54 3.58v-.37h6.05V346zm13.02.14q-1.92 0-2.94-1.48-1.03-1.5-1.03-4.3 0-2.84 1.03-4.31a3.4 3.4 0 0 1 2.94-1.47q1.94 0 2.94 1.47 1.03 1.46 1.03 4.29 0 2.82-1.03 4.32a3.4 3.4 0 0 1-2.94 1.48m0-1.15q1.35 0 2-1.13.66-1.14.66-3.52 0-2.4-.66-3.5a2.2 2.2 0 0 0-2-1.13q-1.33 0-2 1.12t-.66 3.5q0 2.4.66 3.53a2.2 2.2 0 0 0 2 1.13"/><mask id="i" fill="#fff"><path d="M0 370h196v60H0z"/></mask><path fill="#fa6f1e" d="M0 370h196v60H0z"/><path fill="#2a2a2a" d="M196 430v-1H0v2h196z" mask="url(#i)"/><rect width="105" height="42" x="12" y="379" fill="#fff" rx="4"/><path fill="#2a2a2a" d="M21.24 402.14v-1.07h4.56v1.07zm10.7 4a6.5 6.5 0 0 1-2.77-.62q-.6-.3-1.07-.74l.5-1.02q.78.63 1.6.93.81.29 1.74.29 1.2 0 1.9-.66.69-.65.69-1.73 0-1.1-.66-1.8a2.4 2.4 0 0 0-1.82-.71q-.83 0-1.49.34-.66.3-1.13 1h-.96v-6.7h6.68v1.12h-5.4v4.5h-.36q.45-.68 1.19-1.03a4 4 0 0 1 1.73-.37q1.08 0 1.87.45.8.45 1.23 1.25t.43 1.87-.48 1.9q-.46.83-1.34 1.29-.87.45-2.08.44m9.38 0q-1.92 0-2.94-1.48-1.02-1.5-1.02-4.3 0-2.84 1.02-4.31a3.4 3.4 0 0 1 2.94-1.47q1.95 0 2.95 1.47 1.02 1.46 1.02 4.29 0 2.82-1.02 4.32a3.4 3.4 0 0 1-2.95 1.48m0-1.15q1.35 0 2-1.13.66-1.14.66-3.52 0-2.4-.66-3.5a2.2 2.2 0 0 0-2-1.13q-1.32 0-2 1.12-.65 1.13-.65 3.5 0 2.4.65 3.53a2.2 2.2 0 0 0 2 1.13m13.08 1.15q-1.2 0-1.8-.67-.63-.7-.63-2.06v-4.43H50.4v-1.01h1.57v-2.2l1.3-.36v2.56h2.3v1h-2.3v4.3q0 .96.32 1.37.33.4.99.4.3 0 .54-.05t.43-.14v1.09q-.22.08-.54.14-.3.06-.6.06m5.96 0q-1.15 0-2.01-.5t-1.31-1.43a5 5 0 0 1-.47-2.23q0-1.29.47-2.22.45-.93 1.3-1.42a4 4 0 0 1 2.02-.52q1.17 0 2.02.52.87.5 1.33 1.42.48.93.48 2.22t-.48 2.23a3.4 3.4 0 0 1-1.33 1.44q-.84.5-2.02.5m0-1.05q1.16 0 1.83-.79.67-.8.67-2.32 0-1.53-.69-2.32a2.2 2.2 0 0 0-1.8-.8q-1.14 0-1.81.8t-.68 2.32q0 1.54.68 2.32.67.8 1.8.79m17.5.37-7.9-3.54v-1.02l7.9-3.54v1.1l-7.37 3.27v-.64l7.38 3.25zm6.17-3.32v-1.07h4.56v1.07zm10.43 4q-1.13 0-2.17-.35a5 5 0 0 1-1.75-1l.5-1.03a5.3 5.3 0 0 0 3.4 1.22q1.27 0 1.93-.53.65-.55.65-1.59 0-.99-.67-1.5a3 3 0 0 0-1.97-.53h-1.7v-1.1h1.6q1.11 0 1.77-.58.65-.57.65-1.57 0-.9-.6-1.36-.6-.48-1.72-.48-1.81 0-3.15 1.3l-.5-1.04q.67-.68 1.65-1.04a6 6 0 0 1 2.08-.38q1.67 0 2.61.76.94.78.94 2.13 0 1.05-.59 1.8-.6.73-1.6 1v-.17q1.2.18 1.86.96.66.75.65 1.9 0 1.47-1.04 2.34-1.02.84-2.83.84m9.66 0q-1.92 0-2.94-1.48-1.03-1.5-1.03-4.3 0-2.84 1.03-4.31a3.4 3.4 0 0 1 2.94-1.47q1.94 0 2.94 1.47 1.03 1.46 1.03 4.29 0 2.82-1.03 4.32a3.4 3.4 0 0 1-2.94 1.48m0-1.15q1.35 0 2-1.13.66-1.14.66-3.52 0-2.4-.66-3.5a2.2 2.2 0 0 0-2-1.13q-1.33 0-2 1.12t-.66 3.5q0 2.4.66 3.53a2.2 2.2 0 0 0 2 1.13"/><mask id="j" fill="#fff"><path d="M0 430h196v60H0z"/></mask><path fill="#e1322f" d="M0 430h196v60H0z"/><path fill="#2a2a2a" d="M196 490v-1H0v2h196z" mask="url(#j)"/><rect width="105" height="42" x="12" y="439" fill="#fff" rx="4"/><path fill="#2a2a2a" d="M21.24 462.14v-1.07h4.56v1.07zm7.5 3.86 5.55-10.72v.58h-6.3v-1.14h7.5v1L30.19 466zm12.58.14q-1.92 0-2.94-1.48-1.02-1.5-1.02-4.3 0-2.84 1.02-4.31a3.4 3.4 0 0 1 2.94-1.47q1.95 0 2.95 1.47 1.02 1.46 1.02 4.29 0 2.82-1.02 4.32a3.4 3.4 0 0 1-2.95 1.48m0-1.15q1.35 0 2-1.13.66-1.14.66-3.52 0-2.4-.66-3.5a2.2 2.2 0 0 0-2-1.13q-1.32 0-2 1.12-.65 1.13-.65 3.5 0 2.4.65 3.53a2.2 2.2 0 0 0 2 1.13m13.08 1.15q-1.2 0-1.8-.67-.63-.7-.63-2.06v-4.43H50.4v-1.01h1.57v-2.2l1.3-.36v2.56h2.3v1h-2.3v4.3q0 .96.32 1.37.33.4.99.4.3 0 .54-.05t.43-.14v1.09q-.22.08-.54.14-.3.06-.6.06m5.96 0q-1.15 0-2.01-.5t-1.31-1.43a5 5 0 0 1-.47-2.23q0-1.29.47-2.22.45-.93 1.3-1.42a4 4 0 0 1 2.02-.52q1.17 0 2.02.52.87.5 1.33 1.42.48.93.48 2.22t-.48 2.23a3.4 3.4 0 0 1-1.33 1.44q-.84.5-2.02.5m0-1.05q1.16 0 1.83-.79.67-.8.67-2.32 0-1.53-.69-2.32a2.2 2.2 0 0 0-1.8-.8q-1.14 0-1.81.8t-.68 2.32q0 1.54.68 2.32.67.8 1.8.79m17.5.37-7.9-3.54v-1.02l7.9-3.54v1.1l-7.37 3.27v-.64l7.38 3.25zm6.17-3.32v-1.07h4.56v1.07zm10.7 4a6.5 6.5 0 0 1-2.76-.62q-.6-.3-1.08-.74l.5-1.02q.78.63 1.6.93.82.29 1.74.29 1.23 0 1.9-.66.7-.65.7-1.73 0-1.1-.66-1.8a2.4 2.4 0 0 0-1.82-.71q-.83 0-1.5.34-.64.3-1.13 1h-.96v-6.7h6.7v1.12h-5.42v4.5h-.35q.43-.68 1.18-1.03a4 4 0 0 1 1.73-.37q1.1 0 1.87.45.8.45 1.24 1.25t.43 1.87-.48 1.9-1.35 1.29q-.85.45-2.08.44m9.39 0q-1.92 0-2.94-1.48-1.03-1.5-1.03-4.3 0-2.84 1.03-4.31a3.4 3.4 0 0 1 2.94-1.47q1.94 0 2.94 1.47 1.03 1.46 1.03 4.29 0 2.82-1.03 4.32a3.4 3.4 0 0 1-2.94 1.48m0-1.15q1.35 0 2-1.13.66-1.14.66-3.52 0-2.4-.66-3.5a2.2 2.2 0 0 0-2-1.13q-1.33 0-2 1.12t-.66 3.5q0 2.4.66 3.53a2.2 2.2 0 0 0 2 1.13"/></g><path fill="#2a2a2a" d="M196 0h-1v490h2V0z" mask="url(#k)"/><g clip-path="url(#l)"><mask id="o" fill="#fff"><path d="M196 0h100v490H196z"/></mask><mask id="m" fill="#fff"><path d="M196 0h100v70H196z"/></mask><path fill="#2a2a2a" d="M296 70v-1H196v2h100z" mask="url(#m)"/><path fill="#1a1a1a" d="M227 28V16.72h1.48v10h5.62V28zm11.69.14q-1.06 0-1.86-.5a3.3 3.3 0 0 1-1.25-1.43 5 5 0 0 1-.45-2.24q0-1.3.45-2.23.45-.94 1.25-1.44t1.86-.5 1.85.55q.8.53 1.06 1.46h-.2l.18-1.86H243l-.1.96-.03.95V28h-1.45v-1.84h.17q-.25.91-1.05 1.46-.8.52-1.84.52m.33-1.15q1.09 0 1.75-.77.65-.76.65-2.25 0-1.5-.65-2.24a2.2 2.2 0 0 0-1.75-.75q-1.08 0-1.76.75-.65.75-.65 2.24 0 1.48.65 2.25a2.2 2.2 0 0 0 1.76.77m10.46 1.15q-1.07 0-1.86-.52a2.6 2.6 0 0 1-1.04-1.5h.18V28h-1.46V16.22h1.46v5.57h-.18a2.6 2.6 0 0 1 1.04-1.45 3.2 3.2 0 0 1 1.86-.53q1.07 0 1.87.51.8.5 1.23 1.42.45.93.45 2.24 0 1.3-.45 2.24a3.2 3.2 0 0 1-1.25 1.43q-.8.5-1.85.5m-.34-1.15q1.09 0 1.75-.75.66-.76.67-2.26 0-1.48-.67-2.24a2.2 2.2 0 0 0-1.75-.76q-1.1 0-1.76.75-.63.75-.64 2.24 0 1.48.64 2.25a2.2 2.2 0 0 0 1.76.77m9.51 1.15q-1.92 0-3.04-1.1a4 4 0 0 1-1.1-3.04q0-1.28.48-2.2a3.6 3.6 0 0 1 1.36-1.46 4 4 0 0 1 2.01-.53q1.11 0 1.88.48.76.46 1.16 1.33.4.85.4 2.04v.48h-6.16v-.86h5.17l-.27.2q0-1.23-.56-1.93-.54-.69-1.62-.69-1.16 0-1.8.82a3.4 3.4 0 0 0-.64 2.2v.14q0 1.47.72 2.22.74.75 2.03.75.72 0 1.34-.2t1.2-.7l.48 1.01q-.54.5-1.36.77-.8.27-1.68.27m5.06-.14V16.22h1.45V28zm-36.63 26v-8.05h1.46V54zm-.12-9.8v-1.58h1.72v1.57zm4.01 9.8v-6.14a14 14 0 0 0-.12-1.9h1.4l.16 1.72h-.19q.38-.9 1.14-1.4.76-.47 1.79-.47 1.42 0 2.14.78.72.77.72 2.4v5h-1.45v-4.93q0-1.1-.43-1.58-.44-.5-1.35-.5-1.08 0-1.73.66a2.5 2.5 0 0 0-.62 1.77V54zm12.5.14q-1.05 0-1.86-.5a3.3 3.3 0 0 1-1.25-1.43 5 5 0 0 1-.44-2.24q0-1.3.44-2.23.45-.94 1.25-1.44t1.86-.5 1.84.54q.8.52 1.07 1.45h-.2v-5.57h1.46V54h-1.44v-1.87h.18a2.6 2.6 0 0 1-1.06 1.49q-.78.52-1.85.52m.33-1.15q1.1 0 1.75-.77.67-.76.67-2.25 0-1.5-.67-2.24a2.2 2.2 0 0 0-1.75-.75q-1.08 0-1.76.75-.65.75-.65 2.24t.65 2.25q.68.78 1.76.77m9.95 1.15q-1.93 0-3.04-1.1a4 4 0 0 1-1.1-3.04q0-1.28.47-2.2a3.6 3.6 0 0 1 1.36-1.46 4 4 0 0 1 2.02-.53q1.1 0 1.87.48.77.45 1.17 1.33.4.86.4 2.04v.48h-6.16v-.86h5.17l-.28.2q0-1.23-.56-1.93-.54-.69-1.61-.69-1.17 0-1.8.82a3.4 3.4 0 0 0-.65 2.2v.14q0 1.47.72 2.22.75.75 2.03.75.72 0 1.35-.2.61-.2 1.2-.7l.48 1.01q-.55.5-1.36.77t-1.68.27m3.87-.14 3.65-4.51v.72l-3.44-4.26h1.74l2.51 3.22h-.52l2.5-3.22h1.74l-3.4 4.23v-.66L266 54h-1.76l-2.69-3.44h.53L259.36 54z"/><mask id="n" fill="#fff"><path d="M196 70h100v420H196z"/></mask><path fill="#ffefef" d="M196 70h100v420H196z"/><path fill="#2a2a2a" d="M296 490v-1H196v2h100z" mask="url(#n)"/><path fill="#2a2a2a" d="M240.83 288.5v-1.7l5.32-5.56q1.03-1.09 1.54-2.02.5-.96.5-1.96 0-1.26-.79-1.9-.76-.63-2.24-.63a5.8 5.8 0 0 0-4.16 1.7l-.79-1.75a7 7 0 0 1 2.29-1.36q1.38-.53 2.92-.53 2.43 0 3.72 1.1a3.9 3.9 0 0 1 1.32 3.15q0 1.45-.7 2.8-.7 1.3-2.11 2.72l-4.6 4.64v-.61h8.05v1.91z"/></g><path fill="#2a2a2a" d="M296 0h-1v490h2V0z" mask="url(#o)"/><g clip-path="url(#p)"><mask id="y" fill="#fff"><path d="M296 0h196v490H296z"/></mask><mask id="q" fill="#fff"><path d="M296 0h196v70H296z"/></mask><path fill="#2a2a2a" d="M492 70v-1H296v2h196z" mask="url(#q)"/><path fill="#1a1a1a" d="M326.08 41V29.72h7.3v1.22h-5.86v3.72H333v1.22h-5.5v3.9h5.87V41zm12.43 0-3.95-11.28h1.57l3.34 9.95h-.58l3.56-9.95h1.17l3.32 9.95h-.5l3.45-9.95h1.47L347.37 41h-1.3l-3.24-9.52h.34L339.79 41zm14.74 0V29.72h7.3v1.22h-5.86v3.72h5.49v1.22h-5.49v3.9h5.86V41zm9.44 0V29.72h4.67q1.8 0 2.78.85 1 .84 1 2.37 0 1-.45 1.7-.45.71-1.26 1.08-.8.37-1.88.37l.27-.23h.39q.66 0 1.17.34.5.32.85 1.06l1.6 3.74h-1.65l-1.56-3.71q-.26-.69-.8-.9-.5-.2-1.3-.2h-2.34V41zm1.49-5.97h2.96q1.23 0 1.87-.53.66-.52.66-1.53 0-.99-.66-1.5-.64-.54-1.87-.53h-2.96zM377.86 41v-6.08a15 15 0 0 0-.12-1.97h1.41l.18 2.02-.24.01q.16-.74.54-1.21.4-.5.95-.72a3 3 0 0 1 1.15-.24l.43.01q.18.02.35.08l-.03 1.3q-.23-.1-.45-.11l-.48-.03q-.7 0-1.21.32-.5.31-.77.84-.26.53-.26 1.14V41zm8.93.14q-1.06 0-1.86-.5a3.3 3.3 0 0 1-1.25-1.43 5 5 0 0 1-.44-2.24q0-1.3.44-2.23.45-.94 1.25-1.44t1.86-.5 1.85.55q.8.53 1.06 1.46h-.2l.18-1.86h1.41l-.1.96-.03.95V41h-1.45v-1.84h.17q-.25.91-1.05 1.46-.78.52-1.84.52m.33-1.15q1.1 0 1.75-.77.65-.76.65-2.25 0-1.5-.65-2.24a2.2 2.2 0 0 0-1.75-.75q-1.08 0-1.76.75-.65.75-.65 2.24t.65 2.25a2.2 2.2 0 0 0 1.76.77m9.3 1.15q-1.28 0-1.93-.68-.64-.7-.64-2.12v-4.27h-1.57v-1.12h1.57V30.8l1.46-.4v2.56h2.27v1.12h-2.27v4.15q0 .92.32 1.32.33.39.96.39.32 0 .54-.05l.43-.14v1.2q-.24.09-.56.14-.3.06-.59.06m2.69-.14v-8.05h1.45V41zm-.13-9.8v-1.58h1.73v1.57zM403 41v-6.14a14 14 0 0 0-.13-1.9h1.4l.17 1.72h-.2q.38-.9 1.14-1.4a3.3 3.3 0 0 1 1.8-.47q1.41 0 2.14.78.72.77.72 2.4V41h-1.46v-4.93q0-1.1-.43-1.58-.44-.5-1.34-.5-1.09 0-1.73.66a2.5 2.5 0 0 0-.63 1.77V41zm13 3.58q-1.06 0-1.93-.25a5 5 0 0 1-1.59-.79l.39-1.07q.5.33.97.55a5 5 0 0 0 2.08.4q1.19 0 1.78-.61.6-.6.6-1.73v-2.26h.15q-.25.92-1.06 1.46-.78.53-1.85.53-1.1 0-1.9-.48-.8-.5-1.25-1.4t-.45-2.12.45-2.13 1.25-1.38a3.6 3.6 0 0 1 1.9-.5q1.07 0 1.85.54.79.52 1.05 1.45l-.15-.14.14-1.7h1.41l-.1.96-.03.95v6.04q0 1.8-.94 2.74t-2.77.94m-.14-4.92q1.1 0 1.76-.76.65-.75.65-2.1t-.65-2.09a2.2 2.2 0 0 0-1.76-.73 2.3 2.3 0 0 0-1.8.73q-.65.75-.65 2.1t.66 2.1 1.79.75m13.23 1.48q-.98 0-1.82-.25a4 4 0 0 1-1.38-.74l.47-1a4.6 4.6 0 0 0 2.76.9q.92 0 1.38-.33.48-.33.48-.9 0-.44-.3-.72t-.96-.4l-1.52-.3a3 3 0 0 1-1.56-.77 2 2 0 0 1-.5-1.39q0-.7.38-1.25.38-.56 1.08-.86a5 5 0 0 1 3.31-.06q.78.25 1.27.75l-.48.97q-.5-.43-1.12-.65-.6-.24-1.25-.24-.92 0-1.37.36t-.45.93q0 .43.27.72.27.27.88.42l1.52.3q1.06.23 1.62.74.54.52.54 1.36 0 .75-.42 1.3-.4.54-1.13.83t-1.7.28m8.7 0q-1.2 0-2.09-.5a3.6 3.6 0 0 1-1.37-1.45 5 5 0 0 1-.48-2.27q0-1.3.5-2.2.48-.94 1.37-1.42.87-.5 2.06-.5.78 0 1.52.28.75.26 1.2.75l-.5 1.03q-.45-.45-1.02-.66a3 3 0 0 0-1.1-.22q-1.2 0-1.86.76-.67.75-.67 2.2t.67 2.24 1.86.78a3 3 0 0 0 2.13-.86l.5 1q-.5.52-1.24.79a5 5 0 0 1-1.49.25m7.5 0q-1.06 0-1.86-.5a3.3 3.3 0 0 1-1.25-1.43 5 5 0 0 1-.44-2.24q0-1.3.44-2.23.45-.94 1.25-1.44t1.86-.5 1.85.55q.8.53 1.06 1.46h-.2l.18-1.86h1.41l-.1.96-.03.95V41H448v-1.84h.17q-.25.91-1.05 1.46-.78.52-1.84.52m.33-1.15q1.1 0 1.75-.77.65-.76.65-2.25 0-1.5-.65-2.24a2.2 2.2 0 0 0-1.75-.75q-1.08 0-1.76.75-.65.75-.65 2.24t.65 2.25a2.2 2.2 0 0 0 1.76.77M451.9 41V29.22h1.46V41zm7.56.14q-1.93 0-3.04-1.1a4 4 0 0 1-1.1-3.04q0-1.28.47-2.2a3.6 3.6 0 0 1 1.36-1.46 4 4 0 0 1 2.02-.53q1.1 0 1.87.48.76.45 1.17 1.33.4.86.4 2.04v.48h-6.16v-.86h5.17l-.27.2a3 3 0 0 0-.56-1.93q-.55-.69-1.62-.69-1.17 0-1.8.82a3.4 3.4 0 0 0-.65 2.2v.14q0 1.47.72 2.22.75.75 2.03.75.72 0 1.35-.2.62-.2 1.2-.7l.48 1.01q-.55.5-1.36.77-.8.27-1.68.27"/><mask id="r" fill="#fff"><path d="M296 70h196v60H296z"/></mask><path fill="#7dc4ee" d="M296 70h196v60H296z"/><path fill="#2a2a2a" d="M492 130v-1H296v2h196z" mask="url(#r)"/><rect width="40" height="42" x="308" y="79" fill="#fff" rx="4"/><path fill="#2a2a2a" d="m317.6 106 4.98-11.28h1.16l5.05 11.28h-1.37l-1.41-3.22.59.34h-6.9l.64-.34-1.37 3.22zm5.54-9.76-2.59 6.08-.38-.29h5.95l-.29.29-2.65-6.08zm10.23 9.15v-3.49h-3.44v-.99h3.44v-3.4h1.03v3.4h3.44v1h-3.44v3.48z"/><mask id="s" fill="#fff"><path d="M296 130h196v60H296z"/></mask><path fill="#238cc9" d="M296 130h196v60H296z"/><path fill="#2a2a2a" d="M492 190v-1H296v2h196z" mask="url(#s)"/><rect width="40" height="42" x="308" y="139" fill="#fff" rx="4"/><path fill="#2a2a2a" d="m322.4 166 4.98-11.28h1.15L333.6 166h-1.38l-1.4-3.22.59.34h-6.9l.64-.34-1.37 3.22zm5.54-9.76-2.6 6.08-.37-.29h5.95l-.3.29-2.65-6.08z"/><mask id="t" fill="#fff"><path d="M296 190h196v60H296z"/></mask><path fill="#24bd1c" d="M296 190h196v60H296z"/><path fill="#2a2a2a" d="M492 250v-1H296v2h196z" mask="url(#t)"/><rect width="40" height="42" x="308" y="199" fill="#fff" rx="4"/><path fill="#2a2a2a" d="M323.97 226v-11.28h4.51q1.8 0 2.77.77.98.76.98 2.17 0 1.06-.64 1.76-.63.7-1.75.93v-.22q1.26.14 1.96.86.7.7.71 1.9 0 1.5-1 2.31-.99.8-2.82.8zm1.3-1.07h3.3q1.2 0 1.91-.47.72-.48.72-1.58 0-1.13-.72-1.58a3.4 3.4 0 0 0-1.92-.48h-3.3zm0-5.17h3.02q1.31 0 1.97-.51t.66-1.47q0-.99-.66-1.5-.66-.5-1.97-.5h-3.02z"/><mask id="u" fill="#fff"><path d="M296 250h196v60H296z"/></mask><path fill="#a3d422" d="M296 250h196v60H296z"/><path fill="#2a2a2a" d="M492 310v-1H296v2h196z" mask="url(#u)"/><rect width="40" height="42" x="308" y="259" fill="#fff" rx="4"/><path fill="#2a2a2a" d="M328.85 286.14a5.6 5.6 0 0 1-2.88-.7 4.7 4.7 0 0 1-1.82-2 7 7 0 0 1-.63-3.09q0-1.8.63-3.07a4.7 4.7 0 0 1 1.82-2q1.2-.7 2.88-.7 1.2 0 2.14.36.95.37 1.65 1.08l-.5 1.05a5 5 0 0 0-1.51-.97 5 5 0 0 0-1.76-.32q-1.94 0-2.95 1.2-1 1.2-1 3.37t1 3.4q1.02 1.2 2.95 1.2 1 0 1.76-.31.75-.32 1.52-1l.5 1.06a5 5 0 0 1-3.8 1.44"/><mask id="v" fill="#fff"><path d="M296 310h196v60H296z"/></mask><path fill="#fca928" d="M296 310h196v60H296z"/><path fill="#2a2a2a" d="M492 370v-1H296v2h196z" mask="url(#v)"/><rect width="40" height="42" x="308" y="319" fill="#fff" rx="4"/><path fill="#2a2a2a" d="M323.43 346v-11.28h3.75q1.87 0 3.16.66a4.4 4.4 0 0 1 1.97 1.9q.67 1.25.67 3.07 0 1.8-.67 3.07a4.5 4.5 0 0 1-1.97 1.92q-1.3.66-3.16.66zm1.33-1.14h2.32q2.31 0 3.42-1.12 1.12-1.12 1.12-3.39 0-2.26-1.12-3.39-1.11-1.12-3.42-1.12h-2.32z"/><mask id="w" fill="#fff"><path d="M296 370h196v60H296z"/></mask><path fill="#fa6f1e" d="M296 370h196v60H296z"/><path fill="#2a2a2a" d="M492 430v-1H296v2h196z" mask="url(#w)"/><rect width="40" height="42" x="308" y="379" fill="#fff" rx="4"/><path fill="#2a2a2a" d="M324.7 406v-11.28h7.2v1.09H326v3.92h5.55v1.1H326v4.07h5.9v1.1z"/><mask id="x" fill="#fff"><path d="M296 430h196v60H296z"/></mask><path fill="#e1322f" d="M296 430h196v60H296z"/><path fill="#2a2a2a" d="M492 490v-1H296v2h196z" mask="url(#x)"/><rect width="40" height="42" x="308" y="439" fill="#fff" rx="4"/><path fill="#2a2a2a" d="M324.92 466v-11.28h7.04v1.09h-5.72v3.95h5.36v1.09h-5.36V466z"/></g><path fill="#2a2a2a" d="M492 0h-1v490h2V0z" mask="url(#y)"/><g clip-path="url(#z)"><mask id="A" fill="#fff"><path d="M492 0h100v70H492z"/></mask><path fill="#2a2a2a" d="M592 70v-1H492v2h100z" mask="url(#A)"/><path fill="#1a1a1a" d="m514.53 28-3.95-11.28h1.56l3.35 9.95h-.58l3.55-9.95h1.17l3.33 9.95h-.51l3.45-9.95h1.48L523.39 28h-1.3l-3.24-9.52h.33L515.81 28zm14.58 0v-8.05h1.45V28zm-.13-9.8v-1.58h1.73v1.57zM533 28v-6.14a14 14 0 0 0-.13-1.9h1.4l.17 1.72h-.2q.38-.9 1.14-1.4a3.3 3.3 0 0 1 1.8-.47q1.41 0 2.14.78.72.77.72 2.4V28h-1.46v-4.93q0-1.1-.43-1.58-.43-.5-1.35-.5-1.09 0-1.72.66a2.5 2.5 0 0 0-.63 1.77V28zm12.5.14q-1.06 0-1.87-.5a3.3 3.3 0 0 1-1.24-1.43 5 5 0 0 1-.45-2.24q0-1.3.45-2.23.44-.94 1.25-1.44.8-.5 1.85-.5 1.06 0 1.84.54.8.52 1.07 1.45h-.19v-5.57h1.46V28h-1.44v-1.87h.17a2.6 2.6 0 0 1-1.05 1.49q-.79.52-1.86.52m.33-1.15q1.08 0 1.74-.77.67-.76.67-2.25 0-1.5-.67-2.24a2.2 2.2 0 0 0-1.74-.75q-1.1 0-1.76.75t-.66 2.24.66 2.25 1.76.77m9.67 1.15q-1.19 0-2.05-.5a3.5 3.5 0 0 1-1.34-1.43 5 5 0 0 1-.48-2.24q0-1.3.48-2.21.48-.94 1.34-1.44a4 4 0 0 1 2.05-.51q1.18 0 2.05.51.87.5 1.34 1.44t.48 2.2q0 1.3-.48 2.25-.46.93-1.34 1.44-.87.5-2.05.5m0-1.15q1.08 0 1.74-.77.66-.76.66-2.25 0-1.5-.66-2.24a2.2 2.2 0 0 0-1.74-.75q-1.1 0-1.76.75-.64.75-.64 2.24 0 1.48.64 2.25a2.2 2.2 0 0 0 1.76.77m7.88 1.01-3.01-8.05h1.52l2.43 6.9h-.42l2.5-6.9h1.18l2.48 6.9h-.4l2.45-6.9h1.46L570.54 28h-1.37l-2.56-7h.7l-2.54 7zm-44.76 26V42.72h4.67q1.8 0 2.78.85 1 .84 1 2.37 0 1-.45 1.7-.45.71-1.27 1.08-.8.37-1.87.37l.27-.23h.39q.66 0 1.17.34.51.32.84 1.06l1.6 3.74h-1.64l-1.56-3.71q-.26-.69-.8-.9-.5-.2-1.3-.2h-2.34V54zm1.49-5.97h2.96q1.23 0 1.87-.53.65-.52.65-1.53 0-.99-.65-1.5-.64-.53-1.87-.53h-2.96zm12.5 6.11q-1.05 0-1.86-.5a3.3 3.3 0 0 1-1.25-1.43 5 5 0 0 1-.44-2.24q0-1.3.44-2.23.45-.94 1.25-1.44t1.86-.5 1.85.55q.8.53 1.06 1.46h-.2l.18-1.86h1.41l-.1.96-.03.95V54h-1.45v-1.84h.17q-.25.91-1.05 1.46-.78.52-1.84.52m.33-1.15q1.1 0 1.75-.77.65-.76.65-2.25 0-1.5-.65-2.24a2.2 2.2 0 0 0-1.75-.75q-1.08 0-1.76.75-.65.75-.65 2.24t.65 2.25a2.2 2.2 0 0 0 1.76.77m9.3 1.15q-1.28 0-1.93-.68-.63-.7-.64-2.12v-4.27h-1.57v-1.12h1.57V43.8l1.46-.4v2.56h2.27v1.12h-2.27v4.15q0 .92.32 1.32.33.39.96.39.32 0 .54-.05l.43-.14v1.2q-.24.09-.56.14-.3.06-.59.06m2.69-.14v-8.05h1.45V54zm-.13-9.8v-1.58h1.73v1.57zm4.02 9.8v-6.14a14 14 0 0 0-.13-1.9h1.4l.17 1.72h-.2q.38-.9 1.14-1.4.77-.47 1.8-.47 1.41 0 2.14.78.72.77.72 2.4v5h-1.46v-4.93q0-1.1-.43-1.58-.44-.5-1.34-.5-1.09 0-1.73.66a2.5 2.5 0 0 0-.63 1.77V54zm13 3.58q-1.06 0-1.93-.25a5 5 0 0 1-1.59-.79l.39-1.07q.5.33.97.55a5 5 0 0 0 2.08.4q1.19 0 1.78-.61.6-.6.6-1.73v-2.26h.15q-.25.92-1.05 1.46t-1.86.53q-1.1 0-1.9-.48-.8-.5-1.25-1.4t-.45-2.12.45-2.13 1.25-1.38a3.6 3.6 0 0 1 1.9-.5q1.07 0 1.86.54.78.52 1.03 1.45l-.14-.14.14-1.7h1.41l-.1.96-.02.95v6.04q0 1.8-.95 2.74-.93.94-2.77.94m-.14-4.92q1.1 0 1.76-.76.66-.75.65-2.1 0-1.35-.65-2.09a2.2 2.2 0 0 0-1.76-.73q-1.12 0-1.8.73-.65.75-.65 2.1t.66 2.1 1.79.75"/><mask id="B" fill="#fff"><path d="M492 70h100v420H492z"/></mask><path fill="#ffefef" d="M492 70h100v420H492z"/><path fill="#2a2a2a" d="M592 490v-1H492v2h100z" mask="url(#B)"/><path fill="#2a2a2a" d="m533.72 288.5 6.9-15.51h1.97l7.01 15.51h-2.35l-1.91-4.4.96.62h-9.39l1.03-.62-1.91 4.4zm7.85-13-3.34 7.9-.53-.51h7.81l-.44.5-3.4-7.9z"/></g></g><rect width="591" height="489" x=".5" y=".5" stroke="#2a2a2a" rx="7.5"/><defs><clipPath id="a"><rect width="592" height="490" fill="#fff" rx="8"/></clipPath><clipPath id="b"><path fill="#fff" d="M0 0h196v490H0z"/></clipPath><clipPath id="l"><path fill="#fff" d="M196 0h100v490H196z"/></clipPath><clipPath id="p"><path fill="#fff" d="M296 0h196v490H296z"/></clipPath><clipPath id="z"><path fill="#fff" d="M492 0h100v490H492z"/></clipPath></defs></svg>