<svg xmlns="http://www.w3.org/2000/svg" width="592" height="262" fill="none" viewBox="0 0 592 262"><g clip-path="url(#a)"><g clip-path="url(#b)"><mask id="d" fill="#fff"><path d="M0 0h592v70H0z"/></mask><mask id="c" fill="#fff"><path d="M0 0h512v70H0z"/></mask><path fill="#2a2a2a" d="M512 0h-1v70h2V0z" mask="url(#c)"/><path fill="#1a1a1a" d="M13.38 28V16.72h4.59q1.82 0 2.8.77t.97 2.16q.01 1.05-.64 1.76a3 3 0 0 1-1.7.94v-.24q1.23.15 1.93.87t.7 1.9q0 1.5-1 2.32-1.02.8-2.85.8zm1.44-1.18h3.21q1.2 0 1.86-.45.69-.47.69-1.52 0-1.07-.7-1.52a3.3 3.3 0 0 0-1.85-.45h-3.21zm0-5.12h2.94q1.26 0 1.89-.48.62-.49.62-1.43t-.62-1.4q-.63-.5-1.89-.5h-2.94zM24.3 28V16.72h7.13v1.22H25.8v3.77h5.28v1.22H25.8V28zm9.04 0V16.72h4.68q1.8 0 2.78.85 1 .84 1 2.37 0 1-.46 1.7-.45.71-1.26 1.08-.8.37-1.87.37l.27-.23h.38q.66 0 1.17.34.52.32.85 1.06l1.6 3.74h-1.65l-1.55-3.71q-.27-.69-.8-.9-.5-.2-1.3-.2h-2.35V28zm1.5-5.97h2.95q1.24 0 1.87-.53.66-.53.66-1.53 0-.99-.66-1.5-.64-.54-1.87-.53h-2.96zm14.53 6.11q-1.7 0-2.91-.7a4.6 4.6 0 0 1-1.84-2 7 7 0 0 1-.64-3.09q-.01-1.77.64-3.07a4.6 4.6 0 0 1 1.84-2q1.21-.7 2.9-.7 1.23 0 2.17.36.95.36 1.65 1.04l-.55 1.2a4.5 4.5 0 0 0-3.23-1.26q-1.87 0-2.86 1.15-1 1.15-1 3.28t1 3.3q.99 1.15 2.86 1.15.98 0 1.71-.29.75-.3 1.52-.97l.55 1.18q-.7.69-1.67 1.06-.94.36-2.14.36m10.2-.14V16.72h4.67q1.8 0 2.78.85 1 .84 1 2.37 0 1-.46 1.7-.45.71-1.26 1.08-.8.37-1.87.37l.27-.23h.38q.66 0 1.17.34.52.32.85 1.06L68.7 28h-1.65l-1.55-3.71q-.27-.69-.8-.9-.5-.2-1.3-.2h-2.35V28zm1.48-5.97h2.96q1.23 0 1.87-.53.66-.53.66-1.53 0-.99-.66-1.5-.64-.54-1.87-.53h-2.96zm12.5 6.11q-1.05 0-1.85-.5a3.3 3.3 0 0 1-1.25-1.43 5 5 0 0 1-.45-2.24q0-1.3.45-2.23.44-.94 1.25-1.44.8-.5 1.85-.5 1.08 0 1.86.55.8.53 1.06 1.46h-.2l.18-1.86h1.4l-.09.96-.03.95V28h-1.46v-1.84h.18q-.25.91-1.06 1.46-.78.52-1.84.52M73.9 27q1.08 0 1.74-.77.66-.76.66-2.25 0-1.5-.66-2.24a2.2 2.2 0 0 0-1.74-.75q-1.09 0-1.76.75t-.66 2.24q0 1.48.66 2.25a2.2 2.2 0 0 0 1.76.77m9.29 1.15q-1.27 0-1.92-.68-.64-.7-.64-2.12v-4.27h-1.57v-1.12h1.57V17.8l1.45-.4v2.56h2.28v1.12h-2.28v4.15q0 .92.32 1.32.34.39.96.39.33 0 .55-.05l.43-.14v1.2q-.24.09-.56.14-.3.06-.6.06m2.7-.14v-8.05h1.45V28zm-.14-9.8v-1.58h1.73v1.57zm4.02 9.8v-6.14a14 14 0 0 0-.13-1.9h1.41l.16 1.72h-.19q.37-.9 1.14-1.4.75-.47 1.79-.47 1.42 0 2.14.78.72.77.72 2.4v5h-1.45v-4.93q0-1.1-.44-1.58-.42-.5-1.34-.5-1.08 0-1.73.66a2.5 2.5 0 0 0-.62 1.77V28zm13 3.58a7 7 0 0 1-1.93-.25 5 5 0 0 1-1.58-.79l.38-1.07a6 6 0 0 0 .98.55q.48.2 1 .3.51.1 1.08.1 1.18 0 1.78-.61.59-.6.59-1.73v-2.26h.16q-.26.92-1.06 1.46-.78.53-1.85.53-1.1 0-1.9-.48-.81-.5-1.26-1.4t-.45-2.12.45-2.13 1.25-1.38a3.6 3.6 0 0 1 1.9-.5q1.08 0 1.86.54.78.52 1.04 1.45l-.14-.14.14-1.7h1.4l-.09.96-.03.95v6.04q0 1.8-.94 2.74t-2.77.94m-.14-4.92q1.11 0 1.77-.76.65-.75.65-2.1t-.66-2.09a2.2 2.2 0 0 0-1.75-.73 2.3 2.3 0 0 0-1.8.73q-.66.75-.65 2.1 0 1.35.65 2.1.68.75 1.8.75m10.15-4.3v-1.1h7.9v1.1zm0 3.18v-1.08h7.9v1.08zM13.36 54v-1.1l3.94-4.13q.76-.79 1.13-1.5.39-.73.39-1.5 0-.93-.6-1.42-.57-.5-1.7-.5-.86 0-1.62.33-.76.3-1.44.94l-.53-1.14q.65-.63 1.65-1.02a6 6 0 0 1 2.1-.38q1.74 0 2.68.8.94.78.94 2.25 0 1.08-.52 2.05a9 9 0 0 1-1.52 1.98l-3.44 3.5v-.42h5.95V54zm10.22 0v-1.26h2.64v-8.76h.75l-3.15 1.96v-1.46l2.81-1.76h1.08v10.02h2.48V54zm12.4.14q-1.94 0-3.02-.83A2.8 2.8 0 0 1 31.9 51q0-1.17.72-1.93a3 3 0 0 1 1.9-.95v.26a2.74 2.74 0 0 1-2.34-2.78q0-1.41 1.02-2.21t2.8-.8 2.8.8a2.7 2.7 0 0 1 1.02 2.2q0 1.06-.6 1.83t-1.65.96v-.26q1.16.15 1.84.95.68.76.68 1.93 0 1.5-1.07 2.32a4.8 4.8 0 0 1-3.02.83m0-1.2q1.37 0 2.02-.5.68-.52.68-1.53 0-1.02-.68-1.52-.65-.5-2.01-.5t-2.02.5-.67 1.52q0 1 .67 1.52.67.51 2.02.51m0-5.26q1.18 0 1.78-.51.63-.53.63-1.46 0-.9-.63-1.42-.6-.51-1.77-.51-1.15 0-1.78.5-.62.52-.62 1.43 0 .92.62 1.46.62.51 1.78.51M41.77 54v-1.78h1.77V54zm7.92.14a3.8 3.8 0 0 1-3.18-1.45q-1.12-1.46-1.12-4.07 0-1.95.56-3.3.58-1.34 1.63-2.04t2.53-.7q.9 0 1.8.35.89.35 1.48.97l-.54 1.16q-.6-.6-1.32-.9a4 4 0 0 0-1.44-.3q-1.57 0-2.43 1.13-.83 1.12-.83 3.35v1.42h-.16q.11-.89.54-1.54.45-.63 1.14-.99.7-.35 1.58-.35 1.01 0 1.8.46.78.46 1.23 1.27.45.8.45 1.85 0 1.06-.48 1.9a3.5 3.5 0 0 1-3.24 1.78m-.08-1.23q.7 0 1.24-.3t.83-.85.3-1.25-.3-1.25-.83-.84q-.54-.3-1.24-.3t-1.24.3-.84.84-.3 1.25.3 1.25.84.85 1.24.3m9.3 4.67q-1.05 0-1.93-.25a5 5 0 0 1-1.58-.79l.38-1.07a6 6 0 0 0 .98.55 5 5 0 0 0 2.08.4q1.18 0 1.78-.61.59-.6.59-1.73v-2.26h.16q-.26.92-1.06 1.46-.78.53-1.85.53-1.1 0-1.9-.48-.81-.5-1.26-1.4t-.44-2.12.44-2.13 1.25-1.38a3.6 3.6 0 0 1 1.9-.5q1.08 0 1.86.54.78.52 1.04 1.45l-.14-.14.14-1.7h1.4l-.09.96-.03.95v6.04q0 1.8-.94 2.74t-2.77.94m-.13-4.92q1.1 0 1.76-.76.65-.75.65-2.1t-.65-2.09a2.2 2.2 0 0 0-1.76-.73 2.3 2.3 0 0 0-1.8.73q-.65.75-.65 2.1t.65 2.1 1.8.75m7.1 4.34-1.83-4.84h1l1.43 4.03h-.25l1.47-4.03h.75l1.46 4.03h-.24l1.43-4.03h.97L70.22 57h-.89l-1.51-4.1h.45l-1.5 4.1zm7.37 0v-4.84h.97V57zm-.07-5.85v-1h1.12v1zM75.92 57v-3.68q0-.27-.03-.56l-.05-.6h.94l.1 1.02h-.12q.21-.54.68-.82.45-.28 1.06-.28.86 0 1.29.47t.44 1.45v3h-.97v-2.94q0-.64-.26-.92-.24-.3-.77-.29-.6 0-.97.39a1.4 1.4 0 0 0-.37 1.01V57zm7.83.09q-.64 0-1.12-.3t-.75-.87a3 3 0 0 1-.26-1.34q0-.78.26-1.34a2 2 0 0 1 1.87-1.16q.63 0 1.1.31.48.3.63.85h-.12v-3.3h.97V57h-.96v-1.1h.12q-.16.55-.63.87-.48.32-1.1.32m.24-.76q.63 0 1.01-.44.39-.45.38-1.3 0-.88-.38-1.3-.4-.45-1-.45-.64 0-1.03.44-.37.44-.37 1.3t.37 1.3q.39.45 1.02.45m6.12.76q-.72 0-1.25-.3t-.81-.87q-.3-.56-.3-1.34t.3-1.33q.28-.57.81-.87t1.25-.3 1.25.3a2 2 0 0 1 .82.87q.3.55.3 1.33t-.3 1.34q-.28.56-.82.87t-1.25.3m0-.76q.64 0 1-.44.38-.45.38-1.3 0-.88-.37-1.3-.38-.45-1-.45-.64 0-1 .44-.38.44-.38 1.3t.36 1.3q.38.45 1.01.45m5.02.67-1.83-4.84h1l1.44 4.03h-.25l1.47-4.03h.75l1.46 4.03h-.24l1.43-4.03h.97L99.48 57h-.88l-1.52-4.1h.45l-1.5 4.1zm10.65-6.8v-1.18h4.62v1.19zm15.14 3.94a3.8 3.8 0 0 1-3.18-1.45q-1.12-1.46-1.12-4.07 0-1.95.56-3.3.58-1.34 1.63-2.04 1.06-.7 2.53-.7.9 0 1.79.35.9.35 1.49.97l-.55 1.16q-.6-.6-1.3-.9a4 4 0 0 0-1.45-.3q-1.57 0-2.43 1.13-.83 1.12-.83 3.35v1.42h-.16q.1-.89.54-1.54.45-.63 1.14-.99.7-.35 1.58-.35 1 0 1.8.46.78.46 1.23 1.27.45.8.44 1.85 0 1.06-.48 1.9a3.5 3.5 0 0 1-3.23 1.78m-.08-1.23q.7 0 1.23-.3.55-.3.84-.85.3-.54.3-1.25 0-.7-.3-1.25-.3-.54-.84-.84-.52-.3-1.23-.3-.7 0-1.25.3-.53.3-.83.84-.3.55-.3 1.25t.3 1.25.83.85q.55.3 1.25.3m9.3 1.23q-1.94 0-3.02-.83a2.8 2.8 0 0 1-1.07-2.32q0-1.17.72-1.93a3 3 0 0 1 1.9-.95v.26a2.74 2.74 0 0 1-2.34-2.78q0-1.41 1.02-2.21t2.8-.8 2.8.8a2.7 2.7 0 0 1 1.02 2.2q0 1.06-.6 1.83t-1.66.96v-.26q1.17.15 1.84.95.7.76.7 1.93 0 1.5-1.08 2.32a4.8 4.8 0 0 1-3.02.83m0-1.2q1.37 0 2.02-.5.68-.52.68-1.53 0-1.02-.68-1.52-.64-.5-2.01-.5-1.35 0-2.02.5t-.67 1.52q0 1 .67 1.52.67.51 2.02.51m0-5.26q1.18 0 1.78-.51.63-.53.63-1.46 0-.9-.63-1.42-.6-.51-1.77-.51-1.15 0-1.78.5-.62.52-.62 1.43 0 .92.62 1.46.62.51 1.78.51m5.78 6.32v-1.78h1.77V54zm7.75.14a7 7 0 0 1-2.79-.6q-.62-.3-1.09-.74l.53-1.15q.8.62 1.6.93.82.28 1.72.28 1.18 0 1.85-.62.67-.63.67-1.66 0-1.08-.64-1.73a2.3 2.3 0 0 0-1.77-.67q-.79 0-1.43.32-.62.3-1.1.97h-1.06v-6.75h6.77v1.26h-5.33v4.28h-.38q.44-.64 1.17-1 .75-.35 1.68-.35 1.08 0 1.87.45.8.45 1.23 1.26.45.8.45 1.88t-.48 1.9-1.38 1.28q-.87.46-2.1.46m8.91-.14 3.65-4.51v.72l-3.44-4.26h1.75l2.5 3.22h-.52l2.51-3.22h1.73l-3.4 4.23v-.66l3.6 4.48h-1.75l-2.69-3.44h.53L154.33 54zm16.35 2.88q-.7-1.18-1.13-2.34a13 13 0 0 1-.84-4.75q0-1.28.2-2.45.2-1.16.64-2.3t1.13-2.32h1.19q-.82 1.8-1.24 3.57a15 15 0 0 0 0 7.02q.42 1.76 1.24 3.57zm7.5-2.74q-2.32 0-3.46-1.16-1.12-1.2-1.12-3.48v-6.78h1.5v6.74q0 1.68.74 2.52t2.33.85q1.55 0 2.3-.85.8-.84.79-2.52v-6.74h1.47v6.78q0 2.3-1.15 3.48-1.15 1.16-3.4 1.16m12.1 2.86-1.83-4.84h1l1.43 4.03h-.25l1.47-4.03h.75l1.46 4.03h-.24l1.43-4.03h.97L192.88 57H192l-1.52-4.1h.45l-1.5 4.1zm7.37 0v-4.84h.97V57zm-.08-5.85v-1h1.13v1zm2.76 5.85v-3.68q0-.27-.03-.56l-.05-.6h.94l.1 1.02h-.12q.21-.54.68-.82.45-.28 1.06-.28.86 0 1.29.47t.44 1.45v3h-.97v-2.94q0-.64-.26-.92-.24-.3-.77-.29-.6 0-.97.39a1.4 1.4 0 0 0-.37 1.01V57zm7.83.09q-.63 0-1.12-.3-.48-.3-.75-.87a3 3 0 0 1-.26-1.34q0-.78.26-1.34a2 2 0 0 1 1.87-1.16q.62 0 1.1.31.48.3.63.85h-.11v-3.3h.96V57h-.96v-1.1h.12q-.16.55-.63.87-.48.32-1.1.32m.24-.76q.62 0 1.01-.44.39-.45.38-1.3 0-.88-.38-1.3-.4-.45-1-.45-.64 0-1.03.44-.37.44-.37 1.3t.37 1.3q.39.45 1.02.45m6.12.76q-.72 0-1.25-.3t-.81-.87q-.3-.56-.3-1.34t.3-1.33q.29-.57.81-.87.53-.3 1.25-.3t1.25.3a2 2 0 0 1 .82.87q.3.55.3 1.33t-.3 1.34q-.28.56-.82.87t-1.25.3m0-.76q.63 0 1-.44.38-.45.38-1.3 0-.88-.37-1.3-.38-.45-1-.45-.64 0-1 .44-.38.44-.38 1.3t.36 1.3q.38.45 1.01.45m5.02.67L216 52.16h1l1.44 4.03h-.25l1.47-4.03h.75l1.46 4.03h-.24l1.43-4.03h.97L222.14 57h-.88l-1.52-4.1h.45l-1.5 4.1zm8.94.09q-.6 0-1.11-.16-.51-.15-.84-.43l.3-.66q.35.27.78.4.43.15.88.14.53 0 .8-.19a.6.6 0 0 0 .27-.51q0-.25-.17-.4t-.55-.24l-.92-.18a2 2 0 0 1-.93-.46q-.32-.33-.32-.84 0-.42.23-.76t.67-.53 1.03-.2q.54 0 1 .16.45.15.77.44l-.31.64q-.3-.25-.67-.38a2 2 0 0 0-.76-.14q-.54 0-.8.2a.6.6 0 0 0-.26.53q0 .24.16.4.15.16.5.25l.93.18a2 2 0 0 1 .97.44q.33.3.33.83 0 .45-.25.78-.25.35-.69.51-.44.18-1.04.18m9.79-3.7v-3.44h-3.4v-1.09h3.4V45.5h1.12v3.36h3.4v1.1h-3.4v3.43zm10.95.61V42.72h7.3v1.22h-5.86v3.72h5.49v1.22h-5.5v3.9h5.86V54zm9.65 0v-6.93h-1.57v-1.12h1.96l-.4.37v-1.3q0-1.4.7-2.12.72-.75 2.06-.74.32 0 .67.05.38.04.6.16v1.18q-.18-.08-.47-.13a3 3 0 0 0-.56-.04q-.48 0-.84.19-.34.2-.52.57t-.18.98v1.14l-.22-.3h2.44v1.11h-2.22V54zm5.23 0v-6.93h-1.57v-1.12h1.97l-.4.37v-1.3q0-1.4.7-2.12.71-.75 2.05-.74.32 0 .67.05.37.04.61.16v1.18q-.2-.08-.48-.13a3 3 0 0 0-.56-.04q-.48 0-.83.19a1.2 1.2 0 0 0-.53.57q-.18.37-.17.98v1.14l-.23-.3h2.45v1.11h-2.22V54zm8.51.14q-1.93 0-3.04-1.1a4 4 0 0 1-1.1-3.04q0-1.28.48-2.2a3.6 3.6 0 0 1 1.36-1.46 4 4 0 0 1 2.01-.53q1.1 0 1.88.48.76.45 1.16 1.33.4.86.4 2.04v.48h-6.16v-.86h5.17l-.27.2q0-1.23-.56-1.93-.54-.69-1.62-.69-1.16 0-1.8.82a3.4 3.4 0 0 0-.64 2.2v.14q0 1.47.72 2.22.73.75 2.03.75.72 0 1.34-.2t1.2-.7l.48 1.01q-.54.5-1.36.77-.8.27-1.68.27m8.51 0q-1.2 0-2.08-.5a3.6 3.6 0 0 1-1.37-1.45 5 5 0 0 1-.48-2.27q0-1.3.5-2.2.48-.94 1.37-1.42.88-.5 2.06-.5.79 0 1.52.28.75.26 1.2.75l-.5 1.03q-.45-.45-1.02-.66a3 3 0 0 0-1.1-.22q-1.18 0-1.86.76-.67.75-.67 2.2t.67 2.24 1.86.78a3 3 0 0 0 2.13-.86l.5 1q-.5.52-1.24.79a5 5 0 0 1-1.49.25m7.52 0q-1.26 0-1.92-.68-.64-.7-.64-2.12v-4.27h-1.56v-1.12h1.56V43.8l1.46-.4v2.56h2.27v1.12h-2.27v4.15q0 .92.32 1.32.33.39.96.39.32 0 .54-.05l.44-.14v1.2q-.24.09-.56.14-.3.06-.6.06m2.7-.14v-8.05h1.46V54zm-.13-9.8v-1.58h1.73v1.57zm6.39 9.8-3.44-8.05h1.57l2.8 6.91h-.45l2.85-6.9h1.48L297.21 54zm9.72.14q-1.93 0-3.04-1.1a4 4 0 0 1-1.1-3.04q0-1.28.47-2.2.5-.95 1.36-1.46a4 4 0 0 1 2.02-.53q1.1 0 1.87.48.76.45 1.17 1.33.4.86.4 2.04v.48h-6.16v-.86h5.17l-.28.2a3 3 0 0 0-.56-1.93q-.54-.69-1.61-.69-1.17 0-1.81.82a3.4 3.4 0 0 0-.64 2.2v.14q0 1.47.72 2.22.74.75 2.03.75.72 0 1.35-.2.62-.2 1.2-.7l.48 1.01q-.55.5-1.36.77t-1.68.27m5.21-.14V42.72h1.49v10h5.61V54zm10.38 3.09a4 4 0 0 1-1.68-.37 3 3 0 0 1-.65-.43l.34-.76q.47.36.94.54.5.17 1.03.17.69 0 1.07-.35.4-.36.4-.95 0-.61-.38-1a1.3 1.3 0 0 0-1.02-.38q-.45 0-.83.19-.36.18-.64.55h-.69v-4.07h4.1v.84H320v2.44h-.25q.25-.37.7-.57t.98-.2q.66 0 1.13.27.48.27.74.75.27.48.27 1.13t-.3 1.15-.83.77q-.54.28-1.28.28m5.95 0q-1.17 0-1.8-.9a4.5 4.5 0 0 1-.63-2.58q0-1.71.63-2.58a2.1 2.1 0 0 1 1.8-.88q1.18 0 1.8.88.63.87.63 2.57t-.64 2.6q-.61.89-1.79.89m0-.84q.75 0 1.1-.64.36-.65.36-2 0-1.38-.37-2-.35-.64-1.09-.64-.73 0-1.1.63a4 4 0 0 0-.36 2q0 1.36.37 2 .37.65 1.09.65m4.78.63h-1.2q.81-1.8 1.23-3.57a15 15 0 0 0 0-7.02 20 20 0 0 0-1.23-3.57h1.2q.69 1.19 1.12 2.34.45 1.13.64 2.3a14 14 0 0 1 0 4.88q-.2 1.17-.64 2.3-.43 1.16-1.12 2.34m4.47-8.53v-1.09h7.9v1.1zm0 3.19v-1.08h7.9v1.08z"/><path fill="#ffefef" d="M512 0h80v70h-80z"/><path fill="#2a2a2a" d="M537.4 43v-1.71h2.6v-7.84h.99l-3.33 1.98v-1.95l2.93-1.76h1.47v9.57h2.43V43zm8.68 0v-2.22h2.24V43zm4.48 0 5.48-10.27v.72h-5.99v-1.73h7.89v1.54L552.82 43zm12.17.16a5 5 0 0 1-3.34-1.28l.69-1.54q.6.55 1.28.82t1.39.27q1.42 0 2.17-.97.77-.98.77-2.92v-1.2h.2q-.12.8-.55 1.4t-1.09.9q-.63.31-1.44.31a3.4 3.4 0 0 1-1.76-.46q-.75-.47-1.21-1.28a4 4 0 0 1-.44-1.87q0-1.12.49-1.96t1.34-1.32a4 4 0 0 1 1.95-.5q2.14 0 3.3 1.47 1.16 1.46 1.16 4.13 0 1.9-.59 3.25a4.4 4.4 0 0 1-1.68 2.05 5 5 0 0 1-2.64.7m.58-5.84q.6 0 1.04-.26.45-.25.7-.72.26-.48.26-1.08 0-.62-.26-1.1-.25-.45-.7-.71-.45-.27-1.04-.27a2 2 0 0 0-1.74.99q-.25.45-.25 1.09 0 .6.25 1.08.25.47.7.72.44.26 1.04.26"/></g><path fill="#2a2a2a" d="M592 70v-1H0v2h592z" mask="url(#d)"/><g clip-path="url(#e)"><mask id="f" fill="#fff"><path d="M0 70h512v44H0z"/></mask><path fill="#2a2a2a" d="M512 70h-1v44h2V70z" mask="url(#f)"/><path fill="#1a1a1a" d="M18.35 98.14q-1.7 0-2.91-.7a4.6 4.6 0 0 1-1.84-2 7 7 0 0 1-.64-3.09q0-1.77.64-3.07a4.6 4.6 0 0 1 1.84-2q1.22-.7 2.91-.7 1.21 0 2.16.36t1.65 1.04l-.54 1.2a4.5 4.5 0 0 0-3.23-1.26q-1.87 0-2.87 1.15t-1 3.28 1 3.3q1 1.15 2.86 1.15.98 0 1.72-.29.74-.3 1.52-.97l.54 1.18q-.7.69-1.66 1.06-.95.36-2.15.36m5.82-.14V86.22h1.46V98zm3.89 0v-8.05h1.46V98zm-.13-9.8v-1.58h1.73v1.57zm4.02 9.8v-6.14a14 14 0 0 0-.13-1.9h1.41l.16 1.72h-.2a2.7 2.7 0 0 1 2.71-1.87q.99 0 1.63.48.65.46.87 1.47h-.24q.3-.9 1.07-1.42.77-.53 1.8-.53 1.31 0 2 .78.66.77.66 2.4V98h-1.45v-4.93q0-1.1-.39-1.58-.38-.5-1.21-.5a1.9 1.9 0 0 0-1.54.67 2.7 2.7 0 0 0-.56 1.8V98H37.1v-4.93q0-1.1-.39-1.58-.37-.5-1.21-.5a1.9 1.9 0 0 0-1.54.67 2.7 2.7 0 0 0-.54 1.8V98zm17.2.14q-1.06 0-1.86-.5a3.3 3.3 0 0 1-1.25-1.43 5 5 0 0 1-.44-2.24q0-1.3.44-2.23.45-.94 1.25-1.44t1.86-.5 1.85.55q.8.53 1.06 1.46h-.2l.18-1.86h1.41l-.1.96-.03.95V98h-1.45v-1.84h.17q-.26.91-1.05 1.46-.8.52-1.84.52m.33-1.15q1.1 0 1.75-.77.65-.76.65-2.25 0-1.5-.65-2.24a2.2 2.2 0 0 0-1.75-.75q-1.07 0-1.76.75-.65.75-.65 2.24 0 1.48.65 2.25a2.2 2.2 0 0 0 1.76.77m9.3 1.15q-1.28 0-1.93-.68-.64-.7-.64-2.12v-4.27h-1.57v-1.12h1.57V87.8l1.46-.4v2.56h2.27v1.12h-2.27v4.15q0 .92.32 1.32.33.39.96.39.32 0 .54-.05l.43-.14v1.2q-.23.09-.56.14-.3.06-.59.06m6.27 0q-1.92 0-3.04-1.1a4 4 0 0 1-1.1-3.04q0-1.28.48-2.2.5-.96 1.36-1.46a4 4 0 0 1 2.01-.53q1.1 0 1.88.48.76.45 1.16 1.33.4.86.4 2.04v.48h-6.16v-.86h5.17l-.27.2q0-1.23-.56-1.93-.54-.69-1.62-.69-1.16 0-1.8.82a3.4 3.4 0 0 0-.64 2.2v.14q0 1.47.72 2.22.73.75 2.03.75.72 0 1.34-.2t1.2-.7l.48 1.01q-.54.5-1.36.77-.8.27-1.68.27M73.9 98v-.98l5.35-6.32v.37H73.9v-1.12h6.7v.98l-5.38 6.35-.02-.4h5.57V98zm11.98.14q-1.19 0-2.04-.5a3.5 3.5 0 0 1-1.35-1.43 5 5 0 0 1-.48-2.24q0-1.3.48-2.21.48-.94 1.35-1.44a4 4 0 0 1 2.04-.51q1.2 0 2.05.51.89.5 1.35 1.44.48.93.48 2.2 0 1.3-.48 2.25-.47.93-1.35 1.44-.86.5-2.05.5m0-1.15q1.1 0 1.75-.77.66-.76.65-2.25 0-1.5-.65-2.24a2.2 2.2 0 0 0-1.75-.75q-1.1 0-1.76.75-.64.75-.64 2.24 0 1.48.64 2.25a2.2 2.2 0 0 0 1.76.77m5.82 1v-6.14a14 14 0 0 0-.13-1.9h1.41l.16 1.72h-.2q.38-.9 1.14-1.4.77-.47 1.8-.47 1.42 0 2.14.78.72.77.72 2.4V98h-1.46v-4.93q0-1.1-.43-1.58-.43-.5-1.34-.5-1.09 0-1.73.66a2.5 2.5 0 0 0-.62 1.77V98zm13.09.14q-1.92 0-3.04-1.1a4 4 0 0 1-1.1-3.04q0-1.28.47-2.2a3.6 3.6 0 0 1 1.36-1.46 4 4 0 0 1 2.02-.53q1.1 0 1.87.48.77.45 1.17 1.33.4.86.4 2.04v.48h-6.16v-.86h5.17l-.28.2q0-1.23-.56-1.93-.54-.69-1.61-.69-1.17 0-1.81.82a3.4 3.4 0 0 0-.64 2.2v.14q0 1.47.72 2.22.75.75 2.03.75.72 0 1.35-.2.61-.2 1.2-.7l.48 1.01q-.55.5-1.36.77t-1.68.27m9.27-.14v-8.05h1.46V98zm-.13-9.8v-1.58h1.73v1.57zm6.74 9.94q-.98 0-1.82-.25a4 4 0 0 1-1.38-.74l.46-1a4.6 4.6 0 0 0 2.77.9q.91 0 1.38-.33.48-.33.48-.9 0-.44-.3-.72t-.97-.4l-1.52-.3a3 3 0 0 1-1.55-.77 2 2 0 0 1-.51-1.39q0-.7.38-1.25.39-.56 1.1-.86a5 5 0 0 1 3.31-.06q.76.25 1.26.75l-.48.97q-.5-.43-1.12-.65-.6-.24-1.25-.24-.93 0-1.38.36t-.44.93q0 .44.27.72t.88.42l1.52.3q1.07.23 1.61.74.55.52.55 1.36 0 .75-.42 1.3-.4.53-1.13.83-.72.28-1.7.28m5-6.43v-1.76h1.77v1.76zm0 6.29v-1.78h1.77V98z"/><path fill="#ffefef" d="M512 70h80v44h-80z"/><path fill="#2a2a2a" d="M546.94 100.14q-2.28 0-3.4-1.16-1.11-1.17-1.11-3.44v-6.82h1.31v6.75q0 1.74.77 2.63t2.43.88q1.57 0 2.39-.88.81-.9.81-2.63v-6.75h1.31v6.82q0 2.27-1.15 3.44-1.13 1.16-3.36 1.16m7.24-.14V88.72h1.33v5.12h.03l5.4-5.12h1.7l-6.22 5.82.02-.67 6.65 6.13h-1.74l-5.8-5.31h-.04V100z"/></g></g><rect width="591" height="113" x=".5" y=".5" stroke="#2a2a2a" rx="7.5"/><g clip-path="url(#g)"><g clip-path="url(#h)"><mask id="j" fill="#fff"><path d="M0 130h592v44H0z"/></mask><mask id="i" fill="#fff"><path d="M0 130h512v44H0z"/></mask><path fill="#2a2a2a" d="M512 130h-1v44h2v-44z" mask="url(#i)"/><path fill="#1a1a1a" d="M16.08 158v-10.02h-3.9v-1.26h9.32v1.26h-3.92V158zm6.85 0v-11.78h1.46v5.48h-.2q.34-.94 1.13-1.41a3.4 3.4 0 0 1 1.8-.48q1.47 0 2.15.78.7.79.7 2.37V158h-1.45v-4.96q0-1.07-.42-1.55-.41-.5-1.36-.5-1.05 0-1.7.66a2.4 2.4 0 0 0-.65 1.74V158zm13.1.14q-1.93 0-3.05-1.1a4 4 0 0 1-1.1-3.04q0-1.28.48-2.2.5-.96 1.36-1.46a4 4 0 0 1 2.01-.53q1.1 0 1.87.48.77.45 1.17 1.33.4.85.4 2.04v.48h-6.16v-.86h5.17l-.27.2q0-1.24-.56-1.93-.54-.69-1.62-.69-1.17 0-1.8.82a3.4 3.4 0 0 0-.65 2.2v.14q0 1.47.72 2.22.74.75 2.04.75.71 0 1.34-.2t1.2-.7l.48 1.01q-.55.51-1.36.77a5 5 0 0 1-1.68.27m5.03-.14v-6.08a15 15 0 0 0-.11-1.97h1.4l.18 2.02-.24.01q.16-.74.55-1.21.4-.5.94-.72a3 3 0 0 1 1.15-.24l.43.01q.18.02.36.08l-.04 1.3q-.23-.1-.44-.11l-.48-.03q-.7 0-1.22.32-.5.31-.77.84-.25.54-.25 1.14V158zm5.94 0v-6.14a14 14 0 0 0-.13-1.9h1.4l.17 1.72h-.2a2.7 2.7 0 0 1 2.7-1.87q1 0 1.64.48.64.46.87 1.47h-.24q.3-.9 1.07-1.42.75-.54 1.79-.53 1.32 0 2 .78.67.77.67 2.4V158H57.3v-4.93q0-1.1-.39-1.58-.38-.5-1.21-.5a1.9 1.9 0 0 0-1.54.67 2.7 2.7 0 0 0-.56 1.8V158h-1.46v-4.93q0-1.1-.38-1.58-.37-.5-1.22-.5a1.9 1.9 0 0 0-1.53.67 2.7 2.7 0 0 0-.55 1.8V158zm17.2.14q-1.06 0-1.86-.5a3.3 3.3 0 0 1-1.25-1.43 5 5 0 0 1-.45-2.24q0-1.3.45-2.23t1.25-1.44q.8-.5 1.85-.5 1.08 0 1.86.55.8.53 1.06 1.46h-.2l.18-1.86h1.4l-.09.96-.03.95V158H66.9v-1.84h.18q-.25.91-1.06 1.46-.78.52-1.84.52m.33-1.15q1.09 0 1.74-.77.66-.76.66-2.25 0-1.5-.66-2.24a2.2 2.2 0 0 0-1.74-.75q-1.09 0-1.76.75t-.66 2.24.66 2.25a2.2 2.2 0 0 0 1.76.77m6.28 1.01v-11.78h1.46V158zm11.12.14q-1.27 0-1.92-.68-.64-.7-.64-2.12v-4.27H77.8v-1.12h1.57v-2.16l1.45-.4v2.56h2.28v1.12h-2.28v4.15q0 .93.32 1.32.34.39.96.39.33 0 .55-.05l.43-.14v1.2q-.24.09-.56.14-.3.06-.6.06m2.68-.14v-6.08a15 15 0 0 0-.12-1.97h1.41l.18 2.02-.24.01q.16-.74.54-1.21.4-.5.95-.72a3 3 0 0 1 1.15-.24l.43.01q.18.02.35.08l-.03 1.3q-.23-.1-.45-.11l-.48-.03q-.7 0-1.21.32-.5.31-.77.84-.26.54-.26 1.14V158zm8.93.14q-1.05 0-1.86-.5a3.3 3.3 0 0 1-1.25-1.43 5 5 0 0 1-.44-2.24q0-1.3.44-2.23.45-.93 1.25-1.44t1.86-.5 1.85.55q.8.53 1.06 1.46h-.2l.18-1.86h1.41l-.1.96-.03.95V158h-1.45v-1.84h.17q-.25.91-1.05 1.46-.78.52-1.84.52m.33-1.15q1.1 0 1.75-.77.66-.76.65-2.25 0-1.5-.65-2.24a2.2 2.2 0 0 0-1.75-.75q-1.07 0-1.76.75-.65.75-.65 2.24t.65 2.25a2.2 2.2 0 0 0 1.76.77m6.28 1.01v-6.14a14 14 0 0 0-.12-1.9h1.4l.16 1.72h-.19q.38-.9 1.14-1.4.76-.47 1.79-.47 1.42 0 2.14.78.72.77.72 2.4V158h-1.45v-4.93q0-1.1-.43-1.58-.44-.5-1.35-.5-1.08 0-1.73.66a2.5 2.5 0 0 0-.62 1.77V158zm12.14.14q-.97 0-1.82-.25a4 4 0 0 1-1.37-.74l.46-1a4.6 4.6 0 0 0 2.77.9q.9 0 1.37-.33t.48-.9q0-.44-.3-.72t-.96-.4l-1.52-.3a3 3 0 0 1-1.55-.77 2 2 0 0 1-.52-1.39q0-.7.39-1.25.38-.56 1.09-.86a5 5 0 0 1 3.31-.06q.77.25 1.26.75l-.48.97q-.5-.43-1.12-.65-.6-.24-1.25-.24-.92 0-1.37.36t-.45.93q0 .44.27.72.28.27.88.42l1.52.3q1.08.23 1.62.74.54.52.54 1.36 0 .75-.41 1.3-.4.53-1.14.83-.72.28-1.7.28m5.24-.14v-6.14a14 14 0 0 0-.13-1.9h1.4l.17 1.72h-.2a2.7 2.7 0 0 1 2.71-1.87q.99 0 1.63.48.65.46.87 1.47h-.24q.3-.9 1.07-1.42.76-.54 1.8-.53 1.31 0 2 .78.66.77.66 2.4V158h-1.45v-4.93q0-1.1-.39-1.58-.38-.5-1.21-.5a1.9 1.9 0 0 0-1.54.67 2.7 2.7 0 0 0-.56 1.8V158h-1.45v-4.93q0-1.1-.39-1.58-.37-.5-1.22-.5a1.9 1.9 0 0 0-1.53.67 2.7 2.7 0 0 0-.55 1.8V158zm14.12 0v-8.05h1.46V158zm-.12-9.8v-1.58h1.72v1.57zm7.02 9.94q-1.26 0-1.92-.68-.63-.7-.64-2.12v-4.27h-1.57v-1.12H136v-2.16l1.46-.4v2.56h2.27v1.12h-2.27v4.15q0 .93.32 1.32.33.39.96.39.32 0 .54-.05l.43-.14v1.2q-.24.09-.56.14-.3.06-.59.06m5.44 0q-1.26 0-1.92-.68-.64-.7-.64-2.12v-4.27h-1.57v-1.12h1.57v-2.16l1.46-.4v2.56h2.27v1.12h-2.27v4.15q0 .93.32 1.32.33.39.96.39.3 0 .54-.05l.43-.14v1.2q-.24.09-.56.14-.3.06-.59.06m5.77 0q-1.06 0-1.86-.5a3.3 3.3 0 0 1-1.25-1.43 5 5 0 0 1-.44-2.24q0-1.3.44-2.23.45-.93 1.25-1.44t1.86-.5 1.85.55q.8.53 1.06 1.46h-.2l.18-1.86h1.41l-.1.96-.03.95V158h-1.45v-1.84h.17q-.25.91-1.05 1.46-.8.52-1.84.52m.33-1.15q1.09 0 1.75-.77.65-.76.65-2.25 0-1.5-.65-2.24a2.2 2.2 0 0 0-1.75-.75q-1.08 0-1.76.75-.66.75-.65 2.24 0 1.49.65 2.25a2.2 2.2 0 0 0 1.76.77m6.28 1.01v-6.14a14 14 0 0 0-.13-1.9h1.41l.16 1.72h-.19q.37-.9 1.14-1.4a3.3 3.3 0 0 1 1.79-.47q1.42 0 2.14.78.72.77.72 2.4V158h-1.45v-4.93q0-1.1-.44-1.58-.42-.5-1.34-.5-1.08 0-1.73.66a2.5 2.5 0 0 0-.62 1.77V158zm12.88.14q-1.2 0-2.08-.5a3.6 3.6 0 0 1-1.38-1.45 5 5 0 0 1-.48-2.27q0-1.3.5-2.2.5-.94 1.38-1.42.87-.5 2.06-.5.78 0 1.52.28.75.25 1.2.75l-.5 1.03q-.46-.45-1.02-.66a3 3 0 0 0-1.1-.22q-1.2 0-1.86.76-.67.75-.67 2.2t.67 2.24q.67.78 1.86.78a3 3 0 0 0 2.12-.86l.5 1q-.48.5-1.23.79-.75.25-1.49.25m8 0q-1.92 0-3.03-1.1a4 4 0 0 1-1.1-3.04q0-1.28.47-2.2a3.6 3.6 0 0 1 1.36-1.46 4 4 0 0 1 2.02-.53q1.1 0 1.87.48.76.45 1.17 1.33.4.85.4 2.04v.48h-6.16v-.86h5.16l-.27.2a3 3 0 0 0-.56-1.93q-.54-.69-1.61-.69-1.17 0-1.81.82a3.4 3.4 0 0 0-.64 2.2v.14q0 1.47.72 2.22.74.75 2.03.75.72 0 1.34-.2t1.2-.7l.48 1.01q-.54.51-1.35.77-.8.27-1.69.27m5.56 1.76-.66-.5q.45-.48.6-.89.17-.4.17-.83l.32.32h-1.17v-1.78h1.78v1.24q0 .68-.23 1.26-.22.6-.81 1.18m10.7-1.9-3.95-11.28h1.57l3.34 9.95h-.57l3.55-9.95h1.17l3.32 9.95h-.5l3.45-9.95h1.47l-4 11.28h-1.3l-3.24-9.52h.34l-3.38 9.52zm13.92.9h-1.24l4.18-12.88h1.25zm7.44 1.98q-.69-1.19-1.14-2.34a13 13 0 0 1-.83-4.75q0-1.28.19-2.45.2-1.16.64-2.3.45-1.14 1.14-2.32h1.18q-.82 1.8-1.23 3.57a15 15 0 0 0 0 7.02q.42 1.77 1.23 3.57zm2.83-2.88v-6.14a14 14 0 0 0-.13-1.9h1.41l.16 1.72h-.2a2.7 2.7 0 0 1 2.71-1.87q.99 0 1.63.48.65.46.87 1.47h-.24q.3-.9 1.07-1.42a3 3 0 0 1 1.8-.53q1.31 0 2 .78.66.77.66 2.4V158H228v-4.93q0-1.1-.39-1.58-.38-.5-1.21-.5a1.9 1.9 0 0 0-1.54.67 2.7 2.7 0 0 0-.56 1.8V158h-1.45v-4.93q0-1.1-.39-1.58-.37-.5-1.21-.5a1.9 1.9 0 0 0-1.54.67 2.7 2.7 0 0 0-.54 1.8V158zm15.9-4.45q-.77 0-1.4-.19a3 3 0 0 1-1.1-.58l.34-.88q.4.32.93.5a4 4 0 0 0 1.13.16q.6 0 .97-.26.38-.25.38-.78 0-.51-.38-.74a2 2 0 0 0-1-.24h-1.28v-.94h1.1q.65 0 1-.26a.9.9 0 0 0 .35-.76.8.8 0 0 0-.32-.7 1.4 1.4 0 0 0-.9-.25 3 3 0 0 0-1.9.7l-.35-.89q.43-.37 1.06-.58t1.37-.2q1.05 0 1.63.48.6.47.61 1.28 0 .65-.4 1.08t-1 .58v-.14q.73.1 1.16.52.43.44.43 1.17 0 .92-.69 1.43a3 3 0 0 1-1.74.5m5.31-1.31-.86-.66 1.53-1.96-2.41-.72.35-1.04 2.34.88-.08-2.52h1.1l-.1 2.52 2.39-.88.32 1.04-2.42.7 1.55 1.98-.9.66-1.38-2.11zm6.44 5.76v-11.28h1.48v5.1h.03l5.3-5.1h1.87l-6.14 5.84.02-.72 6.56 6.16h-1.94l-5.66-5.3h-.04v5.3zm10.55 2.88h-1.2q.81-1.8 1.23-3.57a15 15 0 0 0 0-7.02 20 20 0 0 0-1.23-3.57h1.2q.69 1.18 1.12 2.34.44 1.13.64 2.3a14 14 0 0 1 0 4.88 11 11 0 0 1-.64 2.3q-.44 1.16-1.12 2.34"/><path fill="#ffefef" d="M512 130h80v44h-80z"/><path fill="#2a2a2a" d="M542.2 160v-1.71h2.59v-7.84h1l-3.34 1.98v-1.95l2.93-1.76h1.47v9.57h2.44V160zm8.68 0v-2.22h2.24V160zm8.8 0v-2.2h-5.04v-1.45l5.36-7.63h1.66v7.5h1.62v1.57h-1.62V160zm0-3.78v-5.07h.38l-3.88 5.55v-.48z"/></g><path fill="#2a2a2a" d="M592 174v-1H0v2h592z" mask="url(#j)"/><g clip-path="url(#k)"><mask id="m" fill="#fff"><path d="M0 174h592v44H0z"/></mask><mask id="l" fill="#fff"><path d="M0 174h512v44H0z"/></mask><path fill="#2a2a2a" d="M512 174h-1v44h2v-44z" mask="url(#l)"/><path fill="#1a1a1a" d="M17.1 202.14q-1.36 0-2.44-.35a6 6 0 0 1-1.9-.99l.52-1.18q.55.4 1.14.7a6 6 0 0 0 2.68.54q1.4 0 2.05-.5.67-.5.67-1.34 0-.71-.46-1.1t-1.62-.6l-1.7-.36a5 5 0 0 1-2.33-1.04q-.75-.74-.75-1.98 0-1.02.53-1.76.54-.77 1.49-1.19a6.6 6.6 0 0 1 4.43-.06q1 .35 1.7 1.04l-.52 1.13q-.72-.65-1.55-.94-.81-.3-1.86-.3-1.25 0-2 .54-.73.54-.73 1.47 0 .74.46 1.17t1.54.64l1.71.34q1.63.3 2.38 1 .77.7.77 1.9 0 .97-.51 1.7-.51.72-1.46 1.12-.94.4-2.24.4m9.55 0q-1.18 0-2.04-.5a3.5 3.5 0 0 1-1.35-1.43 5 5 0 0 1-.48-2.24q0-1.28.48-2.21.48-.94 1.35-1.44a4 4 0 0 1 2.04-.51q1.2 0 2.05.51.88.5 1.35 1.44t.48 2.2q0 1.3-.48 2.25-.47.93-1.35 1.44-.86.5-2.05.5m0-1.15q1.1 0 1.75-.77.66-.76.65-2.25 0-1.5-.65-2.24a2.2 2.2 0 0 0-1.75-.75q-1.1 0-1.76.75-.63.75-.64 2.24 0 1.49.64 2.25a2.2 2.2 0 0 0 1.76.77m5.83 1.01v-11.78h1.46V202zm6.96.14q-1.05 0-1.85-.5a3.3 3.3 0 0 1-1.25-1.43 5 5 0 0 1-.45-2.24q0-1.3.45-2.23t1.25-1.44q.8-.5 1.85-.5 1.08 0 1.86.55.8.53 1.06 1.46h-.2l.18-1.86h1.4l-.09.96-.03.95V202h-1.46v-1.84h.18q-.25.91-1.06 1.46-.78.52-1.84.52m.34-1.15q1.09 0 1.74-.77.66-.76.66-2.25 0-1.5-.66-2.24a2.2 2.2 0 0 0-1.74-.75q-1.09 0-1.76.75t-.66 2.24.66 2.25a2.2 2.2 0 0 0 1.76.77m6.26 1.01v-6.08a15 15 0 0 0-.1-1.97h1.4l.18 2.02-.24.01q.15-.74.54-1.21.4-.5.94-.72a3 3 0 0 1 1.16-.24l.43.01q.17.02.35.08l-.03 1.3q-.24-.1-.45-.11l-.48-.03q-.7 0-1.22.32-.5.31-.76.84-.26.54-.26 1.14V202zm10.32 0v-11.28h7.14v1.22h-5.65v3.77h5.28v1.22h-5.28V202zm11.65.14q-1.06 0-1.86-.5a3.3 3.3 0 0 1-1.25-1.43 5 5 0 0 1-.45-2.24q0-1.3.45-2.23t1.25-1.44q.8-.5 1.86-.5 1.07 0 1.85.55.8.53 1.06 1.46h-.2l.18-1.86h1.41l-.1.96-.03.95V202h-1.45v-1.84h.17q-.26.91-1.05 1.46-.8.52-1.84.52m.33-1.15q1.09 0 1.75-.77.65-.76.65-2.25 0-1.5-.65-2.24a2.2 2.2 0 0 0-1.75-.75q-1.08 0-1.76.75-.65.75-.65 2.24t.65 2.25a2.2 2.2 0 0 0 1.76.77m9.74 1.15q-1.2 0-2.08-.5a3.6 3.6 0 0 1-1.38-1.45 5 5 0 0 1-.48-2.27q0-1.3.5-2.2.5-.94 1.37-1.42.9-.5 2.07-.5.78 0 1.52.28.73.25 1.2.75l-.5 1.03q-.46-.45-1.02-.66a3 3 0 0 0-1.1-.22q-1.2 0-1.86.76-.67.75-.67 2.2t.67 2.24q.67.78 1.85.78a3 3 0 0 0 2.13-.86l.5 1q-.48.5-1.23.79-.74.25-1.5.25m7.52 0q-1.26 0-1.92-.68-.64-.7-.64-2.12v-4.27h-1.57v-1.12h1.57v-2.16l1.45-.4v2.56h2.28v1.12H84.5v4.15q0 .93.31 1.32.34.39.97.39.3 0 .54-.05l.43-.14v1.2q-.24.08-.56.14-.3.06-.6.06m6 0q-1.17 0-2.04-.5a3.5 3.5 0 0 1-1.34-1.43 5 5 0 0 1-.48-2.24q0-1.28.48-2.21.47-.94 1.34-1.44a4 4 0 0 1 2.05-.51q1.18 0 2.05.51.87.5 1.34 1.44t.48 2.2q0 1.3-.48 2.25-.46.93-1.34 1.44-.87.5-2.05.5m0-1.15q1.1 0 1.75-.77.66-.76.66-2.25 0-1.5-.66-2.24a2.2 2.2 0 0 0-1.74-.75q-1.1 0-1.76.75-.64.75-.64 2.24t.64 2.25a2.2 2.2 0 0 0 1.76.77m5.82 1.01v-6.08a15 15 0 0 0-.11-1.97h1.4l.18 2.02-.24.01q.16-.74.54-1.21.4-.5.95-.72a3 3 0 0 1 1.15-.24l.43.01q.18.02.36.08l-.04 1.3q-.23-.1-.45-.11l-.48-.03q-.7 0-1.21.32-.5.31-.77.84-.26.54-.26 1.14V202z"/><path fill="#ffefef" d="M512 174h80v44h-80z"/><path fill="#2a2a2a" d="M540.59 204.14q-1.92 0-2.95-1.48-1.02-1.5-1.02-4.3 0-2.84 1.02-4.31a3.4 3.4 0 0 1 2.95-1.47q1.94 0 2.94 1.47 1.03 1.46 1.03 4.29 0 2.82-1.03 4.32a3.4 3.4 0 0 1-2.94 1.48m0-1.15q1.35 0 2-1.13.66-1.14.65-3.52 0-2.4-.65-3.5a2.2 2.2 0 0 0-2-1.13q-1.33 0-2 1.12t-.66 3.5q0 2.4.66 3.53a2.2 2.2 0 0 0 2 1.13m5.8 1.01v-1.63h1.63V204zm8.8 0v-2.45h-5.37v-.96l5.59-7.87h1.09v7.76h1.72v1.07h-1.73V204zm0-3.52v-6.2h.36l-4.64 6.54v-.34zm8.43 3.66a6.5 6.5 0 0 1-2.76-.62q-.6-.3-1.08-.74l.5-1.02q.78.63 1.6.93.82.29 1.75.29 1.2 0 1.9-.66.69-.65.69-1.73 0-1.1-.66-1.8a2.4 2.4 0 0 0-1.82-.71q-.83 0-1.5.34-.64.31-1.13 1h-.96v-6.7h6.7v1.12h-5.42v4.5h-.35q.43-.68 1.18-1.03a4 4 0 0 1 1.73-.37q1.09 0 1.88.45.8.45 1.23 1.25t.43 1.87-.48 1.9-1.34 1.29-2.09.44"/></g><path fill="#2a2a2a" d="M592 218v-1H0v2h592z" mask="url(#m)"/><g clip-path="url(#n)"><mask id="o" fill="#fff"><path d="M0 218h512v44H0z"/></mask><path fill="#2a2a2a" d="M512 218h-1v44h2v-44z" mask="url(#o)"/><path fill="#1a1a1a" d="m16.46 246-3.95-11.28h1.57l3.34 9.95h-.57l3.55-9.95h1.17l3.33 9.95h-.52l3.46-9.95h1.47L25.33 246h-1.3l-3.25-9.52h.34L17.74 246zm14.58 0v-8.05h1.46V246zm-.12-9.8v-1.58h1.72v1.57zm4.01 9.8v-6.14a14 14 0 0 0-.12-1.9h1.4l.16 1.72h-.19q.38-.9 1.14-1.4.76-.47 1.8-.47 1.41 0 2.13.78.72.77.72 2.4V246h-1.45v-4.93q0-1.1-.43-1.58-.44-.5-1.35-.5-1.08 0-1.73.66a2.5 2.5 0 0 0-.62 1.77V246zm12.5.14q-1.05 0-1.86-.5a3.3 3.3 0 0 1-1.25-1.43 5 5 0 0 1-.44-2.24q0-1.3.44-2.23.45-.93 1.25-1.44t1.86-.5q1.05 0 1.84.54.8.52 1.07 1.45h-.2v-5.57h1.46V246h-1.44v-1.87h.18a2.6 2.6 0 0 1-1.06 1.49q-.78.52-1.85.52m.33-1.15q1.1 0 1.75-.77.67-.76.67-2.25 0-1.5-.67-2.24a2.2 2.2 0 0 0-1.75-.75q-1.08 0-1.76.75-.65.75-.65 2.24t.65 2.25q.68.77 1.76.77m9.68 1.15q-1.2 0-2.05-.5a3.5 3.5 0 0 1-1.35-1.43 5 5 0 0 1-.48-2.24q0-1.28.48-2.21.48-.94 1.35-1.44a4 4 0 0 1 2.05-.51q1.18 0 2.04.51.9.5 1.35 1.44.48.94.48 2.2 0 1.3-.48 2.25-.47.93-1.35 1.44-.86.5-2.04.5m0-1.15q1.08 0 1.74-.77.66-.76.66-2.25 0-1.5-.66-2.24a2.2 2.2 0 0 0-1.74-.75q-1.11 0-1.76.75t-.64 2.24q-.01 1.49.64 2.25a2.2 2.2 0 0 0 1.76.77m7.86 1-3-8.05h1.52l2.43 6.9h-.42l2.5-6.9h1.18l2.48 6.9h-.4l2.45-6.9h1.46L72.48 246h-1.37l-2.56-7h.7l-2.54 7zm19.07.14q-1.05 0-1.85-.5a3.3 3.3 0 0 1-1.25-1.43 5 5 0 0 1-.45-2.24q0-1.3.45-2.23.44-.93 1.25-1.44.8-.5 1.85-.5 1.08 0 1.86.55.8.53 1.05 1.46h-.19l.18-1.86h1.4l-.09.96-.03.95V246H87.1v-1.84h.18q-.25.91-1.06 1.46-.78.52-1.84.52m.34-1.15q1.08 0 1.74-.77.66-.76.66-2.25 0-1.5-.66-2.24a2.2 2.2 0 0 0-1.74-.75q-1.09 0-1.76.75t-.66 2.24q0 1.49.66 2.25a2.2 2.2 0 0 0 1.76.77M91 246v-8.05h1.45V246zm-.13-9.8v-1.58h1.73v1.57zm4 9.8v-6.08a15 15 0 0 0-.11-1.97h1.4l.18 2.02-.24.01q.17-.74.55-1.21.4-.5.94-.72a3 3 0 0 1 1.15-.24l.44.01q.17.02.35.08l-.03 1.3q-.24-.1-.45-.11l-.48-.03q-.7 0-1.22.32-.49.31-.77.84-.25.54-.25 1.14V246zm10.16 0v-11.78h1.45V246zm7.55.14q-1.92 0-3.04-1.1a4 4 0 0 1-1.1-3.04q0-1.28.48-2.2a3.6 3.6 0 0 1 1.36-1.46 4 4 0 0 1 2.02-.53q1.1 0 1.87.48.76.46 1.16 1.33.4.85.4 2.04v.48h-6.16v-.86h5.17l-.27.2a3 3 0 0 0-.56-1.93q-.54-.69-1.61-.69-1.17 0-1.81.82a3.4 3.4 0 0 0-.64 2.2v.14q0 1.47.72 2.22.74.75 2.03.75.72 0 1.34-.2t1.2-.7l.48 1.01q-.54.51-1.36.77-.8.27-1.68.27m8.13 0q-1.05 0-1.86-.5a3.3 3.3 0 0 1-1.24-1.43 5 5 0 0 1-.45-2.24q0-1.3.45-2.23t1.24-1.44q.81-.5 1.86-.5 1.07 0 1.86.55.8.53 1.05 1.46h-.19l.18-1.86h1.4l-.1.96-.02.95V246h-1.46v-1.84h.18q-.26.91-1.06 1.46-.78.52-1.84.52m.34-1.15q1.08 0 1.74-.77.66-.76.66-2.25 0-1.5-.66-2.24a2.2 2.2 0 0 0-1.74-.75q-1.1 0-1.76.75t-.66 2.24.66 2.25a2.2 2.2 0 0 0 1.76.77m6.28 1.01v-11.78h1.45v7.28h.03l3.63-3.55h1.81l-4.32 4.23.02-.7 4.69 4.52h-1.86l-3.97-3.74h-.03V246zm11.36.14q-1.05 0-1.85-.5a3.3 3.3 0 0 1-1.25-1.43 5 5 0 0 1-.45-2.24q0-1.3.45-2.23t1.25-1.44q.8-.5 1.85-.5 1.08 0 1.86.55.8.53 1.06 1.46h-.2l.18-1.86h1.4l-.09.96-.03.95V246h-1.46v-1.84h.18q-.25.91-1.06 1.46-.78.52-1.84.52m.34-1.15q1.09 0 1.74-.77.66-.76.66-2.25 0-1.5-.66-2.24a2.2 2.2 0 0 0-1.74-.75q-1.08 0-1.76.75-.66.75-.66 2.24t.66 2.25a2.2 2.2 0 0 0 1.76.77m9.86 4.6a7 7 0 0 1-1.93-.26 5 5 0 0 1-1.59-.79l.39-1.07a6 6 0 0 0 .97.55q.48.2 1 .3t1.08.1q1.19 0 1.78-.61.6-.6.6-1.73v-2.26h.15q-.25.92-1.05 1.46t-1.86.53q-1.1 0-1.9-.48-.8-.5-1.25-1.4t-.45-2.12.45-2.13 1.25-1.38q.8-.5 1.9-.5 1.07 0 1.86.54.78.52 1.04 1.45l-.15-.14.15-1.7h1.4l-.1.96-.02.95v6.04q0 1.8-.95 2.74-.93.94-2.77.94m-.14-4.93q1.1 0 1.76-.76.66-.75.66-2.1t-.66-2.09a2.2 2.2 0 0 0-1.76-.73 2.3 2.3 0 0 0-1.8.73q-.65.75-.65 2.1t.66 2.1 1.79.75m9.96 1.48q-1.93 0-3.04-1.1a4 4 0 0 1-1.1-3.04q0-1.28.47-2.2a3.6 3.6 0 0 1 1.36-1.46 4 4 0 0 1 2.02-.53q1.1 0 1.87.48.76.46 1.17 1.33.4.85.4 2.04v.48h-6.16v-.86h5.17l-.27.2a3 3 0 0 0-.56-1.93q-.55-.69-1.62-.69-1.17 0-1.8.82a3.4 3.4 0 0 0-.65 2.2v.14q0 1.47.72 2.22.75.75 2.03.75.72 0 1.35-.2.61-.2 1.2-.7l.48 1.01q-.55.51-1.36.77-.8.27-1.68.27m9.27-.14v-11.78h1.46v5.48h-.21q.34-.94 1.14-1.41a3.4 3.4 0 0 1 1.8-.48q1.46 0 2.15.78.7.79.7 2.37V246h-1.45v-4.96q0-1.07-.42-1.55-.42-.5-1.36-.5-1.06 0-1.71.66a2.4 2.4 0 0 0-.64 1.74V246zm13.09.14q-1.93 0-3.04-1.1a4 4 0 0 1-1.1-3.04q0-1.28.47-2.2.5-.96 1.36-1.46a4 4 0 0 1 2.02-.53q1.1 0 1.87.48.76.46 1.17 1.33.4.85.4 2.04v.48h-6.16v-.86h5.17l-.27.2a3 3 0 0 0-.56-1.93q-.55-.69-1.62-.69-1.17 0-1.8.82a3.4 3.4 0 0 0-.65 2.2v.14q0 1.47.72 2.22.74.75 2.03.75.72 0 1.35-.2.62-.2 1.2-.7l.48 1.01q-.55.51-1.36.77a5 5 0 0 1-1.68.27m8.12 0q-1.05 0-1.85-.5a3.3 3.3 0 0 1-1.25-1.43 5 5 0 0 1-.45-2.24q0-1.3.45-2.23t1.25-1.44q.8-.5 1.85-.5 1.08 0 1.86.55.8.53 1.06 1.46h-.2l.18-1.86h1.4l-.09.96-.03.95V246h-1.46v-1.84h.18q-.25.91-1.06 1.46-.78.52-1.84.52m.34-1.15q1.09 0 1.74-.77.66-.76.66-2.25 0-1.5-.66-2.24a2.2 2.2 0 0 0-1.74-.75q-1.08 0-1.76.75-.66.75-.66 2.24t.66 2.25a2.2 2.2 0 0 0 1.76.77m9.29 1.15q-1.26 0-1.92-.68-.64-.7-.64-2.12v-4.27h-1.57v-1.12h1.57v-2.16l1.45-.4v2.56H200v1.12h-2.28v4.15q0 .93.32 1.32.34.39.96.39.33 0 .55-.05l.43-.14v1.2q-.24.08-.56.14-.3.06-.6.06m6.91-.14v-11.78h1.46V246zm7.28.14q-1.18 0-2.04-.5a3.5 3.5 0 0 1-1.35-1.43 5 5 0 0 1-.48-2.24q0-1.28.48-2.21.48-.94 1.35-1.44a4 4 0 0 1 2.04-.51q1.2 0 2.05.51.88.5 1.35 1.44t.48 2.2q0 1.3-.48 2.25-.46.93-1.35 1.44-.86.5-2.05.5m0-1.15q1.1 0 1.75-.77.66-.76.65-2.25 0-1.5-.65-2.24a2.2 2.2 0 0 0-1.75-.75q-1.1 0-1.76.75-.64.75-.64 2.24t.64 2.25a2.2 2.2 0 0 0 1.76.77m8.55 1.15q-.98 0-1.82-.25a4 4 0 0 1-1.38-.74l.46-1a4.6 4.6 0 0 0 2.77.9q.92 0 1.38-.33.48-.33.48-.9 0-.44-.3-.72t-.97-.4l-1.52-.3a3 3 0 0 1-1.55-.77 2 2 0 0 1-.5-1.39q0-.7.38-1.25.38-.56 1.08-.86a5 5 0 0 1 3.31-.06q.78.26 1.27.75l-.48.97q-.5-.43-1.12-.65-.6-.24-1.25-.24-.93 0-1.37.36t-.45.93q0 .44.27.72t.88.42l1.52.3q1.07.23 1.61.74.55.52.55 1.36 0 .75-.42 1.3a2.5 2.5 0 0 1-1.13.83q-.72.28-1.7.28m7.95 0q-.97 0-1.82-.25a4 4 0 0 1-1.38-.74l.47-1a4.6 4.6 0 0 0 2.77.9q.9 0 1.37-.33t.48-.9q0-.44-.3-.72t-.96-.4l-1.52-.3a3 3 0 0 1-1.55-.77 2 2 0 0 1-.52-1.39q0-.7.39-1.25.38-.56 1.09-.86a5 5 0 0 1 3.31-.06q.77.26 1.26.75l-.48.97q-.5-.43-1.12-.65-.6-.24-1.25-.24-.93 0-1.37.36t-.45.93q0 .44.27.72t.88.42l1.52.3q1.07.23 1.62.74.54.52.54 1.36 0 .75-.41 1.3a2.5 2.5 0 0 1-1.14.83q-.72.28-1.7.28m5.66 1.76-.66-.5q.45-.47.6-.89.17-.4.17-.83l.32.32h-1.17v-1.78h1.78v1.24q0 .68-.23 1.26-.23.6-.81 1.18m10.7-1.9-3.95-11.28h1.57l3.34 9.95h-.58l3.56-9.95h1.16l3.33 9.95h-.51l3.46-9.95h1.47L254.73 246h-1.3l-3.24-9.52h.34l-3.38 9.52zm13.92.9h-1.24l4.18-12.88h1.25zm7.44 1.98q-.69-1.18-1.14-2.34a13 13 0 0 1-.83-4.75q0-1.28.19-2.45.2-1.16.64-2.3.45-1.14 1.14-2.32h1.18q-.82 1.8-1.23 3.57a15 15 0 0 0 0 7.02q.41 1.77 1.23 3.57zm2.83-2.88v-6.14a14 14 0 0 0-.13-1.9h1.41l.16 1.72h-.2a2.7 2.7 0 0 1 2.71-1.87q.99 0 1.63.48.64.46.87 1.47h-.24q.3-.9 1.07-1.42.76-.54 1.8-.53 1.31 0 2 .78.66.77.66 2.4v5h-1.45v-4.93q0-1.1-.39-1.58-.38-.5-1.21-.5a1.9 1.9 0 0 0-1.54.67 2.7 2.7 0 0 0-.56 1.8V246h-1.45v-4.93q0-1.1-.39-1.58-.37-.5-1.21-.5a1.9 1.9 0 0 0-1.54.67 2.7 2.7 0 0 0-.54 1.8V246zm17.63.14q-1.15 0-2.2-.35a5 5 0 0 1-1.75-.99l.52-1.15a5.3 5.3 0 0 0 3.38 1.21q1.23 0 1.87-.5.64-.54.64-1.51 0-.96-.65-1.46a3 3 0 0 0-1.9-.5h-1.72v-1.23h1.62q1.05 0 1.7-.54.63-.54.63-1.49 0-.86-.59-1.31-.57-.46-1.65-.46a4.4 4.4 0 0 0-3.13 1.26l-.53-1.14q.67-.67 1.66-1.04a6 6 0 0 1 2.1-.36q1.68 0 2.64.76.96.77.96 2.15 0 1.04-.6 1.79-.56.75-1.58.98v-.18q1.19.2 1.84.98.66.75.66 1.88 0 1.5-1.06 2.36-1.05.84-2.86.84m7.1-5.9-.87-.66 1.54-1.96-2.42-.72.35-1.04 2.34.88-.08-2.52h1.1l-.1 2.52 2.4-.88.31 1.04-2.41.7 1.55 1.98-.9.66-1.39-2.11zm6.43 5.76v-11.28h1.49v5.1h.03l5.3-5.1h1.87l-6.15 5.84.02-.72 6.56 6.16h-1.94l-5.66-5.3h-.03v5.3zm10.55 2.88h-1.2q.82-1.8 1.23-3.57a15 15 0 0 0 0-7.02 20 20 0 0 0-1.23-3.57h1.2q.69 1.18 1.12 2.34.45 1.13.64 2.3a14 14 0 0 1 0 4.88 11 11 0 0 1-.64 2.3q-.43 1.16-1.12 2.34"/><path fill="#ffefef" d="M512 218h80v44h-80z"/><path fill="#2a2a2a" d="M540.59 248.14q-1.92 0-2.95-1.48-1.02-1.5-1.02-4.3 0-2.84 1.02-4.31a3.4 3.4 0 0 1 2.95-1.47q1.94 0 2.94 1.47 1.03 1.46 1.03 4.29 0 2.82-1.03 4.32a3.4 3.4 0 0 1-2.94 1.48m0-1.15q1.35 0 2-1.13.66-1.14.65-3.52 0-2.4-.65-3.5a2.2 2.2 0 0 0-2-1.13q-1.33 0-2 1.12t-.66 3.5q0 2.4.66 3.53a2.2 2.2 0 0 0 2 1.13m5.8 1.01v-1.63h1.63V248zm7.43.14q-1.92 0-2.94-1.48-1.02-1.5-1.02-4.3 0-2.84 1.02-4.31a3.4 3.4 0 0 1 2.94-1.47q1.94 0 2.95 1.47 1.02 1.46 1.02 4.29 0 2.82-1.02 4.32a3.4 3.4 0 0 1-2.95 1.48m0-1.15q1.35 0 2-1.13.66-1.14.66-3.52 0-2.4-.66-3.5a2.2 2.2 0 0 0-2-1.13q-1.32 0-2 1.12-.65 1.13-.65 3.5 0 2.4.65 3.53a2.2 2.2 0 0 0 2 1.13m6.83 1.01v-1.14h2.65v-9h.7l-3.1 1.93v-1.33l2.77-1.74h.96v10.14h2.5V248z"/></g></g><rect width="591" height="131" x=".5" y="130.5" stroke="#2a2a2a" rx="7.5"/><defs><clipPath id="a"><rect width="592" height="114" fill="#fff" rx="8"/></clipPath><clipPath id="b"><path fill="#fff" d="M0 0h592v70H0z"/></clipPath><clipPath id="e"><path fill="#fff" d="M0 70h592v44H0z"/></clipPath><clipPath id="g"><rect width="592" height="132" y="130" fill="#fff" rx="8"/></clipPath><clipPath id="h"><path fill="#fff" d="M0 130h592v44H0z"/></clipPath><clipPath id="k"><path fill="#fff" d="M0 174h592v44H0z"/></clipPath><clipPath id="n"><path fill="#fff" d="M0 218h592v44H0z"/></clipPath></defs></svg>