<svg xmlns="http://www.w3.org/2000/svg" width="85" height="32" viewBox="0 0 85 32" fill="#ffffff"><path d="m47.5,13.61v4.78c.07.52,0,1.04-.22,1.52-.21.48-.55.89-.98,1.18-1.33.57-2.78.82-4.23.71h-4.9v-11.8h4.89c1.44-.1,2.88.15,4.19.74.45.32.8.76,1.02,1.26.22.51.3,1.06.23,1.61Zm-2.77,4.78v-4.84c.02-.24-.04-.48-.15-.7-.12-.21-.3-.38-.52-.49-.65-.27-1.36-.39-2.06-.36h-2.1v7.75h2c.74.04,1.48-.05,2.19-.25.45-.12.64-.5.64-1.11Zm13.35-2.19v2.59c.02.5-.07.99-.26,1.45-.15.36-.37.68-.65.94-.3.24-.64.41-1,.52-.38.11-.77.18-1.16.22h-2.53c-.39-.05-.77-.12-1.15-.22-.36-.11-.7-.28-1-.52-.29-.26-.51-.58-.65-.94-.19-.46-.27-.95-.26-1.45v-2.59c-.01-.53.08-1.06.27-1.56.14-.38.38-.73.68-1,.29-.25.63-.43,1-.53.37-.12.76-.2,1.15-.24.82-.07,1.63-.07,2.45,0,.39.04.78.12,1.15.24.37.1.71.28,1,.53.3.27.54.62.68,1,.2.49.3,1.03.28,1.56Zm-2.58,2.89v-3.31c.02-.18,0-.36-.07-.54-.06-.17-.16-.33-.28-.46-.43-.25-.93-.35-1.42-.3-.5-.05-1,.05-1.43.3-.13.13-.23.29-.29.46-.06.17-.09.36-.07.54v3.31c-.02.18,0,.37.06.54.06.17.16.33.29.46.44.23.93.32,1.42.27.49.05.98-.04,1.42-.27.14-.12.25-.28.32-.45s.08-.36.05-.55Zm13.07-2.89v2.59c.02.5-.07.99-.26,1.45-.15.36-.37.68-.65.94-.3.24-.64.41-1,.52-.38.11-.77.18-1.16.22h-2.53c-.39-.05-.77-.12-1.15-.22-.37-.1-.71-.28-1-.52-.29-.26-.51-.58-.66-.94-.19-.46-.27-.95-.26-1.45v-2.59c-.01-.53.08-1.06.27-1.56.14-.38.38-.73.68-1,.29-.25.63-.43,1-.53.37-.11.76-.19,1.15-.22.41-.04.82-.06,1.23-.05.41,0,.81.01,1.22.05.39.04.78.12,1.15.24.37.1.71.28,1,.53.3.27.54.62.68,1,.19.49.29,1.01.29,1.54Zm-2.57,2.89v-3.31c.02-.18,0-.37-.07-.54-.06-.17-.16-.33-.29-.46-.45-.2-.93-.3-1.42-.3s-.97.1-1.42.3c-.13.13-.23.29-.29.46-.06.17-.08.36-.06.54v3.31c-.02.18,0,.37.06.54.06.17.16.33.29.46.91.36,1.93.36,2.84,0,.14-.12.24-.28.3-.46.06-.17.08-.36.06-.54Zm10.2-4.09h-.88c-.55-.03-1.11.08-1.6.33-.19.12-.34.3-.43.5-.1.2-.14.43-.12.65v5.27h-2.58v-8.75h2.41v1.55c.02-.24.1-.48.23-.68.13-.21.3-.38.51-.51.42-.34.95-.52,1.49-.53h.93l.04,2.17Zm8.8,3.38v1.11c.02.39-.07.77-.24,1.12-.14.29-.34.55-.6.74-.3.2-.64.34-1,.41-.37.1-.74.16-1.12.18h-1.27c-1.13-.01-2.26-.1-3.38-.27v-1.67c1.13.2,2.27.33,3.42.38.4,0,.81-.06,1.19-.19.13-.04.24-.12.31-.23.08-.11.11-.24.11-.37v-.59c.01-.11,0-.23-.05-.34-.04-.11-.1-.2-.18-.28-.3-.18-.65-.25-1-.21h-1.07c-.74.06-1.49-.12-2.12-.52-.25-.19-.45-.44-.58-.73-.13-.29-.18-.6-.15-.92v-1c-.02-.36.08-.72.28-1.01.2-.3.5-.52.84-.64,1.01-.35,2.07-.5,3.14-.46.57,0,1.58.05,3,.16v1.69c-1.04-.09-2.08-.17-3.12-.22-.46-.04-.92.01-1.36.15-.1.06-.18.15-.23.25-.05.11-.07.22-.05.34v.47c0,.08.02.15.06.22.04.07.09.13.16.17.2.14.44.21.68.19h1.14c2.19-.04,3.19.69,3.19,2.07Zm-43.58,8.33v2.29c0,.24-.06.48-.18.68-.12.19-.3.33-.51.41-.21.08-.42.14-.64.18-.22.04-.45.05-.67.05-1.32,0-2-.43-2-1.32v-2.29c0-.93.67-1.4,2-1.4s2,.48,2,1.4Zm-.69,2.29v-2.31c0-.6-.43-.9-1.31-.9-.16-.01-.33-.01-.49,0-.14.02-.28.07-.41.13-.13.06-.24.15-.32.27-.07.14-.11.29-.1.45v2.36c0,.55.43.84,1.32.84s1.31-.27,1.31-.84Zm5.64,1.24h-.66v-.44c-.08.34-.46.52-1.16.52-.35.05-.71-.05-1-.26-.19-.22-.28-.49-.27-.78v-2.65h.72v2.61c0,.07,0,.15,0,.22.02.07.04.13.08.19.06.07.14.12.23.14.14.02.27.02.41,0,.26.01.51-.02.76-.09.07-.04.13-.09.17-.16.04-.07.06-.15.05-.23v-2.68h.66v3.61Zm4.19.03c-.24.04-.49.06-.73.06-.33.04-.66-.05-.93-.23-.1-.12-.18-.27-.22-.42-.05-.15-.06-.31-.05-.47v-2.12h-.78v-.44h.78v-1.13h.67v1.13h1.26v.44h-1.25v2.16c-.02.18.03.37.14.52.18.1.38.15.59.13l.53-.06v.43h0Zm4.19-1.27v.31c.02.16-.01.32-.08.46s-.18.26-.32.34c-.36.16-.75.24-1.14.22-.41,0-.81-.04-1.21-.1v-.52c.41.08.82.12,1.23.14.22.02.45-.01.66-.09.07-.02.13-.07.17-.14.04-.06.06-.14.05-.21v-.41c0-.07,0-.13-.03-.19-.03-.06-.07-.11-.12-.15-.15-.08-.32-.11-.49-.1h-.46c-.3.02-.6-.06-.84-.23-.09-.08-.17-.17-.22-.29s-.07-.23-.07-.35v-.29c0-.57.53-.85,1.58-.85l1.07.06v.48c-.36-.07-.73-.11-1.1-.11-.24-.02-.49.01-.71.11-.06.03-.11.08-.14.14-.03.06-.05.13-.05.2v.31c0,.25.22.37.65.37h.41c.8.01,1.17.3,1.17.89Zm4.87-1.15v1.26c0,.19-.03.39-.09.57-.04.13-.11.26-.2.36-.1.08-.22.15-.35.19-.14.05-.29.08-.44.09h-1.23c-.17-.03-.33-.08-.49-.15-.16-.07-.29-.21-.35-.37-.08-.22-.12-.45-.11-.68v-1.27c0-.2.03-.41.09-.6.04-.14.11-.27.2-.38.1-.1.23-.17.36-.21.14-.05.29-.08.44-.09h1.1c.15.01.3.04.44.09.14.03.26.1.35.21.09.11.16.24.2.38.06.19.09.4.08.6Zm-.68,1.36v-1.47c0-.33-.07-.54-.19-.61-.24-.1-.49-.15-.75-.13-.26-.02-.52.02-.76.13-.13.08-.19.28-.19.61v1.47c0,.13.01.26.05.38.01.05.04.09.07.13.03.04.07.06.12.08.09.05.19.07.29.08h.87c.1-.02.2-.05.29-.08.09-.04.16-.12.19-.21,0-.13.01-.25,0-.38Zm5.59,1.03h-.65v-.44c-.07.34-.46.52-1.16.52-.35.05-.71-.05-1-.26-.09-.11-.16-.23-.21-.36-.04-.13-.06-.28-.05-.42v-2.65h.66v2.61c-.01.07-.01.15,0,.22.01.07.05.14.1.19.06.07.14.12.23.14.14.02.27.02.41,0,.25.01.51-.02.75-.09.07-.04.13-.09.17-.16s.06-.15.05-.23v-2.68h.65v3.61h.05Zm3.89-3.1h-.36c-.23-.02-.45.02-.66.12-.08.04-.14.11-.18.19s-.05.17-.04.25v2.56h-.66v-3.62h.62v.6c0-.1.04-.2.1-.28.06-.08.13-.15.22-.19.19-.13.42-.2.65-.2h.32v.57h-.01Zm3.99,3.08c-.38.08-.76.11-1.14.11h-.5c-.14-.02-.27-.04-.41-.07-.13-.03-.26-.09-.35-.19-.1-.1-.17-.21-.21-.34-.06-.18-.09-.38-.08-.57v-1.34c0-.18.02-.35.06-.52.05-.11.13-.21.22-.3.07-.08.15-.15.24-.22.1-.06.22-.1.34-.11l.37-.05h.45c.34,0,.67.04,1,.11v.49c-.37-.12-.75-.2-1.13-.22-.25-.03-.49.02-.71.14-.07.08-.12.17-.15.27-.03.1-.04.2-.02.3v1.49c-.01.1,0,.2.03.29.03.09.09.17.17.24.24.11.5.15.76.13.36,0,.72-.05,1.07-.13v.49h0Zm2.32-4.22h-.65v-.71h.65v.71Zm0,4.21h-.65v-3.58h.65v3.58Zm5.03.03h-.65v-2.61c0-.07,0-.15,0-.22-.02-.07-.05-.13-.1-.19-.06-.07-.14-.12-.23-.14-.14-.02-.27-.02-.41,0-.26-.03-.53.02-.77.12-.07.06-.12.13-.15.21-.03.08-.05.17-.04.26v2.61h-.65v-3.66h.65v.44c.07-.34.46-.51,1.16-.51.35-.05.71.04,1,.25.09.11.17.23.21.36.05.13.07.28.06.42v2.66h-.08Zm5-3.61v4c.02.19,0,.38-.08.55-.07.17-.19.33-.34.45-.39.2-.82.29-1.26.27-.41.01-.82-.02-1.22-.08v-.48c.42.06.85.1,1.28.11.25,0,.5-.05.73-.16.08-.07.15-.15.19-.25.04-.1.06-.2.04-.3v-.86c0,.17-.12.28-.34.36-.24.08-.49.11-.74.11-.39.04-.78-.05-1.11-.25-.11-.11-.19-.24-.24-.39-.05-.15-.07-.3-.06-.46v-1.48c-.02-.17,0-.34.06-.5.06-.16.15-.3.27-.42.33-.21.72-.31,1.11-.27.62,0,1,.13,1.09.43v-.35h.62v-.03Zm-.66,2.64v-1.64c.01-.09,0-.18-.03-.26-.03-.08-.08-.16-.15-.22-.24-.12-.51-.16-.77-.14-.24-.02-.49.02-.71.12-.06.06-.11.14-.14.22-.03.08-.04.17-.03.26v1.64c-.01.09,0,.18.03.27.03.09.08.17.15.23.23.09.47.13.72.11.25.02.5-.03.72-.13.11-.06.21-.22.21-.46ZM0,0v32l14.13-2.8V2.8L0,0Zm8.56,21.92h-2.12v-11.92h2.12v11.92ZM17.25,2.8v26.4l14.12,2.8V0l-14.12,2.8Zm11,9.05h-3.32v10.06h-2.11v-10.06h-3.31v-1.85h8.77l-.03,1.85Z"/></svg>