<svg xmlns="http://www.w3.org/2000/svg" width="112" height="32" viewBox="0 0 112 32"><defs><clipPath id="a"><path fill="none" stroke-width="0" d="M21.2 0h69.59v23.75H21.2z"/></clipPath></defs><path fill="#ecc115" fill-rule="evenodd" d="m32.48 23.75 1.01 3.15h3.28l-2.65 1.95L35.13 32l-2.65-1.95L29.83 32l1.01-3.15-2.65-1.95h3.28l1.01-3.15Zm11.8 0 1.01 3.15h3.28l-2.65 1.95L46.93 32l-2.65-1.95L41.63 32l1.01-3.15-2.65-1.95h3.28l1.01-3.15Zm11.75 0 1.01 3.15h3.28l-2.65 1.95L58.68 32l-2.65-1.95L53.38 32l1.01-3.15-2.65-1.95h3.28l1.01-3.15Zm11.75 0 1.01 3.15h3.28l-2.65 1.95L70.43 32l-2.65-1.95L65.13 32l1.01-3.15-2.65-1.95h3.28l1.01-3.15Zm11.74 0 1.01 3.15h3.28l-2.65 1.95L82.17 32l-2.65-1.95L76.87 32l1.01-3.15-2.65-1.95h3.28l1.01-3.15Z"/><g clip-path="url(#a)"><path fill="#ea4335" d="M50.82 12.18c0 3.3-2.56 5.73-5.69 5.73s-5.69-2.43-5.69-5.73S42 6.45 45.13 6.45s5.69 2.41 5.69 5.73Zm-2.49 0c0-2.06-1.48-3.47-3.2-3.47s-3.2 1.41-3.2 3.47 1.48 3.47 3.2 3.47 3.2-1.43 3.2-3.47Z"/><path fill="#fbbc05" d="M63.1 12.18c0 3.3-2.56 5.73-5.69 5.73s-5.69-2.43-5.69-5.73 2.56-5.73 5.69-5.73 5.69 2.41 5.69 5.73Zm-2.49 0c0-2.06-1.48-3.47-3.2-3.47s-3.2 1.41-3.2 3.47 1.48 3.47 3.2 3.47 3.2-1.43 3.2-3.47Z"/><path fill="#4285f4" d="M74.87 6.8v10.28c0 4.23-2.47 5.95-5.39 5.95a5.41 5.41 0 0 1-5.03-3.37l2.17-.91c.39.93 1.33 2.03 2.86 2.03 1.87 0 3.03-1.16 3.03-3.36v-.82h-.09a3.86 3.86 0 0 1-2.99 1.3c-2.84 0-5.44-2.49-5.44-5.7s2.6-5.75 5.44-5.75c1.35 0 2.43.61 2.99 1.28h.09V6.8h2.37Zm-2.19 5.4c0-2.02-1.33-3.49-3.03-3.49s-3.16 1.47-3.16 3.49 1.44 3.45 3.16 3.45 3.03-1.45 3.03-3.45Z"/><path fill="#34a853" d="M78.77.77v16.78h-2.43V.77h2.43Z"/><path fill="#ea4335" d="m88.24 14.06 1.93 1.3a5.64 5.64 0 0 1-4.73 2.54 5.58 5.58 0 0 1-5.63-5.73c0-3.4 2.43-5.73 5.35-5.73s4.39 2.36 4.86 3.64l.26.65-7.59 3.17c.58 1.15 1.48 1.73 2.75 1.73s2.15-.63 2.79-1.58ZM82.29 12l5.07-2.12c-.28-.72-1.12-1.21-2.11-1.21a3.13 3.13 0 0 0-2.97 3.34Z"/><path fill="#4285f4" d="M30.23 10.69V8.26h8.11c.08.42.12.92.12 1.47 0 1.82-.49 4.08-2.09 5.68a8.02 8.02 0 0 1-6.15 2.49c-4.86 0-8.94-3.99-8.94-8.89S25.38.12 30.24.12c2.69 0 4.6 1.06 6.04 2.45l-1.7 1.71a6.09 6.09 0 0 0-4.34-1.73c-3.55 0-6.32 2.88-6.32 6.46s2.77 6.46 6.32 6.46c2.3 0 3.61-.93 4.45-1.78a5.03 5.03 0 0 0 1.3-3.01h-5.75Z"/></g></svg>