<svg xmlns="http://www.w3.org/2000/svg" viewBox="0 0 160 160"><defs><clipPath id="a"><path fill="none" stroke-width="0" d="M0 0h80v80H0z"/></clipPath></defs><path fill="#ef3b35" d="M80 0h80v80H80zM0 80h80v80H0z"/><path fill="#fff" d="M80 80h80v80H80z"/><g fill="#ef3b35" clip-path="url(#a)"><path d="m-83.74-4.2 2.12-2.1L6.42 82.11l-2.13 2.12zm8 0 2.12-2.11 88.04 88.43-2.13 2.12zm8 0 2.12-2.12 88.04 88.44-2.13 2.11zm8 0 2.12-2.12L30.42 82.1l-2.13 2.12zm8 0 2.12-2.11 88.04 88.43-2.13 2.11zm8 0 2.12-2.12 88.04 88.43-2.13 2.12zm8 0 2.12-2.12L54.41 82.1l-2.12 2.12zm8 0 2.12-2.12 88.03 88.44-2.12 2.11zm7.99 0 2.12-2.11 88.04 88.43-2.13 2.12zm8 0 2.12-2.12 88.04 88.44-2.13 2.11zm8 0 2.12-2.11 88.04 88.43-2.13 2.12zm8 0 2.12-2.12 88.04 88.44-2.13 2.11zm8 0 2.12-2.12 88.04 88.43-2.13 2.12zm8 0 2.12-2.11 88.04 88.43-2.13 2.12zm8 0 2.12-2.12 88.04 88.44-2.13 2.11zm8 0 2.12-2.12L126.4 82.1l-2.12 2.12zm8 0 2.12-2.12 88.03 88.44-2.12 2.11zm8 0 2.12-2.12 88.03 88.43-2.12 2.12zm8 0 2.12-2.12L150.4 82.1l-2.12 2.12zm8 0 2.12-2.12 88.03 88.44-2.12 2.11z"/></g></svg>