<svg xmlns="http://www.w3.org/2000/svg" viewBox="0 0 177 48"><path d="M151.49 32.68a7.41 7.41 0 0 1-4.62-1.32 7.37 7.37 0 0 1-2.85-3.7c-.25-.69-.35-1.45-.47-2.19a6.48 6.48 0 0 1-.1-1.52c.16-2.31.9-4.37 2.65-5.94a8.38 8.38 0 0 1 6.15-1.97 7.65 7.65 0 0 1 6.93 5.59c.37 1.2.48 2.42.37 3.65a8.22 8.22 0 0 1-2.42 5.33 6.54 6.54 0 0 1-3.19 1.78c-.8.17-1.61.28-2.42.41l-.01-.11Zm5-8.25a7.02 7.02 0 0 0-.42-2.78 4.53 4.53 0 0 0-4.12-3.04c-.49-.04-.99.06-1.49.11-.74.08-1.39.39-1.99.83a5.15 5.15 0 0 0-1.94 3.71 7.7 7.7 0 0 0 .52 4.1 4.37 4.37 0 0 0 3.45 2.67c.95.15 1.93.13 2.88-.23a4.38 4.38 0 0 0 2.38-2.06c.57-1.04.79-2.17.72-3.32Zm-56.19 2.2h-1.95c-.47 0-.69-.23-.7-.71v-1.33c0-.09.13-.25.2-.25l5.09-.01.02.4v5.88c0 .22-.05.36-.24.5-.83.59-1.73.99-2.7 1.28-1.34.38-2.7.36-4.05.23a7.8 7.8 0 0 1-6.9-6.61c-.1-.89-.21-1.81-.12-2.7.29-2.76 1.51-4.96 3.98-6.3.9-.49 1.85-.82 2.87-.88.7-.04 1.4-.16 2.09-.1 1.73.15 3.36.61 4.71 1.82.24.21.36.35.11.66-.25.31-.41.69-.62 1.03-.23.37-.73.47-1.12.27-.55-.29-1.09-.64-1.67-.85a6.09 6.09 0 0 0-3.14-.29 4.65 4.65 0 0 0-3.71 2.88 6.75 6.75 0 0 0-.55 3.1c.11 1.79.58 3.43 2.07 4.58.76.59 1.61.87 2.54 1.01.64.09 1.26.09 1.87-.04.61-.13 1.19-.37 1.78-.58.05-.02.11-.12.11-.19v-2.81Zm-18.11-4.96c0 1.64.06 3.28-.02 4.91a6.22 6.22 0 0 1-2.37 4.81 4.83 4.83 0 0 1-2.49 1.12c-.99.1-2.01.24-2.99.1a5.74 5.74 0 0 1-4.51-3.17 5.88 5.88 0 0 1-.7-2.36c-.04-.58-.11-1.16-.11-1.74l-.01-8.75c0-.34.11-.43.43-.42.71.02 1.43.02 2.14 0 .31-.01.4.08.4.4v5.2c0 1.46-.03 2.92 0 4.38.02.86.19 1.7.68 2.43.66 1 1.6 1.47 2.77 1.51 1.2.04 2.25-.29 3.01-1.3.36-.48.63-1 .68-1.61.06-.7.12-1.4.13-2.09v-8.5c0-.31.08-.41.39-.4.74.02 1.47.02 2.21 0 .28 0 .36.09.36.37v5.13Zm47.19 10.85-2.73-.01c-.07 0-.16-.12-.2-.21-.03-.08 0-.19 0-.28V16.67c0-.48.01-.5.5-.5h4.11c.76.01 1.52 0 2.26.14 1.45.26 2.78.78 3.67 2.1.34.51.61 1.04.68 1.65.07.62.16 1.25.12 1.87a4.6 4.6 0 0 1-2.68 4.12 6.8 6.8 0 0 1-3.03.7c-.75 0-1.5.02-2.24 0-.32 0-.44.1-.44.42l.02 5.23-.04.09Zm.02-11.05v2.58c0 .28.1.41.39.4.63-.02 1.27.04 1.89-.02a6.8 6.8 0 0 0 1.61-.34c.79-.28 1.25-.89 1.44-1.74.17-.76.18-1.49-.12-2.21-.45-1.07-1.33-1.48-2.39-1.55-.83-.05-1.66-.01-2.49-.02-.26 0-.35.09-.35.35v2.55Zm-15 11.23a7.46 7.46 0 0 1-5.31-1.89c-.22-.2-.22-.32-.07-.54.21-.3.39-.62.57-.94.34-.61.87-.72 1.42-.33a9.7 9.7 0 0 0 1.8 1.02c.74.3 1.53.3 2.32.1.7-.18 1.24-.53 1.51-1.25.44-1.2.18-2.2-1.04-2.78-.69-.32-1.44-.5-2.17-.75-.95-.33-1.92-.65-2.68-1.37a3.38 3.38 0 0 1-1.04-1.76c-.1-.48-.24-.98-.22-1.46a4.63 4.63 0 0 1 4.08-4.6c.53-.06 1.07-.14 1.59-.11 1.46.08 2.79.54 3.94 1.49.16.13.22.27.12.45l-.66 1.22c-.21.38-.49.57-1.02.3-.54-.27-1.06-.58-1.62-.79-.54-.2-1.1-.31-1.69-.16-.41.1-.81.16-1.18.42-1.01.71-1.18 2.35.13 3.06.67.36 1.4.61 2.11.87 1.18.43 2.41.78 3.31 1.75.59.63.97 1.39.95 2.29-.02.72 0 1.47-.18 2.15a4.72 4.72 0 0 1-2.46 3.01c-.9.47-1.84.65-2.51.61Zm54.87-13.98h-4.47c-.24 0-.33-.07-.32-.32.01-.62.02-1.24 0-1.87 0-.28.09-.37.36-.37h11.79c.3 0 .38.09.37.38-.02.61-.01 1.22 0 1.83 0 .26-.06.35-.33.35h-4l-.45.02V32.5h-2.94V18.72ZM90.8 44.93l-.53.02v-3.67c-.16.09-.28.11-.32.17l-1.42 2.51c-.23.4-.46.42-.71.02-.47-.77-.91-1.54-1.37-2.31-.08-.13-.16-.27-.32-.39v3.64l-.55.03-.03-.37v-4.1c0-.15.12-.29.18-.44.18.08.45.1.53.24.49.75.93 1.53 1.38 2.3l.35.59c.04.06.12.16.15.15a.4.4 0 0 0 .2-.16l1.57-2.74c.06-.11.13-.24.24-.28.15-.06.33-.08.49-.06.06 0 .14.17.14.26v4.6Zm77.98-3.56v3.55h-.67v-4.4c0-.15.12-.3.19-.46.16.07.38.11.48.23.82.99 1.62 2 2.43 3.01.06.07.11.16.18.22.05.05.12.07.18.11.02-.07.06-.13.06-.2 0-1-.03-2-.02-2.99 0-.13.21-.26.32-.39.11.1.3.2.3.3.02 1.52.01 3.04.01 4.57-.31.08-.51.03-.71-.22-.86-1.1-1.74-2.19-2.61-3.28-.03-.03-.03-.07-.04-.11l-.13.06Zm-4.7 3.6c-1.39.11-2.49-1.08-2.46-2.53a2.47 2.47 0 0 1 2.57-2.42c1.68.09 2.43 1.16 2.45 2.5 0 1.33-.85 2.53-2.56 2.45Zm-1.8-2.43.22.85c.18.62.68.92 1.28 1.03.65.12 1.28-.03 1.7-.57.44-.55.51-1.17.37-1.86-.25-1.29-1.42-1.62-2.53-1.21-.8.3-.99.99-1.04 1.75Zm-18.8-.05c0 .89-.32 1.62-1.09 2.12-1.15.75-3.29.44-3.76-1.16-.34-1.18-.1-2.33.88-3 1.21-.83 3.17-.42 3.7.95.13.35.18.73.27 1.09Zm-.78.04v-.37c-.04-.64-.52-1.31-1.06-1.47-.7-.21-1.63 0-2.05.48-.44.49-.44 1.09-.4 1.69.04.63.35 1.13.94 1.41.63.29 1.26.26 1.86-.13.61-.39.74-.97.71-1.61Zm-30.63.7c-.32-.25-.99.2-.89-.57h1.55c0 .56.01 1.11-.01 1.65 0 .11-.12.25-.22.31-1.22.67-3.36.56-4.09-1.19-.54-1.28.24-2.83 1.64-3.28a2.82 2.82 0 0 1 2.19.19c.25.12.47.27.28.55-.16.24-.34.06-.54-.03-.86-.4-2.32-.4-2.83.79-.26.62-.07 1.83.4 2.32.51.54 1.67.64 2.35.31a.37.37 0 0 0 .17-.24c.02-.28 0-.57 0-.81Zm36.86-1.3v-1.52c0-.21.01-.39.32-.37.27.02.38.14.38.39v2.83c0 .55.36.96.93 1.16.42.14 1.06-.03 1.36-.44.17-.24.3-.55.32-.84.04-.9.02-1.81.01-2.71 0-.24.05-.39.35-.39s.35.16.35.4v2.75c0 .91-.85 1.77-1.87 1.81-1.31.05-2.24-.84-2.15-1.96.03-.37 0-.74 0-1.11Zm-79.92-.02v-1.48c0-.18-.05-.4.28-.4.3 0 .4.16.4.41 0 .94 0 1.89.02 2.83.02.7.6 1.19 1.33 1.16a1.27 1.27 0 0 0 1.28-1.28c.04-.9 0-1.81.01-2.71 0-.2-.04-.43.31-.41.3.01.39.15.39.42-.01.89.01 1.78-.01 2.67a1.93 1.93 0 0 1-1.94 1.87c-1.28.03-2.15-.85-2.08-1.89.03-.39 0-.79 0-1.19Zm33.82.88v1.31c0 .27.13.35.4.35h2.01v.51l-2.87-.01c-.08 0-.23-.2-.23-.3-.02-1.41 0-2.82-.01-4.23 0-.25.13-.37.4-.37l2.43.01c.1 0 .26.17.29.29.06.2-.05.32-.31.31-.58-.02-1.16 0-1.74 0-.3 0-.41.1-.39.38.02.29.01.57 0 .86-.01.26.11.36.39.34.45-.02.89-.02 1.34 0 .12 0 .22.15.33.23-.12.11-.23.3-.35.31-.55.03-1.09.01-1.7.01Zm-10.82 2.12 1.72-4.02c.08-.19.11-.4.22-.56.08-.12.26-.27.4-.26.16 0 .4.12.45.25.48 1.09.94 2.19 1.4 3.29l.54 1.29c-.59.14-.7.09-.87-.39-.07-.19-.1-.4-.21-.56-.09-.13-.28-.27-.43-.28-.55-.03-1.1 0-1.65-.02-.28-.01-.38.13-.47.32-.08.16-.13.32-.19.49-.21.58-.21.58-.89.48Zm3.31-1.79-.94-2.32-.93 2.32h1.87Zm27.25 1.78c-.63.12-.72.06-.95-.63-.14-.42-.45-.64-.92-.64h-.91c-.49 0-.8.21-.95.63-.04.1-.1.2-.12.3-.07.45-.38.44-.8.35l.46-1.2 1.34-3.22c.1-.22.17-.49.55-.46.32.02.39.21.49.46.48 1.18.99 2.34 1.48 3.51.12.29.22.6.33.9Zm-1.4-1.77-.85-2.17-.11-.04-.91 2.22h1.87ZM134 44.37c.17-.42.36-.47.74-.15.35.29.85.35 1.3.17.45-.17.58-.47.55-.95-.03-.44-.42-.49-.73-.63-.28-.13-.59-.19-.87-.31-.59-.26-.91-.77-.83-1.27.1-.58.69-1.14 1.3-1.2.46-.04.9 0 1.31.24.43.26.44.33.08.66-.29-.12-.56-.25-.85-.35-.52-.18-1.18.27-1.16.79 0 .36.29.5.57.62.42.18.88.29 1.28.51.5.27.73.88.56 1.37-.24.71-.84 1.08-1.27 1.1-.73.04-1.44.03-1.98-.6Zm42.56-3.43c-.31-.13-.58-.27-.87-.37-.51-.18-1.18.3-1.16.8.01.36.29.49.57.62.41.18.85.28 1.24.49.55.3.77.86.6 1.38-.23.67-.82 1.08-1.31 1.1-.97.04-1.34-.05-1.93-.57.25-.46.24-.45.74-.17.42.24.86.33 1.34.14.45-.18.54-.51.51-.93-.03-.41-.4-.49-.69-.62-.32-.14-.67-.21-.99-.34a1.12 1.12 0 0 1-.73-1.13c0-.5.29-.92.77-1.15a1.88 1.88 0 0 1 1.86.1c.37.23.39.3.05.64Zm-52.88 3.09c.51.16.94.36 1.38.41.55.06.89-.26.98-.79.06-.34-.26-.69-.74-.84-.32-.1-.64-.2-.95-.33-.52-.23-.71-.63-.69-1.17.02-.53.27-.9.74-1.12a1.97 1.97 0 0 1 1.87.12c.24.13.27.28.18.46-.11.22-.31.14-.48.04-.39-.23-.8-.4-1.22-.13-.21.13-.44.37-.48.59-.03.17.16.47.34.57.43.24.9.42 1.37.58 1 .34.87 1.83.06 2.33-.61.37-1.79.34-2.41-.17-.3-.25-.08-.44.04-.54Zm4.37.02c.52.15.97.33 1.44.4.55.08.89-.41.96-.82.05-.31-.33-.68-.75-.81a8.67 8.67 0 0 1-.9-.31c-.42-.17-.72-.43-.76-.9-.05-.56.08-1.06.63-1.35a2 2 0 0 1 2.03.07c.24.14.25.31.13.44-.07.08-.34.1-.46.04-.4-.2-.8-.4-1.22-.13-.22.14-.44.38-.5.62-.04.15.16.44.34.54.44.24.94.38 1.4.62.9.46.9 1.81.02 2.32-.54.31-1.75.31-2.26-.12-.36-.3-.37-.33-.08-.59Zm28.4.88c-.68.06-.69.05-.69-.51v-3.74h-1.51c-.18-.55-.13-.63.4-.63h2.96c.07 0 .17-.03.21 0 .12.1.22.23.33.34-.11.09-.21.25-.33.26-.3.04-.61.03-.91 0-.35-.02-.48.07-.48.43.02 1.12 0 2.24 0 3.37v.47Zm-76.42-.01c-.68.06-.69.05-.69-.51v-3.74h-1.51c-.19-.54-.12-.63.4-.63h2.96c.07 0 .17-.03.21 0 .12.1.26.21.31.35.02.05-.19.24-.31.25-.28.04-.58.03-.87 0-.38-.03-.53.07-.52.47.03 1.11.01 2.22.01 3.33v.47Zm20.81-4.26h-1.55v3.75c0 .38-.22.55-.67.52l-.02-.43v-3.45c0-.31-.11-.42-.42-.4-.29.02-.58 0-.87 0-.21 0-.42.03-.42-.27 0-.31.19-.36.45-.35h3.04c.53 0 .55.03.45.62Zm-26.06 4.29v-4.61c0-.24.12-.3.35-.3.27 0 .35.12.34.36v3.33c0 .87-.06.69.77.71.38 0 .76-.02 1.13.01.12 0 .22.15.33.23-.1.09-.2.26-.3.26-.85.02-1.71.01-2.62.01Zm42.44-.51v.48h-2.88c0-.1-.03-.2-.03-.31v-4.14c0-.25.03-.42.36-.43.37 0 .33.22.33.44v3.57c0 .3.1.41.42.4.59-.02 1.18 0 1.81 0Zm30.64.49h-2.91v-4.44c0-.25.06-.42.36-.44.37-.02.33.22.33.44v3.49c0 .35.09.49.49.47.57-.03 1.15 0 1.74 0v.49Zm-64.19.03-.69-.03v-4.45c0-.26.06-.42.37-.44.33-.02.33.18.33.4v4.52Zm76.42-.03h-.69v-4.45c0-.28.08-.44.4-.44.35 0 .29.24.29.43v4.45ZM50.6 47.99l-.86-.48-3.14-1.85-3.3-1.93-2.69-1.57-2.57-1.52-2.63-1.53c-.86-.5-1.71-1.02-2.57-1.53l-2.34-1.37c-1.1-.64-2.19-1.3-3.3-1.93-.2-.12-.26-.24-.26-.47V6.03l.28.14 2.33 1.37 2.22 1.3 3.02 1.77 3.09 1.83 3.21 1.88 3.3 1.93 2.71 1.58c1.03.6 2.04 1.24 3.08 1.81.35.19.42.41.42.78v27.57Z"/><path d="M.01 18.47 0 18.3v-2.62c0-.11.02-.18.13-.25l2.76-1.62 2.71-1.58 3.17-1.86 3.12-1.84 2.69-1.57 2.55-1.5 2.36-1.4 3.82-2.24L26.4.02a.21.21 0 0 1 .19 0l4.06 2.38 3.71 2.17 2.69 1.57 2.5 1.48 2.43 1.42 3.3 1.93 2.69 1.57 2.57 1.52 2.34 1.37c.06.04.12.12.12.19v2.74l-.02.1c-.14-.07-.27-.13-.39-.21l-3.71-2.2-3.59-2.1-2.7-1.58-2.69-1.59-3.01-1.76c-.86-.5-1.71-1.02-2.57-1.53l-2.36-1.37-3.57-2.09-1.8-1.06a.25.25 0 0 0-.17 0l-3.8 2.23-4.04 2.35-3.05 1.79-3.16 1.85-2.95 1.75-2.84 1.66-3.3 1.93-3.07 1.79-.19.11Z"/><path d="M2.41 33.4V20.11c0-.17.05-.27.19-.35l3.66-2.15 4.02-2.34c1.1-.65 2.21-1.29 3.31-1.95.18-.1.16 0 .16.11v13.08c0 .15-.05.23-.18.31l-2.25 1.33-2.57 1.5-2.77 1.63-2.7 1.58-.87.53Zm23.6-27.36v13.27c0 .19-.07.28-.21.36L22 21.9l-4.44 2.6-2.77 1.61c-.03.01-.1-.02-.13-.06-.02-.03 0-.08 0-.13V12.95c0-.22.08-.33.25-.43l2.58-1.5 2.76-1.62 2.26-1.33 3.07-1.8.43-.25ZM2.41 48V34.69c0-.14.04-.22.16-.29.75-.43 1.5-.88 2.24-1.32l2.03-1.19 2.43-1.42 3.57-2.09.77-.47c.1-.06.13-.04.14.06v13.1c0 .17-.04.28-.2.38l-3.39 1.98-2.7 1.59-3.01 1.76-2.05 1.21Zm23.6-27.37v13.32c0 .1 0 .19-.13.27-1.05.6-2.1 1.23-3.14 1.84-1.36.8-2.73 1.59-4.09 2.4l-3.07 1.82-.77.44c-.11.06-.15.03-.14-.09v-.11l-.01-12.78c0-.35.13-.52.4-.68.93-.53 1.84-1.08 2.76-1.62l3.13-1.82 2.7-1.59 2.23-1.31.13-.09Z"/></svg>