<svg xmlns="http://www.w3.org/2000/svg" width="88" height="92" viewBox="0 0 88 92"><path fill="#fff" d="M47.74 0v40.65H88V0H47.74Zm29.64 20.57v11.81h-6.57v-8.24h-5.49v8.24h-6.57V20.57h-4.83L68.07 6.28l14.15 14.29h-4.85ZM40.29 0H21.86v18.61h18.43V0ZM18.45 0H.02v18.61h18.43V0Zm21.84 22.04H21.86v18.61h18.43V22.04Zm-21.84 0H.02v18.61h18.43V22.04ZM.03 48.19A44.45 44.45 0 0 0 10.2 76.14l15.64-15.79H10.39v-3.43h21.24v21.44h-3.4v-15.6L12.45 78.69A43.66 43.66 0 0 0 40.25 92V48.19H0h.03Zm56.37 8.72h30.66c.59-2.82.92-5.74.94-8.73H47.74v43.81c2.98-.24 5.87-.82 8.64-1.63V56.92l.02-.02Z"/><path fill="#fff" d="M59.8 60.34v28.88a44.33 44.33 0 0 0 26.42-28.88H59.8Z"/></svg>