<svg xmlns="http://www.w3.org/2000/svg" width="491" height="369" viewBox="0 0 491 369"><path fill="#980000" d="M0 .19h491v368H0z"/><path fill="#fff" d="M311.06 162.38c1.75 1.07 7.48 7.33 7.48 8.19 0 .36-1.96.56-5.88.56-6.76 0-6.5.2-6.5-4.83 0-1.78.15-3.56.31-4.02.41-1.07 2.68-1.02 4.59.1Z"/><path fill="#fff" fill-rule="evenodd" d="M282.95 133.73c8.51 1.83 14.08 5.09 24.24 14.15 5.73 5.19 18.57 18.12 20.37 20.51.31.46 2.99 1.32 6.19 1.99 8.1 1.73 14.54 3.66 17.43 5.24 3.25 1.73 6.19 5.04 8.46 9.52a23.28 23.28 0 0 0 4.28 5.85c2.17 2.04 2.63 2.9 4.38 8.14 1.75 5.14 2.01 6.46 2.01 10.94.05 4.33-.1 5.4-1.08 7.23-2.11 3.82-8.05 6.11-10.06 3.82-.57-.56-.88-2.19-1.03-4.94-.1-3.15-.46-4.68-1.55-6.87-8.25-16.39-32.18-13.03-35.48 5.04-.31 1.73-.41 3.61-.26 4.17.21.56 0 1.53-.46 2.24l-.83 1.27H257c-47.97 0-62.72-.15-63.18-.61-.36-.36-.62-1.88-.62-3.46 0-7.84-4.28-14.51-11.35-17.76-2.37-1.12-3.56-1.32-7.48-1.32s-5.05.2-7.58 1.37c-6.81 3.1-10.57 8.75-11.19 16.54-.26 2.9-.57 4.43-1.08 4.73-.41.31-6.96.51-14.49.51-13.41 0-13.77-.05-15.42-1.17-2.99-1.98-3.61-3.87-3.61-10.64v-6.01l1.91-.87 1.96-.92.31-20.87c.31-21.53.88-28.81 3.09-39.34 1.08-5.29 2.17-7.23 4.8-8.45 1.6-.76 8.35-.82 74.17-.76 59.57 0 72.93.15 75.71.71Zm-10.52 11.76c-.72.66-.83 2.6-.83 12.98 0 7.48.21 12.62.52 13.23.52.92 1.34.97 25.27.97h24.76v-1.12c0-1.37-21.77-22.95-25.53-25.3l-2.53-1.58h-10.42c-8.82 0-10.57.1-11.24.81Zm72.67 35.07c-1.6 1.53-1.6 2.09 0 4.43 1.5 2.19 6.45 4.78 10.16 5.29 3.04.41 3.15-.05.93-4.33-1.6-3.16-2.99-4.43-6.45-5.8-2.79-1.12-3.2-1.07-4.64.41Zm-216.26 11.55.15 8.3 1.7.15c2.89.31 3.2-.41 3.2-6.46 0-5.19-.1-5.55-1.55-7.84-.98-1.58-1.91-2.39-2.58-2.39-1.03 0-1.03.26-.93 8.25Z"/><path fill="#980000" d="M221.79 166.91a7.05 7.05 0 0 1-4.36-1.24 6.97 6.97 0 0 1-2.7-3.47c-.24-.65-.33-1.36-.44-2.06a6.26 6.26 0 0 1-.1-1.43c.15-2.17.85-4.1 2.5-5.58a7.8 7.8 0 0 1 5.8-1.84 7.23 7.23 0 0 1 6.54 5.24c.35 1.13.46 2.27.35 3.43a7.7 7.7 0 0 1-2.28 5 6.13 6.13 0 0 1-3.01 1.67c-.76.16-1.52.26-2.29.38l-.01-.1Zm4.72-7.74a6.31 6.31 0 0 0-.4-2.6 4.26 4.26 0 0 0-3.89-2.85c-.46-.04-.94.05-1.4.1-.7.07-1.32.36-1.88.78a4.82 4.82 0 0 0-1.83 3.49 7.17 7.17 0 0 0 .49 3.85 4.1 4.1 0 0 0 3.26 2.5c.9.14 1.82.12 2.72-.22a4.15 4.15 0 0 0 2.25-1.93 5.7 5.7 0 0 0 .68-3.11Zm-53.06 2.07h-1.84c-.45 0-.66-.21-.66-.67v-1.24c0-.08.12-.23.19-.23l4.81-.01.02.38v5.52c0 .2-.05.34-.23.46-.78.55-1.63.93-2.55 1.2-1.27.36-2.55.34-3.83.22a7.4 7.4 0 0 1-6.07-4.49 6.33 6.33 0 0 1-.44-1.71c-.1-.84-.2-1.7-.11-2.53.27-2.59 1.42-4.65 3.75-5.92a6.52 6.52 0 0 1 2.71-.82c.66-.04 1.32-.15 1.97-.09 1.63.14 3.17.58 4.44 1.71.22.2.34.33.11.62-.23.29-.38.65-.58.97-.22.34-.69.44-1.06.25-.52-.27-1.03-.6-1.58-.79a5.75 5.75 0 0 0-2.97-.27 4.36 4.36 0 0 0-3.51 2.7c-.4.92-.58 1.91-.52 2.91.1 1.68.55 3.22 1.96 4.3.71.55 1.52.81 2.4.94.6.09 1.19.09 1.76-.04.57-.12 1.13-.35 1.68-.54.05-.02.11-.11.11-.17v-2.64Zm-17.1-4.66c0 1.54.06 3.08-.01 4.61a5.84 5.84 0 0 1-2.24 4.51c-.7.55-1.47.97-2.35 1.06-.94.1-1.9.23-2.82.1a5.44 5.44 0 0 1-4.26-2.98 5.4 5.4 0 0 1-.66-2.21c-.03-.54-.1-1.09-.1-1.63l-.01-8.22c0-.32.11-.4.4-.4.67.02 1.35.02 2.02 0 .29 0 .38.08.38.37v4.88c0 1.37-.02 2.74 0 4.11.02.8.18 1.59.64 2.28a3.1 3.1 0 0 0 2.62 1.42c1.14.04 2.13-.27 2.85-1.22.34-.45.6-.94.64-1.51.06-.65.12-1.31.12-1.96v-7.98c0-.29.08-.39.37-.38.69.02 1.39.02 2.09 0 .27 0 .34.08.34.35v4.82Zm44.56 10.19h-2.57c-.07 0-.15-.12-.19-.2-.03-.08 0-.18 0-.27v-14.4c0-.45.01-.47.47-.47h3.88c.71.01 1.44 0 2.14.13 1.37.24 2.63.73 3.47 1.97.32.47.58.98.64 1.55.07.58.15 1.18.12 1.76a4.33 4.33 0 0 1-2.53 3.87c-.9.45-1.86.65-2.86.66-.71 0-1.41.02-2.12 0-.3 0-.42.1-.41.4l.02 4.91-.04.09Zm.02-10.37v2.43c0 .26.1.38.37.38.6-.01 1.2.04 1.79-.02a6.53 6.53 0 0 0 1.52-.32 2.11 2.11 0 0 0 1.36-1.63 3.3 3.3 0 0 0-.11-2.08c-.42-1.01-1.26-1.39-2.26-1.45-.78-.05-1.57-.01-2.35-.02-.24 0-.33.08-.33.33v2.39Zm-14.17 10.53c-2.1 0-3.67-.57-5.02-1.77-.21-.18-.21-.3-.06-.51.2-.28.37-.58.54-.88.32-.58.83-.67 1.34-.31.53.37 1.1.71 1.7.96.7.28 1.45.28 2.19.09.66-.17 1.17-.5 1.42-1.18.42-1.12.17-2.07-.98-2.61-.65-.31-1.36-.47-2.05-.7-.9-.31-1.81-.61-2.53-1.28a3.08 3.08 0 0 1-.98-1.65c-.1-.45-.23-.92-.21-1.37a4.38 4.38 0 0 1 3.85-4.32c.5-.06 1.01-.13 1.51-.1 1.38.07 2.63.51 3.72 1.4.15.12.2.25.11.42l-.62 1.14c-.2.36-.46.53-.97.28s-1-.54-1.53-.74a2.65 2.65 0 0 0-1.6-.15c-.39.1-.77.15-1.11.39-.96.67-1.11 2.21.12 2.87.63.34 1.32.57 2 .82 1.12.41 2.27.73 3.13 1.64.56.6.92 1.3.9 2.15-.02.68 0 1.38-.17 2.02a4.42 4.42 0 0 1-2.32 2.82 4.8 4.8 0 0 1-2.37.57Zm51.82-13.11h-4.23c-.23 0-.31-.07-.31-.3.01-.58.02-1.17 0-1.75 0-.27.08-.35.34-.35h11.14c.29 0 .36.09.35.36-.02.57-.01 1.14 0 1.72 0 .24-.06.33-.32.33h-3.78l-.43.02v12.91h-2.78v-12.93Z"/><path fill="#fff" fill-rule="evenodd" d="M174.04 235c8.82 0 15.97-7.3 15.97-16.3s-7.15-16.3-15.97-16.3-15.97 7.3-15.97 16.3 7.15 16.3 15.97 16.3Zm0-8.15c4.55 0 8.24-3.65 8.24-8.15s-3.69-8.15-8.24-8.15-8.24 3.65-8.24 8.15 3.69 8.15 8.24 8.15Zm165.4 8.15c8.82 0 15.97-7.3 15.97-16.3s-7.15-16.3-15.97-16.3-15.97 7.3-15.97 16.3 7.15 16.3 15.97 16.3Zm0-8.15c4.55 0 8.24-3.65 8.24-8.15s-3.69-8.15-8.24-8.15-8.24 3.65-8.24 8.15 3.69 8.15 8.24 8.15Z"/></svg>