<svg xmlns="http://www.w3.org/2000/svg" width="40" height="40" viewBox="0 0 40 40"><path d="M39.8 21.15v-.3l-3.09-6.68v-.2c-.5-.9-1.4-1.4-2.39-1.4h-7.68v-2.29c0-1.5-1.2-2.69-2.69-2.69v-.1H1.7c-1 0-1.7.7-1.7 1.7s.8 1.7 1.7 1.7h21.85v14.96h-5.29a4.98 4.98 0 0 0-9.38 0H6.89v-7.48c0-1-.7-1.7-1.7-1.7s-1.7.8-1.7 1.7v8.18c0 1.5 1.2 2.69 2.69 2.69h2.59a4.98 4.98 0 0 0 9.38 0h7.18a4.98 4.98 0 0 0 9.38 0h2.59c1.5 0 2.69-1.2 2.69-2.69v-4.59c0-.3 0-.5-.2-.8Zm-26.53 8.18c-1 0-1.7-.7-1.7-1.7s.8-1.7 1.7-1.7c1 0 1.7.7 1.7 1.7s-.7 1.7-1.7 1.7m16.66 0c-1 0-1.7-.7-1.7-1.7s.8-1.7 1.7-1.7c1 0 1.7.7 1.7 1.7s-.7 1.7-1.7 1.7m6.68-3.49h-2a5 5 0 0 0-4.69-3.29c-1.2 0-2.39.5-3.29 1.3v-7.98h7.18l2.79 6.18z"/><path d="M11.67 14.26c0-1-.8-1.7-1.7-1.7H3.29c-1 0-1.7.7-1.7 1.7s.8 1.7 1.7 1.7h6.68c1 0 1.7-.7 1.7-1.7"/></svg>