<svg xmlns="http://www.w3.org/2000/svg" width="40" height="40" viewBox="0 0 40 40"><path d="M16.6 33.35c0 .5.4.8.8.8h5c.5 0 .8-.4.8-.8s-.4-.8-.8-.8h-5c-.5 0-.8.4-.8.8m18.3-11.5c0-.8-.5-1.4-1.3-1.6l-2.1-.5v7.4l1.3-.3.8-.2c.7-.2 1.3-.9 1.3-1.6zm-30 3.1c0 .8.5 1.4 1.3 1.6l2.1.5v-7.4l-2.1.5c-.7.2-1.3.9-1.3 1.6zm33.4 0c0 2.1-1.4 4-3.3 4.7v.4c0 2.8-2.2 5-5 5h-3.7c-.6 1.5-2.1 2.5-3.8 2.5h-5c-2.3 0-4.2-1.9-4.2-4.2s1.9-4.2 4.2-4.2h5c1.7 0 3.2 1 3.8 2.5H30c.8 0 1.4-.5 1.6-1.2-1.7.4-3.3-.9-3.3-2.6v-9.1c0-1.7 1.6-3 3.3-2.6a11.68 11.68 0 0 0-23.2 0c1.7-.4 3.3.9 3.3 2.6v9.1c0 1.7-1.6 3-3.3 2.6l-2.9-.7c-2.2-.6-3.8-2.6-3.8-4.9v-3.1c0-2.1 1.4-4 3.3-4.7.2-8.1 6.9-14.6 15-14.6s14.8 6.5 15 14.6c2 .7 3.3 2.6 3.3 4.7z"/></svg>