<svg xmlns="http://www.w3.org/2000/svg" width="40" height="40" viewBox="0 0 40 40"><path d="M33.3 3.5c2.7 0 4.8 2.2 4.8 4.8v23.3c0 2.7-2.2 4.8-4.8 4.8H6.7a4.8 4.8 0 0 1-4.8-4.8V8.3c0-2.7 2.2-4.8 4.8-4.8h26.7zM4.8 31.7c0 1 .8 1.8 1.8 1.8h1.8v-12H4.7v10.2zm6.7 1.8h21.8c1 0 1.8-.8 1.8-1.8V8.3c0-1-.8-1.8-1.8-1.8H11.5zM24.9 18c.6-.5 1.6-.5 2.1.2.5.6.5 1.6-.2 2.1l-5.8 5c-.6.5-1.6.5-2.1-.2-.5-.6-.5-1.6.2-2.1zM6.7 6.5c-1 0-1.8.8-1.8 1.8v10.2h3.7v-12zm20.5 9.2c.6-.6 1.5-.7 2.1-.1s.7 1.5.1 2.1-1.5.7-2.1.1-.7-1.5-.1-2.1"/></svg>