<svg xmlns="http://www.w3.org/2000/svg" xmlns:xlink="http://www.w3.org/1999/xlink" style="display:none"><symbol id="asterisk"><path d="M2.93 4.47L0 3.62l.45-1.43 2.92 1.06L3.29 0h1.48l-.1 3.3 2.88-1L8 3.69l-3 .86 1.94 2.56-1.2.89-1.8-2.72-1.75 2.65L1 7.07z"/></symbol><symbol id="chevron-down"><path d="M11.07 14.06a1.499 1.499 0 01-2.12 0L3.29 8.4a1.499 1.499 0 112.12-2.12l4.6 4.6 4.6-4.6a1.493 1.493 0 012.1.02c.28.28.44.65.44 1.05 0 .39-.15.77-.42 1.06l-5.66 5.66z" fill-rule="evenodd"/></symbol><symbol id="chevron-left"><path d="M6.11 11.07a1.499 1.499 0 010-2.12l5.66-5.66a1.499 1.499 0 112.12 2.12l-4.6 4.6 4.6 4.6a1.493 1.493 0 01-.02 2.1c-.28.28-.65.44-1.05.44-.39 0-.77-.15-1.06-.42L6.1 11.07z" fill-rule="evenodd"/></symbol><symbol id="chevron-right"><path d="M13.89 8.93a1.499 1.499 0 010 2.12l-5.66 5.66a1.499 1.499 0 11-2.12-2.12l4.6-4.6-4.6-4.6a1.493 1.493 0 01.02-2.1c.28-.28.65-.44 1.05-.44.39 0 .77.15 1.06.42l5.66 5.66z" fill-rule="evenodd"/></symbol><symbol id="chevron-up"><path d="M8.93 6.11a1.499 1.499 0 012.12 0l5.66 5.66a1.499 1.499 0 11-2.12 2.12l-4.6-4.6-4.6 4.6a1.493 1.493 0 01-2.1-.02c-.28-.28-.44-.65-.44-1.05 0-.39.15-.77.42-1.06L8.93 6.1z" fill-rule="evenodd"/></symbol><symbol id="facebook"><path d="M13.5 21.94a10 10 0 10-3 .01v-6.89H9a1.5 1.5 0 010-3h1.5v-2a3.5 3.5 0 013.5-3.5h.5a1.5 1.5 0 010 3H14a.47.47 0 00-.35.15.5.5 0 00-.15.35v2H15a1.5 1.5 0 010 3h-1.5v6.89z"/></symbol><symbol id="home"><path d="M16.4 19H3.6C2.17 19 1 17.87 1 16.48V7.7c0-.66.33-1.28.89-1.66l6.93-4.68c.7-.48 1.65-.48 2.36 0l6.93 4.69c.56.38.89 1 .89 1.66v8.78c0 1.39-1.17 2.52-2.6 2.52zM3 7.7v8.78c0 .29.27.52.6.52h12.8c.33 0 .6-.23.6-.52V7.7l-6.94-4.69s-.08-.02-.12 0L3.01 7.7z"/></symbol><symbol id="instagram"><path d="M16 3a5 5 0 015 5v8a5 5 0 01-5 5H8a5 5 0 01-5-5V8a5 5 0 015-5h8zm-4 5a4 4 0 100 8 4 4 0 000-8zm0 2a2.03 2.03 0 012 2 2.03 2.03 0 01-2 2 2.03 2.03 0 01-2-2 2.03 2.03 0 012-2zm4.5-3.5a.99.99 0 00-1 1 .99.99 0 001 1 .99.99 0 001-1 .99.99 0 00-1-1z"/></symbol><symbol id="link"><path d="M18 11c-.55 0-1 .45-1 1v6c0 .26-.11.52-.29.71s-.44.29-.71.29H6c-.26 0-.52-.11-.71-.29A.99.99 0 015 18V8c0-.26.11-.52.29-.71A.99.99 0 016 7h6c.55 0 1-.45 1-1s-.45-1-1-1H6c-.8 0-1.55.31-2.12.88C3.31 6.45 3 7.2 3 8v10c0 .8.31 1.55.88 2.12.57.57 1.32.88 2.12.88h10c.8 0 1.55-.31 2.12-.88S19 18.8 19 18v-6c0-.55-.45-1-1-1z"/><path d="M20.92 3.62A1.019 1.019 0 0020 3h-5c-.55 0-1 .45-1 1s.45 1 1 1h2.59l-7.29 7.29a.996.996 0 00.71 1.7c.26 0 .51-.1.71-.29l7.29-7.29V9c0 .55.45 1 1 1s1-.45 1-1V4c0-.13-.03-.26-.08-.38z"/></symbol><symbol id="linkedin"><path fill-rule="evenodd" d="M18 3a3 3 0 013 3v12a3 3 0 01-3 3H6a3 3 0 01-3-3V6a3 3 0 013-3h12zM8 10a.99.99 0 00-1 1v5a.99.99 0 001 1 .99.99 0 001-1v-5a.99.99 0 00-1-1zm3-1a.99.99 0 00-1 1v6c0 .27.11.52.29.71s.44.29.71.29.52-.11.71-.29.29-.44.29-.71v-3.66a4.2 4.2 0 011.39-.99c.33-.14.83-.2 1.18-.09.15.05.24.12.29.19.05.07.13.23.13.56v4c0 .27.11.52.29.71s.44.29.71.29.52-.11.71-.29.29-.44.29-.71v-4c0-.67-.17-1.27-.52-1.74a2.6 2.6 0 00-1.3-.91 3.89 3.89 0 00-3.19.47.99.99 0 00-.98-.82zM8 7a.99.99 0 00-1 1 .99.99 0 001 1 .99.99 0 001-1 .99.99 0 00-1-1z"/></symbol><symbol id="mail"><path d="M2.07 5.48l8.87 8.88a1.492 1.492 0 002 .11l.11-.1 8.87-8.87c.03.11.05.22.06.34v12.18c0 .5-.19.99-.53 1.36-.34.37-.81.6-1.32.63H3.98c-.5 0-.99-.19-1.36-.53-.37-.34-.6-.81-.63-1.32v-.15-12c0-.12 0-.24.03-.35l.04-.17zM20 4c.12 0 .24.01.35.03l.17.04L12 12.59 3.48 4.07c.11-.03.22-.05.34-.06H20z"/></symbol><symbol id="phone"><path d="M7.01 2.29c1.14.83 2.03 1.97 2.79 3.06l.44.64.42.62a1.493 1.493 0 01-.26 1.98l-1.95 1.45c-.09.07-.16.17-.19.28-.03.11-.01.23.04.33.44.8 1.23 2 2.13 2.9.9.9 2.15 1.74 3.01 2.23.11.06.23.08.35.05.12-.03.22-.11.29-.21l1.27-1.93a1.493 1.493 0 012.05-.33l.66.46c1.24.86 2.57 1.84 3.59 3.14.16.21.26.46.3.72.03.26 0 .53-.11.77-.84 1.95-2.95 3.62-5.16 3.53l-.3-.02-.23-.02-.26-.03-.28-.04-.3-.05c-.05 0-.11-.02-.16-.03l-.34-.07c-.06-.01-.12-.03-.18-.04l-.37-.09-.39-.11-.4-.13c-1.85-.63-4.19-1.86-6.59-4.26-2.4-2.4-3.63-4.75-4.26-6.59l-.13-.4-.11-.39-.09-.37-.08-.35-.06-.33-.05-.31-.04-.28-.03-.26-.02-.23-.02-.3c-.08-2.2 1.6-4.33 3.54-5.16a1.468 1.468 0 011.44.16zm8.13 3.6h.12c.73.14 1.4.5 1.91 1.03s.85 1.21.95 1.94c.04.25-.03.51-.17.72-.15.21-.37.35-.62.4-.25.05-.51 0-.73-.13-.22-.14-.37-.35-.44-.6l-.02-.11c-.04-.29-.16-.56-.35-.77-.19-.22-.44-.38-.72-.46l-.15-.03a.965.965 0 01-.63-.39.999.999 0 01.16-1.36c.2-.16.45-.25.7-.23zm0-3.04c1.59 0 3.12.63 4.24 1.76a5.987 5.987 0 011.76 4.24c0 .25-.1.5-.27.69a.94.94 0 01-.67.31c-.25.01-.51-.07-.7-.23a.98.98 0 01-.35-.65v-.12c0-1.02-.39-1.99-1.09-2.73a4.007 4.007 0 00-2.66-1.26h-.26a1 1 0 01-.71-.3c-.19-.19-.29-.44-.29-.71s.11-.52.29-.71a.99.99 0 01.71-.29z"/></symbol><symbol id="pinterest"><path d="M12 22c5.52 0 10-4.48 10-10S17.52 2 12 2 2 6.48 2 12c0 4.01 2.36 7.46 5.76 9.06l2.29-10.77c.06-.26.22-.48.44-.62s.49-.19.75-.14c.26.05.48.21.63.43.14.22.2.49.15.74-.27 1.29-.51 1.79-.5 2.39.02.94.27 1.44.52 1.7s.62.41 1.09.4c.49 0 1.04-.18 1.53-.49.95-.6 1.36-1.62 1.36-2.71a3.979 3.979 0 00-1.48-3.1 4.022 4.022 0 00-3.34-.81 3.985 3.985 0 00-2.73 2.08c-.27.53-.43 1.11-.44 1.7-.02.59.09 1.18.33 1.73.1.24.1.51 0 .75s-.29.43-.53.54c-.24.1-.51.11-.75.02a.982.982 0 01-.55-.51c-.4-.91-.56-1.91-.48-2.9s.41-1.95.96-2.78a6.009 6.009 0 017.87-1.99c.88.47 1.62 1.16 2.17 1.99.55.83.88 1.79.96 2.78.08.99-.08 1.99-.48 2.9-.37.85-1.04 1.53-1.79 2.01-.76.47-1.66.78-2.56.79-.82.01-1.67-.21-2.36-.81l-1.13 5.33c.75.18 1.53.27 2.34.27z"/></symbol><symbol id="plus"><path d="M13.3 13.27h6.42a1.296 1.296 0 001.29-1.29 1.296 1.296 0 00-1.29-1.29H13.3V4.27c0-.17-.03-.34-.1-.49s-.16-.3-.28-.42c-.12-.12-.26-.21-.42-.28-.16-.06-.32-.1-.49-.1-.17 0-.34.03-.49.1-.16.06-.3.16-.42.28-.12.12-.21.26-.28.42-.06.16-.1.32-.1.49v6.42H4.3c-.17 0-.34.03-.5.09-.16.06-.3.16-.42.28-.12.12-.22.26-.28.42-.07.16-.1.33-.1.5 0 .17.03.34.1.5.07.16.16.3.28.42.12.12.27.21.42.28.16.06.33.09.5.09h6.42v6.42c0 .17.03.34.09.5.06.16.16.3.28.42.12.12.26.22.42.28.16.07.33.1.5.1.17 0 .34-.03.5-.1s.3-.16.42-.28c.12-.12.21-.27.28-.42.06-.16.09-.33.09-.5v-6.42z" fill-rule="evenodd"/></symbol><symbol id="whatsapp"><path fill-rule="evenodd" d="M12 2a10 10 0 00-8.56 15.17l-.89 3.03a.96.96 0 000 .53c.04.18.14.34.26.46.13.13.29.22.46.26.18.04.36.04.53 0l3.03-.89A10 10 0 1012 2zM9.74 14.26c2.02 2.02 3.95 2.29 4.64 2.31 1.04.04 2.05-.75 2.44-1.67.05-.11.07-.24.05-.36a.73.73 0 00-.14-.34c-.55-.7-1.29-1.2-2.01-1.7a.74.74 0 00-.52-.12.7.7 0 00-.45.28l-.6.91s-.08.08-.14.1a.32.32 0 01-.17-.02 7.1 7.1 0 01-1.43-1.06c-.43-.43-.8-.99-1.01-1.37-.03-.05-.03-.1-.02-.16a.2.2 0 01.09-.13l.92-.69a.7.7 0 00.12-.94c-.45-.66-.97-1.49-1.73-2.04a.7.7 0 00-.68-.08c-.92.39-1.72 1.4-1.68 2.44.03.68.29 2.61 2.31 4.64z"/></symbol><symbol id="youtube"><path fill-rule="evenodd" d="M12 4c.85 0 1.73.02 2.58.06l1 .05.96.06.9.06.82.06a3.8 3.8 0 013.49 3.43l.04.42.08.91c.07.94.12 1.97.12 2.95s-.05 2.01-.12 2.95l-.08.91-.04.42a3.83 3.83 0 01-1.12 2.35 3.74 3.74 0 01-2.37 1.07l-.82.06-.9.06-.96.06-1 .05a55.52 55.52 0 01-5.16 0l-1-.05-.96-.06-.9-.06-.82-.06a3.8 3.8 0 01-3.49-3.43l-.04-.42-.08-.91a36.37 36.37 0 010-5.9l.08-.91.04-.42a3.83 3.83 0 013.49-3.43l.82-.06.9-.06.96-.06 1-.05c.85-.04 1.73-.06 2.58-.06zm-2 5.57v4.85c0 .46.5.75.9.52l4.2-2.42a.58.58 0 00.22-.22.61.61 0 000-.6.58.58 0 00-.22-.22l-4.2-2.42a.61.61 0 00-.6 0 .58.58 0 00-.22.22.61.61 0 00-.08.3z"/></symbol></svg>