<svg xmlns="http://www.w3.org/2000/svg" xmlns:xlink="http://www.w3.org/1999/xlink" style="display:none"><symbol id="address"><path fill-rule="evenodd" d="M17.55 16.11c.22-.11.47-.13.71-.07s.44.21.58.42l.06.1 2 4c.07.14.11.3.11.46 0 .16-.04.32-.12.46a.99.99 0 01-.75.52H4.01c-.16 0-.32-.04-.46-.11a1.06 1.06 0 01-.36-.31 1.14 1.14 0 01-.18-.44c-.02-.16 0-.32.05-.47l.05-.12 2-4a1 1 0 011.84.79l-.05.11L5.62 20h12.76l-1.28-2.55a.96.96 0 01-.05-.76.99.99 0 01.5-.58zM12 2a7 7 0 017 7c0 2.38-1.29 4.32-2.62 5.69-.74.75-1.55 1.42-2.42 2.01l-.37.25-.33.21-.15.09-.26.15c-.53.3-1.17.3-1.7 0l-.26-.15-.31-.19-.17-.11-.37-.25a16.04 16.04 0 01-2.42-2.01C6.29 13.32 5 11.38 5 9a7 7 0 017-7zm0 5c-.53 0-1.04.21-1.41.59a1.98 1.98 0 000 2.82 1.98 1.98 0 002.82 0 1.98 1.98 0 000-2.82A1.98 1.98 0 0012 7z"/></symbol><symbol id="asterisk"><path d="M2.93 4.47L0 3.62l.45-1.43 2.92 1.06L3.29 0h1.48l-.1 3.3 2.88-1L8 3.69l-3 .86 1.94 2.56-1.2.89-1.8-2.72-1.75 2.65L1 7.07z"/></symbol><symbol id="briefcase"><path d="M13.67 4.49a2.5 2.5 0 012.5 2.5h2.5c.92 0 1.66.75 1.67 1.67v9.17c0 .92-.75 1.66-1.67 1.67H5.33c-.92 0-1.66-.75-1.67-1.67V8.66c0-.92.75-1.66 1.67-1.67h2.5a2.5 2.5 0 012.5-2.5zm4.17 5.83H6.17a.8.8 0 00-.57.23c-.15.15-.25.35-.26.56 0 .21.06.42.19.58.14.16.33.27.54.29h5.1v.83c0 .21.08.42.23.57s.35.25.56.26.42-.06.58-.19a.83.83 0 00.29-.54v-.93h5c.21 0 .42-.08.57-.23s.25-.35.26-.56c0-.21-.06-.42-.19-.58a.83.83 0 00-.54-.29h-.1zm-4.17-4.17h-3.33c-.42 0-.77.32-.82.74v.1h4.99c0-.42-.32-.77-.74-.82h-.1z"/></symbol><symbol id="chevron-down"><path d="M11.07 14.06a1.499 1.499 0 01-2.12 0L3.29 8.4a1.499 1.499 0 112.12-2.12l4.6 4.6 4.6-4.6a1.493 1.493 0 012.1.02c.28.28.44.65.44 1.05 0 .39-.15.77-.42 1.06l-5.66 5.66z" fill-rule="evenodd"/></symbol><symbol id="chevron-left"><path d="M6.11 11.07a1.499 1.499 0 010-2.12l5.66-5.66a1.499 1.499 0 112.12 2.12l-4.6 4.6 4.6 4.6a1.493 1.493 0 01-.02 2.1c-.28.28-.65.44-1.05.44-.39 0-.77-.15-1.06-.42L6.1 11.07z" fill-rule="evenodd"/></symbol><symbol id="chevron-right"><path d="M13.89 8.93a1.499 1.499 0 010 2.12l-5.66 5.66a1.499 1.499 0 11-2.12-2.12l4.6-4.6-4.6-4.6a1.493 1.493 0 01.02-2.1c.28-.28.65-.44 1.05-.44.39 0 .77.15 1.06.42l5.66 5.66z" fill-rule="evenodd"/></symbol><symbol id="chevron-up"><path d="M8.93 6.11a1.499 1.499 0 012.12 0l5.66 5.66a1.499 1.499 0 11-2.12 2.12l-4.6-4.6-4.6 4.6a1.493 1.493 0 01-2.1-.02c-.28-.28-.44-.65-.44-1.05 0-.39.15-.77.42-1.06L8.93 6.1z" fill-rule="evenodd"/></symbol><symbol id="facebook"><path d="M13.5 21.94a10 10 0 10-3 .01v-6.89H9a1.5 1.5 0 010-3h1.5v-2a3.5 3.5 0 013.5-3.5h.5a1.5 1.5 0 010 3H14a.47.47 0 00-.35.15.5.5 0 00-.15.35v2H15a1.5 1.5 0 010 3h-1.5v6.89z"/></symbol><symbol id="heart"><path d="M18.49 3.8a7.39 7.39 0 013.5 6.59c-.14 6.11-8.5 10.61-10 10.61S2.14 16.5 2 10.39A7.4 7.4 0 015.5 3.8a5.55 5.55 0 016.49.54 5.57 5.57 0 016.49-.54z"/></symbol><symbol id="home"><path d="M16.4 19H3.6C2.17 19 1 17.87 1 16.48V7.7c0-.66.33-1.28.89-1.66l6.93-4.68c.7-.48 1.65-.48 2.36 0l6.93 4.69c.56.38.89 1 .89 1.66v8.78c0 1.39-1.17 2.52-2.6 2.52zM3 7.7v8.78c0 .29.27.52.6.52h12.8c.33 0 .6-.23.6-.52V7.7l-6.94-4.69s-.08-.02-.12 0L3.01 7.7z"/></symbol><symbol id="instagram"><path d="M16 3a5 5 0 015 5v8a5 5 0 01-5 5H8a5 5 0 01-5-5V8a5 5 0 015-5h8zm-4 5a4 4 0 100 8 4 4 0 000-8zm0 2a2.03 2.03 0 012 2 2.03 2.03 0 01-2 2 2.03 2.03 0 01-2-2 2.03 2.03 0 012-2zm4.5-3.5a.99.99 0 00-1 1 .99.99 0 001 1 .99.99 0 001-1 .99.99 0 00-1-1z"/></symbol><symbol id="link"><path d="M18 11c-.55 0-1 .45-1 1v6c0 .26-.11.52-.29.71s-.44.29-.71.29H6c-.26 0-.52-.11-.71-.29A.99.99 0 015 18V8c0-.26.11-.52.29-.71A.99.99 0 016 7h6c.55 0 1-.45 1-1s-.45-1-1-1H6c-.8 0-1.55.31-2.12.88C3.31 6.45 3 7.2 3 8v10c0 .8.31 1.55.88 2.12.57.57 1.32.88 2.12.88h10c.8 0 1.55-.31 2.12-.88S19 18.8 19 18v-6c0-.55-.45-1-1-1z"/><path d="M20.92 3.62A1.019 1.019 0 0020 3h-5c-.55 0-1 .45-1 1s.45 1 1 1h2.59l-7.29 7.29a.996.996 0 00.71 1.7c.26 0 .51-.1.71-.29l7.29-7.29V9c0 .55.45 1 1 1s1-.45 1-1V4c0-.13-.03-.26-.08-.38z"/></symbol><symbol id="linkedin"><path fill-rule="evenodd" d="M18 3a3 3 0 013 3v12a3 3 0 01-3 3H6a3 3 0 01-3-3V6a3 3 0 013-3h12zM8 10a.99.99 0 00-1 1v5a.99.99 0 001 1 .99.99 0 001-1v-5a.99.99 0 00-1-1zm3-1a.99.99 0 00-1 1v6c0 .27.11.52.29.71s.44.29.71.29.52-.11.71-.29.29-.44.29-.71v-3.66a4.2 4.2 0 011.39-.99c.33-.14.83-.2 1.18-.09.15.05.24.12.29.19.05.07.13.23.13.56v4c0 .27.11.52.29.71s.44.29.71.29.52-.11.71-.29.29-.44.29-.71v-4c0-.67-.17-1.27-.52-1.74a2.6 2.6 0 00-1.3-.91 3.89 3.89 0 00-3.19.47.99.99 0 00-.98-.82zM8 7a.99.99 0 00-1 1 .99.99 0 001 1 .99.99 0 001-1 .99.99 0 00-1-1z"/></symbol><symbol id="mail"><path d="M2.07 5.48l8.87 8.88a1.492 1.492 0 002 .11l.11-.1 8.87-8.87c.03.11.05.22.06.34v12.18c0 .5-.19.99-.53 1.36-.34.37-.81.6-1.32.63H3.98c-.5 0-.99-.19-1.36-.53-.37-.34-.6-.81-.63-1.32v-.15-12c0-.12 0-.24.03-.35l.04-.17zM20 4c.12 0 .24.01.35.03l.17.04L12 12.59 3.48 4.07c.11-.03.22-.05.34-.06H20z"/></symbol><symbol id="phone"><path d="M7.01 2.29c1.14.83 2.03 1.97 2.79 3.06l.44.64.42.62a1.493 1.493 0 01-.26 1.98l-1.95 1.45c-.09.07-.16.17-.19.28-.03.11-.01.23.04.33.44.8 1.23 2 2.13 2.9.9.9 2.15 1.74 3.01 2.23.11.06.23.08.35.05.12-.03.22-.11.29-.21l1.27-1.93a1.493 1.493 0 012.05-.33l.66.46c1.24.86 2.57 1.84 3.59 3.14.16.21.26.46.3.72.03.26 0 .53-.11.77-.84 1.95-2.95 3.62-5.16 3.53l-.3-.02-.23-.02-.26-.03-.28-.04-.3-.05c-.05 0-.11-.02-.16-.03l-.34-.07c-.06-.01-.12-.03-.18-.04l-.37-.09-.39-.11-.4-.13c-1.85-.63-4.19-1.86-6.59-4.26-2.4-2.4-3.63-4.75-4.26-6.59l-.13-.4-.11-.39-.09-.37-.08-.35-.06-.33-.05-.31-.04-.28-.03-.26-.02-.23-.02-.3c-.08-2.2 1.6-4.33 3.54-5.16a1.468 1.468 0 011.44.16zm8.13 3.6h.12c.73.14 1.4.5 1.91 1.03s.85 1.21.95 1.94c.04.25-.03.51-.17.72-.15.21-.37.35-.62.4-.25.05-.51 0-.73-.13-.22-.14-.37-.35-.44-.6l-.02-.11c-.04-.29-.16-.56-.35-.77-.19-.22-.44-.38-.72-.46l-.15-.03a.965.965 0 01-.63-.39.999.999 0 01.16-1.36c.2-.16.45-.25.7-.23zm0-3.04c1.59 0 3.12.63 4.24 1.76a5.987 5.987 0 011.76 4.24c0 .25-.1.5-.27.69a.94.94 0 01-.67.31c-.25.01-.51-.07-.7-.23a.98.98 0 01-.35-.65v-.12c0-1.02-.39-1.99-1.09-2.73a4.007 4.007 0 00-2.66-1.26h-.26a1 1 0 01-.71-.3c-.19-.19-.29-.44-.29-.71s.11-.52.29-.71a.99.99 0 01.71-.29z"/></symbol><symbol id="pinterest"><path d="M12 22c5.52 0 10-4.48 10-10S17.52 2 12 2 2 6.48 2 12c0 4.01 2.36 7.46 5.76 9.06l2.29-10.77c.06-.26.22-.48.44-.62s.49-.19.75-.14c.26.05.48.21.63.43.14.22.2.49.15.74-.27 1.29-.51 1.79-.5 2.39.02.94.27 1.44.52 1.7s.62.41 1.09.4c.49 0 1.04-.18 1.53-.49.95-.6 1.36-1.62 1.36-2.71a3.979 3.979 0 00-1.48-3.1 4.022 4.022 0 00-3.34-.81 3.985 3.985 0 00-2.73 2.08c-.27.53-.43 1.11-.44 1.7-.02.59.09 1.18.33 1.73.1.24.1.51 0 .75s-.29.43-.53.54c-.24.1-.51.11-.75.02a.982.982 0 01-.55-.51c-.4-.91-.56-1.91-.48-2.9s.41-1.95.96-2.78a6.009 6.009 0 017.87-1.99c.88.47 1.62 1.16 2.17 1.99.55.83.88 1.79.96 2.78.08.99-.08 1.99-.48 2.9-.37.85-1.04 1.53-1.79 2.01-.76.47-1.66.78-2.56.79-.82.01-1.67-.21-2.36-.81l-1.13 5.33c.75.18 1.53.27 2.34.27z"/></symbol><symbol id="plus"><path d="M13.3 13.27h6.42a1.296 1.296 0 001.29-1.29 1.296 1.296 0 00-1.29-1.29H13.3V4.27c0-.17-.03-.34-.1-.49s-.16-.3-.28-.42c-.12-.12-.26-.21-.42-.28-.16-.06-.32-.1-.49-.1-.17 0-.34.03-.49.1-.16.06-.3.16-.42.28-.12.12-.21.26-.28.42-.06.16-.1.32-.1.49v6.42H4.3c-.17 0-.34.03-.5.09-.16.06-.3.16-.42.28-.12.12-.22.26-.28.42-.07.16-.1.33-.1.5 0 .17.03.34.1.5.07.16.16.3.28.42.12.12.27.21.42.28.16.06.33.09.5.09h6.42v6.42c0 .17.03.34.09.5.06.16.16.3.28.42.12.12.26.22.42.28.16.07.33.1.5.1.17 0 .34-.03.5-.1s.3-.16.42-.28c.12-.12.21-.27.28-.42.06-.16.09-.33.09-.5v-6.42z" fill-rule="evenodd"/></symbol><symbol id="quote"><path d="M21.29 19h-2.44c-.95 0-1.71-.79-1.71-1.75V12.6c0-1.1-1-2-2.23-2h-1.22c-.94 0-1.71-.79-1.71-1.75v-2.1c0-.96.77-1.75 1.71-1.75h1.22c4.46 0 8.1 3.41 8.1 7.6v4.65c0 .96-.77 1.75-1.71 1.75zm-2.16-2H21v-4.4C21 9.51 18.26 7 14.9 7h-.94v1.6h.94c2.33 0 4.23 1.79 4.23 4V17zm-8.81 2H7.88c-.95 0-1.71-.79-1.71-1.75V12.6c0-1.1-1-2-2.23-2H2.72c-.95 0-1.71-.79-1.71-1.75v-2.1c0-.96.77-1.75 1.71-1.75h1.22c4.46 0 8.1 3.41 8.1 7.6v4.65c0 .96-.77 1.75-1.71 1.75zm-2.16-2h1.87v-4.4c0-3.09-2.73-5.6-6.1-5.6h-.94v1.6h.94c2.33 0 4.23 1.79 4.23 4V17z"/></symbol><symbol id="search"><path fill-rule="evenodd" d="M11 2a9 9 0 017.03 14.62l3.68 3.68a.996.996 0 11-1.41 1.41l-3.68-3.68A9 9 0 1111 2m0 2c-3.87 0-7 3.13-7 7s3.13 7 7 7c1.94 0 3.69-.78 4.96-2.06A7 7 0 0018 11c0-3.87-3.13-7-7-7"/></symbol><symbol id="timer"><path d="M19.49 9.01c0-.22.07-.44.19-.63s.3-.33.5-.41c.21-.09.43-.11.65-.06.22.04.42.15.58.31s.26.36.31.58a1.114 1.114 0 01-1.09 1.34c-.3 0-.58-.12-.8-.33-.21-.21-.33-.5-.33-.8zm-1.12-2.25c.22 0 .44-.07.62-.19.19-.12.33-.3.41-.5.09-.21.11-.43.06-.65a1.1 1.1 0 00-.31-.58c-.16-.16-.36-.26-.58-.31-.22-.04-.44-.02-.65.06a1.12 1.12 0 00-.69 1.04c0 .3.12.58.33.8.21.21.5.33.8.33zm2.69 5.25a.75.75 0 00-.55.18c-.15.13-.25.31-.26.51a8.17 8.17 0 01-1.67 4.31 8.278 8.278 0 01-12.41.83 8.28 8.28 0 01-1.93-8.68 8.3 8.3 0 012.74-3.73 8.2 8.2 0 014.31-1.67c.1 0 .19-.04.28-.08.09-.05.17-.11.23-.18.06-.08.11-.16.14-.26.03-.09.04-.19.03-.29 0-.1-.04-.19-.08-.28-.05-.09-.11-.17-.18-.23s-.16-.11-.26-.14a.7.7 0 00-.29-.03c-1.85.16-3.62.84-5.1 1.97a9.76 9.76 0 00-3.6 9.86 9.66 9.66 0 002.63 4.79 9.8 9.8 0 004.79 2.63 9.76 9.76 0 009.86-3.6 9.7 9.7 0 001.97-5.1c0-.1 0-.2-.03-.29a1 1 0 00-.14-.26.6.6 0 00-.23-.18.7.7 0 00-.28-.08zM12 5.26a6.76 6.76 0 016.24 4.17 6.76 6.76 0 01-1.47 7.36 6.76 6.76 0 01-7.36 1.47 6.76 6.76 0 01-4.17-6.24c0-1.79.71-3.51 1.98-4.77a6.74 6.74 0 014.77-1.98zm-.75 6.75a.75.75 0 00.75.75h4.5a.75.75 0 000-1.5h-3.75V7.51a.75.75 0 00-1.5 0zM15 4.51c.22 0 .44-.07.62-.19s.33-.3.41-.5c.09-.21.11-.43.06-.65s-.15-.42-.31-.58-.36-.26-.58-.31c-.22-.04-.44-.02-.65.06s-.38.23-.5.41-.19.4-.19.63c0 .3.12.58.33.8.21.21.5.33.8.33z"/></symbol><symbol id="truck"><path d="M23.92 13.63l-.06-.16-1.79-4.03-.05-.11a1.6 1.6 0 00-1.41-.84H16v-1.4c0-.88-.72-1.6-1.6-1.6H1c-.55 0-1 .45-1 1s.45 1 1 1h13v9h-3.17a3 3 0 00-5.66 0H4v-4.5c0-.55-.45-1-1-1s-1 .45-1 1v4.9c0 .88.72 1.6 1.6 1.6h1.57a3 3 0 005.66 0h4.35a3 3 0 005.66 0h1.57c.88 0 1.6-.72 1.6-1.6v-2.77q0-.25-.08-.49zM8 18.5c-.55 0-1-.45-1-1s.45-1 1-1 1 .45 1 1-.45 1-1 1m10 0c-.55 0-1-.45-1-1s.45-1 1-1 1 .45 1 1-.45 1-1 1m4-2h-1.17A3 3 0 0016 15.27V10.5h4.35L22 14.21z"/><path d="M6 10.5c.55 0 1-.45 1-1s-.45-1-1-1H2c-.55 0-1 .45-1 1s.45 1 1 1z"/></symbol><symbol id="voice"><path d="M18.2 19.02a.76.76 0 01.11.8c-.06.13-.16.24-.28.32s-.26.12-.4.12H1.87c-.14 0-.28-.04-.4-.12a.8.8 0 01-.28-.32q-.09-.195-.06-.42c.02-.14.08-.27.17-.38 1.4-1.67 3.14-2.85 5.08-3.48a6.37 6.37 0 01-2.76-7.16 6.38 6.38 0 016.13-4.63 6.383 6.383 0 015.95 8.67c-.5 1.29-1.4 2.39-2.58 3.12 1.94.63 3.68 1.82 5.08 3.48m-.12-13.26a.7.7 0 00-.24.17c-.07.07-.12.15-.16.25-.04.09-.06.19-.05.29 0 .1.02.2.06.29.46 1.07.69 2.22.69 3.39s-.23 2.31-.69 3.39c-.08.18-.08.39 0 .57s.22.33.4.41.39.08.57 0c.18-.07.33-.22.41-.4.53-1.26.81-2.61.81-3.98s-.28-2.72-.81-3.98a.76.76 0 00-.41-.4.8.8 0 00-.57 0zm3.74-.8a.74.74 0 00-.41-.42.72.72 0 00-.58 0c-.09.04-.18.1-.25.17s-.12.16-.16.25-.05.19-.05.29.03.2.07.29c.62 1.45.94 3.01.94 4.58s-.32 3.13-.94 4.58a.73.73 0 00-.02.58.74.74 0 00.41.42.72.72 0 00.58 0c.09-.04.18-.1.25-.17s.13-.16.16-.25c.7-1.63 1.06-3.39 1.06-5.17s-.36-3.54-1.06-5.17z"/></symbol><symbol id="weather"><path d="M15.32 7.09c-.64 0-1.28.09-1.9.26-.24-.4-.54-.76-.88-1.08L13.43 5q.09-.12.12-.27c.02-.1.02-.2 0-.29a.64.64 0 00-.11-.27c-.05-.08-.12-.15-.2-.21s-.17-.1-.27-.12-.2-.02-.29 0c-.1.02-.19.05-.27.11-.08.05-.15.12-.21.2l-.89 1.27c-.73-.37-1.54-.56-2.36-.56h-.16l-.27-1.53c-.01-.1-.05-.2-.1-.28-.05-.09-.12-.16-.2-.22s-.17-.1-.27-.12a.6.6 0 00-.3 0 .75.75 0 00-.49.32.57.57 0 00-.11.28q-.03.15 0 .3l.27 1.53c-.83.28-1.58.75-2.18 1.39l-1.28-.89a.7.7 0 00-.27-.12.6.6 0 00-.29 0c-.1.02-.19.05-.28.11-.08.05-.16.12-.21.2a.7.7 0 00-.12.56c.02.1.05.19.11.27a.7.7 0 00.21.21l1.27.89c-.37.73-.56 1.54-.56 2.37v.16l-1.53.27a.77.77 0 00-.47.28.76.76 0 00.09 1.01c.14.13.32.2.51.2.04 0 .09 0 .13-.01l1.53-.27c.13.41.32.8.55 1.16a4.88 4.88 0 00-1.23 5.35c.36.91.98 1.69 1.79 2.25.81.55 1.76.85 2.74.85h7.5c1.89 0 3.7-.75 5.04-2.09a7.12 7.12 0 000-10.08 7.12 7.12 0 00-5.04-2.09zm-6.66 4.57c-.99-.17-2-.03-2.91.39-.5-.83-.66-1.82-.45-2.76s.78-1.77 1.59-2.31c.81-.53 1.79-.74 2.74-.56.95.17 1.8.71 2.37 1.49a7.17 7.17 0 00-3.34 3.75"/></symbol><symbol id="whatsapp"><path fill-rule="evenodd" d="M12 2a10 10 0 00-8.56 15.17l-.89 3.03a.96.96 0 000 .53c.04.18.14.34.26.46.13.13.29.22.46.26.18.04.36.04.53 0l3.03-.89A10 10 0 1012 2zM9.74 14.26c2.02 2.02 3.95 2.29 4.64 2.31 1.04.04 2.05-.75 2.44-1.67.05-.11.07-.24.05-.36a.73.73 0 00-.14-.34c-.55-.7-1.29-1.2-2.01-1.7a.74.74 0 00-.52-.12.7.7 0 00-.45.28l-.6.91s-.08.08-.14.1a.32.32 0 01-.17-.02 7.1 7.1 0 01-1.43-1.06c-.43-.43-.8-.99-1.01-1.37-.03-.05-.03-.1-.02-.16a.2.2 0 01.09-.13l.92-.69a.7.7 0 00.12-.94c-.45-.66-.97-1.49-1.73-2.04a.7.7 0 00-.68-.08c-.92.39-1.72 1.4-1.68 2.44.03.68.29 2.61 2.31 4.64z"/></symbol><symbol id="youtube"><path fill-rule="evenodd" d="M12 4c.85 0 1.73.02 2.58.06l1 .05.96.06.9.06.82.06a3.8 3.8 0 013.49 3.43l.04.42.08.91c.07.94.12 1.97.12 2.95s-.05 2.01-.12 2.95l-.08.91-.04.42a3.83 3.83 0 01-1.12 2.35 3.74 3.74 0 01-2.37 1.07l-.82.06-.9.06-.96.06-1 .05a55.52 55.52 0 01-5.16 0l-1-.05-.96-.06-.9-.06-.82-.06a3.8 3.8 0 01-3.49-3.43l-.04-.42-.08-.91a36.37 36.37 0 010-5.9l.08-.91.04-.42a3.83 3.83 0 013.49-3.43l.82-.06.9-.06.96-.06 1-.05c.85-.04 1.73-.06 2.58-.06zm-2 5.57v4.85c0 .46.5.75.9.52l4.2-2.42a.58.58 0 00.22-.22.61.61 0 000-.6.58.58 0 00-.22-.22l-4.2-2.42a.61.61 0 00-.6 0 .58.58 0 00-.22.22.61.61 0 00-.08.3z"/></symbol></svg>