<svg xmlns="http://www.w3.org/2000/svg" xmlns:xlink="http://www.w3.org/1999/xlink" style="display:none"><symbol id="chevron-down"><path d="M11.07 14.06a1.499 1.499 0 01-2.12 0L3.29 8.4a1.499 1.499 0 112.12-2.12l4.6 4.6 4.6-4.6a1.493 1.493 0 012.1.02c.28.28.44.65.44 1.05 0 .39-.15.77-.42 1.06l-5.66 5.66z" fill-rule="evenodd"/></symbol><symbol id="chevron-left"><path d="M6.11 11.07a1.499 1.499 0 010-2.12l5.66-5.66a1.499 1.499 0 112.12 2.12l-4.6 4.6 4.6 4.6a1.493 1.493 0 01-.02 2.1c-.28.28-.65.44-1.05.44-.39 0-.77-.15-1.06-.42L6.1 11.07z" fill-rule="evenodd"/></symbol><symbol id="chevron-right"><path d="M13.89 8.93a1.499 1.499 0 010 2.12l-5.66 5.66a1.499 1.499 0 11-2.12-2.12l4.6-4.6-4.6-4.6a1.493 1.493 0 01.02-2.1c.28-.28.65-.44 1.05-.44.39 0 .77.15 1.06.42l5.66 5.66z" fill-rule="evenodd"/></symbol><symbol id="chevron-up"><path d="M8.93 6.11a1.499 1.499 0 012.12 0l5.66 5.66a1.499 1.499 0 11-2.12 2.12l-4.6-4.6-4.6 4.6a1.493 1.493 0 01-2.1-.02c-.28-.28-.44-.65-.44-1.05 0-.39.15-.77.42-1.06L8.93 6.1z" fill-rule="evenodd"/></symbol><symbol id="facebook"><path d="M13.5 21.94a10 10 0 10-3 .01v-6.89H9a1.5 1.5 0 010-3h1.5v-2a3.5 3.5 0 013.5-3.5h.5a1.5 1.5 0 010 3H14a.47.47 0 00-.35.15.5.5 0 00-.15.35v2H15a1.5 1.5 0 010 3h-1.5v6.89z"/></symbol><symbol id="home"><path d="M16.4 19H3.6C2.17 19 1 17.87 1 16.48V7.7c0-.66.33-1.28.89-1.66l6.93-4.68c.7-.48 1.65-.48 2.36 0l6.93 4.69c.56.38.89 1 .89 1.66v8.78c0 1.39-1.17 2.52-2.6 2.52zM3 7.7v8.78c0 .29.27.52.6.52h12.8c.33 0 .6-.23.6-.52V7.7l-6.94-4.69s-.08-.02-.12 0L3.01 7.7z"/></symbol><symbol id="instagram"><path d="M16 3a5 5 0 015 5v8a5 5 0 01-5 5H8a5 5 0 01-5-5V8a5 5 0 015-5h8zm-4 5a4 4 0 100 8 4 4 0 000-8zm0 2a2.03 2.03 0 012 2 2.03 2.03 0 01-2 2 2.03 2.03 0 01-2-2 2.03 2.03 0 012-2zm4.5-3.5a.99.99 0 00-1 1 .99.99 0 001 1 .99.99 0 001-1 .99.99 0 00-1-1z"/></symbol><symbol id="linkedin"><path fill-rule="evenodd" d="M18 3a3 3 0 013 3v12a3 3 0 01-3 3H6a3 3 0 01-3-3V6a3 3 0 013-3h12zM8 10a.99.99 0 00-1 1v5a.99.99 0 001 1 .99.99 0 001-1v-5a.99.99 0 00-1-1zm3-1a.99.99 0 00-1 1v6c0 .27.11.52.29.71s.44.29.71.29.52-.11.71-.29.29-.44.29-.71v-3.66a4.2 4.2 0 011.39-.99c.33-.14.83-.2 1.18-.09.15.05.24.12.29.19.05.07.13.23.13.56v4c0 .27.11.52.29.71s.44.29.71.29.52-.11.71-.29.29-.44.29-.71v-4c0-.67-.17-1.27-.52-1.74a2.6 2.6 0 00-1.3-.91 3.89 3.89 0 00-3.19.47.99.99 0 00-.98-.82zM8 7a.99.99 0 00-1 1 .99.99 0 001 1 .99.99 0 001-1 .99.99 0 00-1-1z"/></symbol><symbol id="mail"><path d="M2.07 5.48l8.87 8.88a1.492 1.492 0 002 .11l.11-.1 8.87-8.87c.03.11.05.22.06.34v12.18c0 .5-.19.99-.53 1.36-.34.37-.81.6-1.32.63H3.98c-.5 0-.99-.19-1.36-.53-.37-.34-.6-.81-.63-1.32v-.15-12c0-.12 0-.24.03-.35l.04-.17zM20 4c.12 0 .24.01.35.03l.17.04L12 12.59 3.48 4.07c.11-.03.22-.05.34-.06H20z"/></symbol><symbol id="phone"><path d="M7.01 2.29c1.14.83 2.03 1.97 2.79 3.06l.44.64.42.62a1.493 1.493 0 01-.26 1.98l-1.95 1.45c-.09.07-.16.17-.19.28-.03.11-.01.23.04.33.44.8 1.23 2 2.13 2.9.9.9 2.15 1.74 3.01 2.23.11.06.23.08.35.05.12-.03.22-.11.29-.21l1.27-1.93a1.493 1.493 0 012.05-.33l.66.46c1.24.86 2.57 1.84 3.59 3.14.16.21.26.46.3.72.03.26 0 .53-.11.77-.84 1.95-2.95 3.62-5.16 3.53l-.3-.02-.23-.02-.26-.03-.28-.04-.3-.05c-.05 0-.11-.02-.16-.03l-.34-.07c-.06-.01-.12-.03-.18-.04l-.37-.09-.39-.11-.4-.13c-1.85-.63-4.19-1.86-6.59-4.26-2.4-2.4-3.63-4.75-4.26-6.59l-.13-.4-.11-.39-.09-.37-.08-.35-.06-.33-.05-.31-.04-.28-.03-.26-.02-.23-.02-.3c-.08-2.2 1.6-4.33 3.54-5.16a1.468 1.468 0 011.44.16zm8.13 3.6h.12c.73.14 1.4.5 1.91 1.03s.85 1.21.95 1.94c.04.25-.03.51-.17.72-.15.21-.37.35-.62.4-.25.05-.51 0-.73-.13-.22-.14-.37-.35-.44-.6l-.02-.11c-.04-.29-.16-.56-.35-.77-.19-.22-.44-.38-.72-.46l-.15-.03a.965.965 0 01-.63-.39.999.999 0 01.16-1.36c.2-.16.45-.25.7-.23zm0-3.04c1.59 0 3.12.63 4.24 1.76a5.987 5.987 0 011.76 4.24c0 .25-.1.5-.27.69a.94.94 0 01-.67.31c-.25.01-.51-.07-.7-.23a.98.98 0 01-.35-.65v-.12c0-1.02-.39-1.99-1.09-2.73a4.007 4.007 0 00-2.66-1.26h-.26a1 1 0 01-.71-.3c-.19-.19-.29-.44-.29-.71s.11-.52.29-.71a.99.99 0 01.71-.29z"/></symbol><symbol id="whatsapp"><path fill-rule="evenodd" d="M12 2a10 10 0 00-8.56 15.17l-.89 3.03a.96.96 0 000 .53c.04.18.14.34.26.46.13.13.29.22.46.26.18.04.36.04.53 0l3.03-.89A10 10 0 1012 2zM9.74 14.26c2.02 2.02 3.95 2.29 4.64 2.31 1.04.04 2.05-.75 2.44-1.67.05-.11.07-.24.05-.36a.73.73 0 00-.14-.34c-.55-.7-1.29-1.2-2.01-1.7a.74.74 0 00-.52-.12.7.7 0 00-.45.28l-.6.91s-.08.08-.14.1a.32.32 0 01-.17-.02 7.1 7.1 0 01-1.43-1.06c-.43-.43-.8-.99-1.01-1.37-.03-.05-.03-.1-.02-.16a.2.2 0 01.09-.13l.92-.69a.7.7 0 00.12-.94c-.45-.66-.97-1.49-1.73-2.04a.7.7 0 00-.68-.08c-.92.39-1.72 1.4-1.68 2.44.03.68.29 2.61 2.31 4.64z"/></symbol><symbol id="youtube"><path fill-rule="evenodd" d="M12 4c.85 0 1.73.02 2.58.06l1 .05.96.06.9.06.82.06a3.8 3.8 0 013.49 3.43l.04.42.08.91c.07.94.12 1.97.12 2.95s-.05 2.01-.12 2.95l-.08.91-.04.42a3.83 3.83 0 01-1.12 2.35 3.74 3.74 0 01-2.37 1.07l-.82.06-.9.06-.96.06-1 .05a55.52 55.52 0 01-5.16 0l-1-.05-.96-.06-.9-.06-.82-.06a3.8 3.8 0 01-3.49-3.43l-.04-.42-.08-.91a36.37 36.37 0 010-5.9l.08-.91.04-.42a3.83 3.83 0 013.49-3.43l.82-.06.9-.06.96-.06 1-.05c.85-.04 1.73-.06 2.58-.06zm-2 5.57v4.85c0 .46.5.75.9.52l4.2-2.42a.58.58 0 00.22-.22.61.61 0 000-.6.58.58 0 00-.22-.22l-4.2-2.42a.61.61 0 00-.6 0 .58.58 0 00-.22.22.61.61 0 00-.08.3z"/></symbol></svg>