<svg width="56" height="56" viewBox="0 0 56 56" xmlns="http://www.w3.org/2000/svg">
<path fill-rule="evenodd" clip-rule="evenodd" d="M15.5987 2.13453C16.036 1.69738 16.7447 1.69731 17.1819 2.13453L19.6305 4.58275C21.3794 6.33176 21.3794 9.16798 19.6305 10.917L17.3164 13.2313L33.1966 29.1129L39.3173 22.9918C39.9731 22.3362 41.0363 22.3363 41.6921 22.9918L51.6216 32.9219C52.8125 34.113 53.5771 36.7413 53.1891 40.8837C52.8007 45.0263 51.5023 48.9234 50.427 49.9992C49.3513 51.0749 44.9983 52.829 40.8562 53.2173C36.714 53.6053 34.5424 52.3841 33.3513 51.1932L23.4218 41.2632C22.7663 40.6073 22.7663 39.544 23.4218 38.8882L29.5425 32.7671L13.6618 16.8855L11.3482 19.1998C9.59926 20.9488 6.76322 20.9488 5.01426 19.1998L2.56621 16.7511C2.12897 16.3138 2.12897 15.605 2.56621 15.1677L15.5987 2.13453ZM32.4006 33.0859L45.1057 45.791L46.2207 44.6758L33.5159 31.9706L32.4006 33.0859ZM15.0318 15.5144L30.9131 31.3965L31.8266 30.483L15.9453 14.6008L15.0318 15.5144ZM6.35148 17.7953C7.46141 18.9048 9.26086 18.9049 10.3707 17.7953L18.2272 9.93838C19.337 8.82841 19.337 7.02837 18.2272 5.91835L6.35148 17.7953Z" fill="#940C0C"/>
<path d="M31.1966 52.8805H2.92626C2.30797 52.8805 1.80674 52.3793 1.80664 51.761C1.80664 51.1423 2.30791 50.641 2.92626 50.641H8.33791C10.6382 43.9727 16.2081 43.7504 18.6009 44.7628C19.2726 43.4192 20.7468 42.7101 21.4 42.5234L31.1966 52.8805Z" fill="#940C0C"/>
<path d="M15.2412 36.6445C16.4779 36.6445 17.4804 37.6472 17.4804 38.8839C17.4803 40.1206 16.4778 41.1233 15.2412 41.1233C14.0046 41.1233 13.002 40.1206 13.002 38.8839C13.002 37.6472 14.0045 36.6445 15.2412 36.6445Z" fill="#940C0C"/>
</svg>
