<svg xmlns="http://www.w3.org/2000/svg" width="24" height="24" viewBox="0 0 24 24"><path fill-rule="evenodd" d="M17.55 16.11c.22-.11.47-.13.71-.07s.44.21.58.42l.06.1 2 4c.07.14.11.3.11.46 0 .16-.04.32-.12.46a.99.99 0 0 1-.75.52H4.01c-.16 0-.32-.04-.46-.11a1.06 1.06 0 0 1-.36-.31 1.14 1.14 0 0 1-.18-.44c-.02-.16 0-.32.05-.47l.05-.12 2-4a1 1 0 0 1 1.84.79l-.05.11L5.62 20h12.76l-1.28-2.55a.96.96 0 0 1-.05-.76.99.99 0 0 1 .5-.58ZM12 2a7 7 0 0 1 7 7c0 2.38-1.29 4.32-2.62 5.69-.74.75-1.55 1.42-2.42 2.01l-.37.25-.33.21-.15.09-.26.15c-.53.3-1.17.3-1.7 0l-.26-.15-.31-.19-.17-.11-.37-.25a16.04 16.04 0 0 1-2.42-2.01C6.29 13.32 5 11.38 5 9a7 7 0 0 1 7-7Zm0 5c-.53 0-1.04.21-1.41.59a1.98 1.98 0 0 0 0 2.82 1.98 1.98 0 0 0 2.82 0 1.98 1.98 0 0 0 0-2.82A1.98 1.98 0 0 0 12 7Z"/></svg>