<svg xmlns="http://www.w3.org/2000/svg" width="20" height="20" viewBox="0 0 20 20"><path d="M11.67 2.5a2.5 2.5 0 0 1 2.5 2.5h2.5a1.68 1.68 0 0 1 1.67 1.67v9.17a1.68 1.68 0 0 1-1.67 1.67H3.33a1.68 1.68 0 0 1-1.67-1.67V6.67A1.68 1.68 0 0 1 3.33 5h2.5a2.5 2.5 0 0 1 2.5-2.5h3.33Zm4.17 5.83H4.17a.81.81 0 0 0-.57.23.86.86 0 0 0-.26.56c-.01.21.06.42.19.58.14.16.33.27.54.29h5.1v.83c0 .21.08.42.23.57.15.15.35.25.56.26.21.01.42-.06.58-.19a.83.83 0 0 0 .29-.54v-.93h5c.21 0 .42-.08.57-.23a.86.86 0 0 0 .26-.56.86.86 0 0 0-.19-.58.83.83 0 0 0-.54-.29h-.1Zm-4.17-4.17H8.34a.83.83 0 0 0-.82.74V5h4.99a.83.83 0 0 0-.74-.82h-.1Z"/></svg>