<svg xmlns="http://www.w3.org/2000/svg" width="24" height="24" viewBox="0 0 24 24"><path d="M13.67 4.49a2.5 2.5 0 0 1 2.5 2.5h2.5c.92 0 1.66.75 1.67 1.67v9.17c0 .92-.75 1.66-1.67 1.67H5.33c-.92 0-1.66-.75-1.67-1.67V8.66c0-.92.75-1.66 1.67-1.67h2.5a2.5 2.5 0 0 1 2.5-2.5zm4.17 5.83H6.17a.8.8 0 0 0-.57.23c-.15.15-.25.35-.26.56 0 .21.06.42.19.58.14.16.33.27.54.29h5.1v.83c0 .21.08.42.23.57s.35.25.56.26.42-.06.58-.19a.83.83 0 0 0 .29-.54v-.93h5c.21 0 .42-.08.57-.23s.25-.35.26-.56c0-.21-.06-.42-.19-.58a.83.83 0 0 0-.54-.29h-.1zm-4.17-4.17h-3.33c-.42 0-.77.32-.82.74v.1h4.99c0-.42-.32-.77-.74-.82h-.1z"/></svg>