<svg xmlns="http://www.w3.org/2000/svg" width="24" height="24" viewBox="0 0 24 24"><path d="m18,11c-.55,0-1,.45-1,1v6c0,.26-.11.52-.29.71s-.44.29-.71.29H6c-.26,0-.52-.11-.71-.29-.19-.19-.29-.44-.29-.71V8c0-.26.11-.52.29-.71.19-.19.44-.29.71-.29h6c.55,0,1-.45,1-1s-.45-1-1-1h-6c-.8,0-1.55.31-2.12.88-.57.57-.88,1.32-.88,2.12v10c0,.8.31,1.55.88,2.12.57.57,1.32.88,2.12.88h10c.8,0,1.55-.31,2.12-.88s.88-1.32.88-2.12v-6c0-.55-.45-1-1-1Z"/><path d="m20.92,3.62c-.1-.24-.3-.44-.54-.54-.12-.05-.25-.08-.38-.08h-5c-.55,0-1,.45-1,1s.45,1,1,1h2.59l-7.29,7.29c-.39.39-.39,1.02,0,1.41.2.2.45.29.71.29s.51-.1.71-.29l7.29-7.29v2.59c0,.55.45,1,1,1s1-.45,1-1v-5c0-.13-.03-.26-.08-.38Z"/></svg>