<svg xmlns="http://www.w3.org/2000/svg" width="24" height="24" viewBox="0 0 24 24"><path fill-rule="evenodd" d="M18 3a3 3 0 0 1 3 3v12a3 3 0 0 1-3 3H6a3 3 0 0 1-3-3V6a3 3 0 0 1 3-3h12ZM8 10a.99.99 0 0 0-1 1v5a.99.99 0 0 0 1 1 .99.99 0 0 0 1-1v-5a.99.99 0 0 0-1-1Zm3-1a.99.99 0 0 0-1 1v6c0 .27.11.52.29.71s.44.29.71.29.52-.11.71-.29.29-.44.29-.71v-3.66a4.2 4.2 0 0 1 1.39-.99c.33-.14.83-.2 1.18-.09.15.05.24.12.29.19.05.07.13.23.13.56v4c0 .27.11.52.29.71s.44.29.71.29.52-.11.71-.29.29-.44.29-.71v-4c0-.67-.17-1.27-.52-1.74a2.6 2.6 0 0 0-1.3-.91 3.89 3.89 0 0 0-3.19.47.99.99 0 0 0-.98-.82ZM8 7a.99.99 0 0 0-1 1 .99.99 0 0 0 1 1 .99.99 0 0 0 1-1 .99.99 0 0 0-1-1Z"/></svg>