<svg xmlns="http://www.w3.org/2000/svg" width="24" height="24" viewBox="0 0 24 24"><path d="m7.01,2.29c1.14.83,2.03,1.97,2.79,3.06l.44.64.42.62c.21.3.3.68.25,1.04-.05.37-.23.7-.51.94l-1.95,1.45c-.09.07-.16.17-.19.28-.03.11-.01.23.04.33.44.8,1.23,2,2.13,2.9.9.9,2.15,1.74,3.01,2.23.11.06.23.08.35.05.12-.03.22-.11.29-.21l1.27-1.93c.23-.31.58-.52.96-.58.38-.06.78.03,1.09.25l.66.46c1.24.86,2.57,1.84,3.59,3.14.16.21.26.46.3.72.03.26,0,.53-.11.77-.84,1.95-2.95,3.62-5.16,3.53l-.3-.02-.23-.02-.26-.03-.28-.04-.3-.05c-.05,0-.11-.02-.16-.03l-.34-.07c-.06-.01-.12-.03-.18-.04l-.37-.09-.39-.11-.4-.13c-1.85-.63-4.19-1.86-6.59-4.26-2.4-2.4-3.63-4.75-4.26-6.59l-.13-.4-.11-.39-.09-.37-.08-.35c-.02-.11-.04-.22-.06-.33l-.05-.31-.04-.28-.03-.26-.02-.23-.02-.3c-.08-2.2,1.6-4.33,3.54-5.16.23-.1.49-.14.74-.11.25.03.5.12.7.27Zm8.13,3.6h.12c.73.14,1.4.5,1.91,1.03.51.53.85,1.21.95,1.94.04.25-.03.51-.17.72-.15.21-.37.35-.62.4-.25.05-.51,0-.73-.13-.22-.14-.37-.35-.44-.6l-.02-.11c-.04-.29-.16-.56-.35-.77-.19-.22-.44-.38-.72-.46l-.15-.03c-.25-.04-.48-.18-.63-.39-.15-.2-.22-.46-.19-.71.03-.25.15-.49.35-.65.2-.16.45-.25.7-.23Zm0-3.04c1.59,0,3.12.63,4.24,1.76,1.13,1.13,1.76,2.65,1.76,4.24,0,.25-.1.5-.27.69-.17.19-.41.3-.67.31-.25.01-.51-.07-.7-.23-.2-.16-.32-.4-.35-.65v-.12c0-1.02-.39-1.99-1.09-2.73-.69-.74-1.64-1.19-2.66-1.26h-.26c-.27,0-.52-.11-.71-.3-.19-.19-.29-.44-.29-.71s.11-.52.29-.71c.19-.19.44-.29.71-.29Z"/></svg>