<svg xmlns="http://www.w3.org/2000/svg" width="24" height="24" viewBox="0 0 24 24"><path d="m12,22c5.52,0,10-4.48,10-10S17.52,2,12,2,2,6.48,2,12c0,4.01,2.36,7.46,5.76,9.06l2.29-10.77c.06-.26.22-.48.44-.62.22-.14.49-.19.75-.14.26.05.48.21.63.43.14.22.2.49.15.74-.27,1.29-.51,1.79-.5,2.39.02.94.27,1.44.52,1.7.25.26.62.41,1.09.4.49,0,1.04-.18,1.53-.49.95-.6,1.36-1.62,1.36-2.71,0-.59-.13-1.18-.39-1.72-.26-.54-.63-1.01-1.09-1.38-.46-.37-1-.64-1.58-.78-.58-.14-1.18-.15-1.76-.03-.58.12-1.13.37-1.6.73-.47.36-.86.82-1.13,1.35-.27.53-.43,1.11-.44,1.7-.02.59.09,1.18.33,1.73.1.24.1.51,0,.75-.1.24-.29.43-.53.54-.24.1-.51.11-.75.02-.24-.09-.44-.27-.55-.51-.4-.91-.56-1.91-.48-2.9s.41-1.95.96-2.78c.55-.83,1.29-1.52,2.17-1.99.88-.47,1.86-.72,2.85-.72s1.98.25,2.85.72c.88.47,1.62,1.16,2.17,1.99.55.83.88,1.79.96,2.78.08.99-.08,1.99-.48,2.9-.37.85-1.04,1.53-1.79,2.01-.76.47-1.66.78-2.56.79-.82.01-1.67-.21-2.36-.81l-1.13,5.33c.75.18,1.53.27,2.34.27h0Z"/></svg>