<svg xmlns="http://www.w3.org/2000/svg" width="24" height="24" viewBox="0 0 24 24"><path d="m13.3,13.27h6.42c.34,0,.67-.14.91-.38.24-.24.38-.57.38-.91s-.14-.67-.38-.91c-.24-.24-.57-.38-.91-.38h-6.42s0-6.42,0-6.42c0-.17-.03-.34-.1-.49s-.16-.3-.28-.42c-.12-.12-.26-.21-.42-.28-.16-.06-.32-.1-.49-.1-.17,0-.34.03-.49.1-.16.06-.3.16-.42.28-.12.12-.21.26-.28.42-.06.16-.1.32-.1.49v6.42s-6.42,0-6.42,0c-.17,0-.34.03-.5.09-.16.06-.3.16-.42.28-.12.12-.22.26-.28.42-.07.16-.1.33-.1.5,0,.17.03.34.1.5.07.16.16.3.28.42.12.12.27.21.42.28.16.06.33.09.5.09h6.42s0,6.42,0,6.42c0,.17.03.34.09.5.06.16.16.3.28.42.12.12.26.22.42.28.16.07.33.1.5.1.17,0,.34-.03.5-.1s.3-.16.42-.28c.12-.12.21-.27.28-.42.06-.16.09-.33.09-.5v-6.42Z" fill-rule="evenodd"/></svg>