<svg xmlns="http://www.w3.org/2000/svg" width="24" height="24" viewBox="0 0 24 24"><path d="m21.29,19h-2.44c-.95,0-1.71-.79-1.71-1.75v-4.65c0-1.1-1-2-2.23-2h-1.22c-.94,0-1.71-.79-1.71-1.75v-2.1c0-.96.77-1.75,1.71-1.75h1.22c4.46,0,8.1,3.41,8.1,7.6v4.65c0,.96-.77,1.75-1.71,1.75Zm-2.16-2h1.87v-4.4c0-3.09-2.74-5.6-6.1-5.6h-.94v1.6h.94c2.33,0,4.23,1.79,4.23,4v4.4Zm-8.81,2h-2.44c-.95,0-1.71-.79-1.71-1.75v-4.65c0-1.1-1-2-2.23-2h-1.22c-.95,0-1.71-.79-1.71-1.75v-2.1c0-.96.77-1.75,1.71-1.75h1.22c4.46,0,8.1,3.41,8.1,7.6v4.65c0,.96-.77,1.75-1.71,1.75Zm-2.16-2h1.87v-4.4c0-3.09-2.73-5.6-6.1-5.6h-.94v1.6h.94c2.33,0,4.23,1.79,4.23,4v4.4Z"/></svg>
