<svg xmlns="http://www.w3.org/2000/svg" width="24" height="24" viewBox="0 0 24 24"><path d="M19.49 9.01c0-.22.07-.44.19-.63s.3-.33.5-.41c.21-.09.43-.11.65-.06.22.04.42.15.58.31s.26.36.31.58a1.114 1.114 0 0 1-1.09 1.34c-.3 0-.58-.12-.8-.33-.21-.21-.33-.5-.33-.8Zm-1.12-2.25c.22 0 .44-.07.62-.19.19-.12.33-.3.41-.5.09-.21.11-.43.06-.65a1.1 1.1 0 0 0-.31-.58c-.16-.16-.36-.26-.58-.31-.22-.04-.44-.02-.65.06a1.12 1.12 0 0 0-.69 1.04c0 .3.12.58.33.8.21.21.5.33.8.33Zm2.69 5.25a.75.75 0 0 0-.55.18c-.15.13-.25.31-.26.51a8.17 8.17 0 0 1-1.67 4.31 8.278 8.278 0 0 1-12.41.83 8.28 8.28 0 0 1-1.93-8.68 8.3 8.3 0 0 1 2.74-3.73 8.2 8.2 0 0 1 4.31-1.67c.1 0 .19-.04.28-.08.09-.05.17-.11.23-.18.06-.08.11-.16.14-.26.03-.09.04-.19.03-.29 0-.1-.04-.19-.08-.28-.05-.09-.11-.17-.18-.23s-.16-.11-.26-.14a.7.7 0 0 0-.29-.03c-1.85.16-3.62.84-5.1 1.97a9.76 9.76 0 0 0-3.6 9.86 9.66 9.66 0 0 0 2.63 4.79 9.8 9.8 0 0 0 4.79 2.63 9.76 9.76 0 0 0 9.86-3.6 9.7 9.7 0 0 0 1.97-5.1c0-.1 0-.2-.03-.29a1 1 0 0 0-.14-.26.6.6 0 0 0-.23-.18.7.7 0 0 0-.28-.08ZM12 5.26a6.76 6.76 0 0 1 6.24 4.17 6.76 6.76 0 0 1-1.47 7.36 6.76 6.76 0 0 1-7.36 1.47 6.76 6.76 0 0 1-4.17-6.24c0-1.79.71-3.51 1.98-4.77a6.74 6.74 0 0 1 4.77-1.98Zm-.75 6.75a.75.75 0 0 0 .75.75h4.5a.75.75 0 0 0 0-1.5h-3.75V7.51a.75.75 0 0 0-1.5 0zM15 4.51c.22 0 .44-.07.62-.19s.33-.3.41-.5c.09-.21.11-.43.06-.65s-.15-.42-.31-.58-.36-.26-.58-.31c-.22-.04-.44-.02-.65.06s-.38.23-.5.41-.19.4-.19.63c0 .3.12.58.33.8.21.21.5.33.8.33Z"/></svg>