<svg xmlns="http://www.w3.org/2000/svg" width="24" height="24" viewBox="0 0 24 24"><path d="m23.92 13.63-.06-.16-1.79-4.03-.05-.11a1.6 1.6 0 0 0-1.41-.84H16v-1.4c0-.88-.72-1.6-1.6-1.6H1c-.55 0-1 .45-1 1s.45 1 1 1h13v9h-3.17a3 3 0 0 0-5.66 0H4v-4.5c0-.55-.45-1-1-1s-1 .45-1 1v4.9c0 .88.72 1.6 1.6 1.6h1.57a3 3 0 0 0 5.66 0h4.35a3 3 0 0 0 5.66 0h1.57c.88 0 1.6-.72 1.6-1.6v-2.77q0-.25-.08-.49ZM8 18.5c-.55 0-1-.45-1-1s.45-1 1-1 1 .45 1 1-.45 1-1 1m10 0c-.55 0-1-.45-1-1s.45-1 1-1 1 .45 1 1-.45 1-1 1m4-2h-1.17A3 3 0 0 0 16 15.27V10.5h4.35L22 14.21z"/><path d="M6 10.5c.55 0 1-.45 1-1s-.45-1-1-1H2c-.55 0-1 .45-1 1s.45 1 1 1z"/></svg>