<svg xmlns="http://www.w3.org/2000/svg" width="24" height="24" viewBox="0 0 24 24"><path d="M18.2 19.02a.76.76 0 0 1 .11.8c-.06.13-.16.24-.28.32s-.26.12-.4.12H1.87c-.14 0-.28-.04-.4-.12a.8.8 0 0 1-.28-.32q-.09-.195-.06-.42c.02-.14.08-.27.17-.38 1.4-1.67 3.14-2.85 5.08-3.48a6.37 6.37 0 0 1-2.76-7.16 6.38 6.38 0 0 1 6.13-4.63 6.383 6.383 0 0 1 5.95 8.67c-.5 1.29-1.4 2.39-2.58 3.12 1.94.63 3.68 1.82 5.08 3.48m-.12-13.26a.7.7 0 0 0-.24.17c-.07.07-.12.15-.16.25-.04.09-.06.19-.05.29 0 .1.02.2.06.29.46 1.07.69 2.22.69 3.39s-.23 2.31-.69 3.39c-.08.18-.08.39 0 .57s.22.33.4.41.39.08.57 0c.18-.07.33-.22.41-.4.53-1.26.81-2.61.81-3.98s-.28-2.72-.81-3.98a.76.76 0 0 0-.41-.4.8.8 0 0 0-.57 0Zm3.74-.8a.74.74 0 0 0-.41-.42.72.72 0 0 0-.58 0c-.09.04-.18.1-.25.17s-.12.16-.16.25-.05.19-.05.29.03.2.07.29c.62 1.45.94 3.01.94 4.58s-.32 3.13-.94 4.58a.73.73 0 0 0-.02.58.74.74 0 0 0 .41.42.72.72 0 0 0 .58 0c.09-.04.18-.1.25-.17s.13-.16.16-.25c.7-1.63 1.06-3.39 1.06-5.17s-.36-3.54-1.06-5.17Z"/></svg>