<svg xmlns="http://www.w3.org/2000/svg" width="24" height="24" viewBox="0 0 24 24"><path d="M15.32 7.09c-.64 0-1.28.09-1.9.26-.24-.4-.54-.76-.88-1.08L13.43 5q.09-.12.12-.27c.02-.1.02-.2 0-.29a.64.64 0 0 0-.11-.27c-.05-.08-.12-.15-.2-.21s-.17-.1-.27-.12-.2-.02-.29 0c-.1.02-.19.05-.27.11-.08.05-.15.12-.21.2l-.89 1.27c-.73-.37-1.54-.56-2.36-.56h-.16l-.27-1.53c-.01-.1-.05-.2-.1-.28-.05-.09-.12-.16-.2-.22s-.17-.1-.27-.12a.6.6 0 0 0-.3 0 .75.75 0 0 0-.49.32.57.57 0 0 0-.11.28q-.03.15 0 .3l.27 1.53c-.83.28-1.58.75-2.18 1.39l-1.28-.89a.7.7 0 0 0-.27-.12.6.6 0 0 0-.29 0c-.1.02-.19.05-.28.11-.08.05-.16.12-.21.2a.7.7 0 0 0-.12.56c.02.1.05.19.11.27a.7.7 0 0 0 .21.21l1.27.89c-.37.73-.56 1.54-.56 2.37v.16l-1.53.27a.77.77 0 0 0-.47.28.76.76 0 0 0 .09 1.01c.14.13.32.2.51.2.04 0 .09 0 .13-.01l1.53-.27c.13.41.32.8.55 1.16a4.88 4.88 0 0 0-1.23 5.35c.36.91.98 1.69 1.79 2.25.81.55 1.76.85 2.74.85h7.5c1.89 0 3.7-.75 5.04-2.09a7.12 7.12 0 0 0 0-10.08 7.12 7.12 0 0 0-5.04-2.09Zm-6.66 4.57c-.99-.17-2-.03-2.91.39-.5-.83-.66-1.82-.45-2.76s.78-1.77 1.59-2.31c.81-.53 1.79-.74 2.74-.56.95.17 1.8.71 2.37 1.49a7.17 7.17 0 0 0-3.34 3.75"/></svg>