<svg xmlns="http://www.w3.org/2000/svg" width="24" height="24" viewBox="0 0 24 24"><path fill-rule="evenodd" d="M12 2a10 10 0 0 0-8.56 15.17l-.89 3.03a.96.96 0 0 0 0 .53c.04.18.14.34.26.46.13.13.29.22.46.26.18.04.36.04.53 0l3.03-.89A10 10 0 1 0 12 2ZM9.74 14.26c2.02 2.02 3.95 2.29 4.64 2.31 1.04.04 2.05-.75 2.44-1.67.05-.11.07-.24.05-.36a.73.73 0 0 0-.14-.34c-.55-.7-1.29-1.2-2.01-1.7a.74.74 0 0 0-.52-.12.7.7 0 0 0-.45.28l-.6.91s-.08.08-.14.1a.32.32 0 0 1-.17-.02 7.1 7.1 0 0 1-1.43-1.06c-.43-.43-.8-.99-1.01-1.37-.03-.05-.03-.1-.02-.16a.2.2 0 0 1 .09-.13l.92-.69a.7.7 0 0 0 .12-.94c-.45-.66-.97-1.49-1.73-2.04a.7.7 0 0 0-.68-.08c-.92.39-1.72 1.4-1.68 2.44.03.68.29 2.61 2.31 4.64Z"/></svg>