<svg xmlns="http://www.w3.org/2000/svg" width="24" height="24" viewBox="0 0 24 24"><path fill-rule="evenodd" d="M12 4c.85 0 1.73.02 2.58.06l1 .05.96.06.9.06.82.06a3.8 3.8 0 0 1 3.49 3.43l.04.42.08.91c.07.94.12 1.97.12 2.95s-.05 2.01-.12 2.95l-.08.91-.04.42a3.83 3.83 0 0 1-1.12 2.35 3.74 3.74 0 0 1-2.37 1.07l-.82.06-.9.06-.96.06-1 .05a55.52 55.52 0 0 1-5.16 0l-1-.05-.96-.06-.9-.06-.82-.06a3.8 3.8 0 0 1-3.49-3.43l-.04-.42-.08-.91a36.37 36.37 0 0 1 0-5.9l.08-.91.04-.42a3.83 3.83 0 0 1 3.49-3.43l.82-.06.9-.06.96-.06 1-.05c.85-.04 1.73-.06 2.58-.06Zm-2 5.57v4.85c0 .46.5.75.9.52l4.2-2.42a.58.58 0 0 0 .22-.22.61.61 0 0 0 0-.6.58.58 0 0 0-.22-.22l-4.2-2.42a.61.61 0 0 0-.6 0 .58.58 0 0 0-.22.22.61.61 0 0 0-.08.3Z"/></svg>